%TF.GenerationSoftware,KiCad,Pcbnew,(5.1.0)-1*%
%TF.CreationDate,2019-10-03T23:56:52+02:00*%
%TF.ProjectId,KicadJE_RIAA,4b696361-644a-4455-9f52-4941412e6b69,rev?*%
%TF.SameCoordinates,Original*%
%TF.FileFunction,Soldermask,Top*%
%TF.FilePolarity,Negative*%
%FSLAX46Y46*%
G04 Gerber Fmt 4.6, Leading zero omitted, Abs format (unit mm)*
G04 Created by KiCad (PCBNEW (5.1.0)-1) date 2019-10-03 23:56:52*
%MOMM*%
%LPD*%
G04 APERTURE LIST*
%ADD10C,1.000000*%
%ADD11C,0.050000*%
%ADD12C,0.002000*%
%ADD13C,0.150000*%
G04 APERTURE END LIST*
D10*
X99000000Y-138500000D02*
X100000000Y-138500000D01*
X99000000Y-82250000D02*
X99000000Y-138500000D01*
X100000000Y-82250000D02*
X99000000Y-82250000D01*
X100000000Y-138500000D02*
X100000000Y-82250000D01*
D11*
X50000000Y-145500000D02*
X50000000Y-53750000D01*
X150000000Y-145500000D02*
X50000000Y-145500000D01*
X150000000Y-53750000D02*
X150000000Y-145500000D01*
X50000000Y-53750000D02*
X150000000Y-53750000D01*
D12*
G36*
X142525000Y-137452000D02*
G01*
X142729000Y-137436000D01*
X142927000Y-137388000D01*
X143116000Y-137310000D01*
X143290000Y-137203000D01*
X143445000Y-137070000D01*
X143578000Y-136915000D01*
X143685000Y-136741000D01*
X143763000Y-136552000D01*
X143811000Y-136354000D01*
X143827000Y-136150000D01*
X143811000Y-135946000D01*
X143763000Y-135748000D01*
X143685000Y-135559000D01*
X143578000Y-135385000D01*
X143445000Y-135230000D01*
X143290000Y-135097000D01*
X143116000Y-134990000D01*
X142927000Y-134912000D01*
X142729000Y-134864000D01*
X142525000Y-134848000D01*
X139625000Y-134848000D01*
X139421000Y-134864000D01*
X139223000Y-134912000D01*
X139034000Y-134990000D01*
X138860000Y-135097000D01*
X138705000Y-135230000D01*
X138572000Y-135385000D01*
X138465000Y-135559000D01*
X138387000Y-135748000D01*
X138339000Y-135946000D01*
X138323000Y-136150000D01*
X138339000Y-136354000D01*
X138387000Y-136552000D01*
X138465000Y-136741000D01*
X138572000Y-136915000D01*
X138705000Y-137070000D01*
X138860000Y-137203000D01*
X139034000Y-137310000D01*
X139223000Y-137388000D01*
X139421000Y-137436000D01*
X139625000Y-137452000D01*
X142525000Y-137452000D01*
G37*
X142525000Y-137452000D02*
X142729000Y-137436000D01*
X142927000Y-137388000D01*
X143116000Y-137310000D01*
X143290000Y-137203000D01*
X143445000Y-137070000D01*
X143578000Y-136915000D01*
X143685000Y-136741000D01*
X143763000Y-136552000D01*
X143811000Y-136354000D01*
X143827000Y-136150000D01*
X143811000Y-135946000D01*
X143763000Y-135748000D01*
X143685000Y-135559000D01*
X143578000Y-135385000D01*
X143445000Y-135230000D01*
X143290000Y-135097000D01*
X143116000Y-134990000D01*
X142927000Y-134912000D01*
X142729000Y-134864000D01*
X142525000Y-134848000D01*
X139625000Y-134848000D01*
X139421000Y-134864000D01*
X139223000Y-134912000D01*
X139034000Y-134990000D01*
X138860000Y-135097000D01*
X138705000Y-135230000D01*
X138572000Y-135385000D01*
X138465000Y-135559000D01*
X138387000Y-135748000D01*
X138339000Y-135946000D01*
X138323000Y-136150000D01*
X138339000Y-136354000D01*
X138387000Y-136552000D01*
X138465000Y-136741000D01*
X138572000Y-136915000D01*
X138705000Y-137070000D01*
X138860000Y-137203000D01*
X139034000Y-137310000D01*
X139223000Y-137388000D01*
X139421000Y-137436000D01*
X139625000Y-137452000D01*
X142525000Y-137452000D01*
G36*
X142525000Y-111152000D02*
G01*
X142729000Y-111136000D01*
X142927000Y-111088000D01*
X143116000Y-111010000D01*
X143290000Y-110903000D01*
X143445000Y-110770000D01*
X143578000Y-110615000D01*
X143685000Y-110441000D01*
X143763000Y-110252000D01*
X143811000Y-110054000D01*
X143827000Y-109850000D01*
X143811000Y-109646000D01*
X143763000Y-109448000D01*
X143685000Y-109259000D01*
X143578000Y-109085000D01*
X143445000Y-108930000D01*
X143290000Y-108797000D01*
X143116000Y-108690000D01*
X142927000Y-108612000D01*
X142729000Y-108564000D01*
X142525000Y-108548000D01*
X139625000Y-108548000D01*
X139421000Y-108564000D01*
X139223000Y-108612000D01*
X139034000Y-108690000D01*
X138860000Y-108797000D01*
X138705000Y-108930000D01*
X138572000Y-109085000D01*
X138465000Y-109259000D01*
X138387000Y-109448000D01*
X138339000Y-109646000D01*
X138323000Y-109850000D01*
X138339000Y-110054000D01*
X138387000Y-110252000D01*
X138465000Y-110441000D01*
X138572000Y-110615000D01*
X138705000Y-110770000D01*
X138860000Y-110903000D01*
X139034000Y-111010000D01*
X139223000Y-111088000D01*
X139421000Y-111136000D01*
X139625000Y-111152000D01*
X142525000Y-111152000D01*
G37*
X142525000Y-111152000D02*
X142729000Y-111136000D01*
X142927000Y-111088000D01*
X143116000Y-111010000D01*
X143290000Y-110903000D01*
X143445000Y-110770000D01*
X143578000Y-110615000D01*
X143685000Y-110441000D01*
X143763000Y-110252000D01*
X143811000Y-110054000D01*
X143827000Y-109850000D01*
X143811000Y-109646000D01*
X143763000Y-109448000D01*
X143685000Y-109259000D01*
X143578000Y-109085000D01*
X143445000Y-108930000D01*
X143290000Y-108797000D01*
X143116000Y-108690000D01*
X142927000Y-108612000D01*
X142729000Y-108564000D01*
X142525000Y-108548000D01*
X139625000Y-108548000D01*
X139421000Y-108564000D01*
X139223000Y-108612000D01*
X139034000Y-108690000D01*
X138860000Y-108797000D01*
X138705000Y-108930000D01*
X138572000Y-109085000D01*
X138465000Y-109259000D01*
X138387000Y-109448000D01*
X138339000Y-109646000D01*
X138323000Y-109850000D01*
X138339000Y-110054000D01*
X138387000Y-110252000D01*
X138465000Y-110441000D01*
X138572000Y-110615000D01*
X138705000Y-110770000D01*
X138860000Y-110903000D01*
X139034000Y-111010000D01*
X139223000Y-111088000D01*
X139421000Y-111136000D01*
X139625000Y-111152000D01*
X142525000Y-111152000D01*
D13*
G36*
X140744098Y-139047033D02*
G01*
X141208350Y-139239332D01*
X141208352Y-139239333D01*
X141626168Y-139518509D01*
X141981491Y-139873832D01*
X142260667Y-140291648D01*
X142260668Y-140291650D01*
X142452967Y-140755902D01*
X142551000Y-141248747D01*
X142551000Y-141751253D01*
X142452967Y-142244098D01*
X142274896Y-142674000D01*
X142260667Y-142708352D01*
X141981491Y-143126168D01*
X141626168Y-143481491D01*
X141208352Y-143760667D01*
X141208351Y-143760668D01*
X141208350Y-143760668D01*
X140744098Y-143952967D01*
X140251253Y-144051000D01*
X139748747Y-144051000D01*
X139255902Y-143952967D01*
X138791650Y-143760668D01*
X138791649Y-143760668D01*
X138791648Y-143760667D01*
X138373832Y-143481491D01*
X138018509Y-143126168D01*
X137739333Y-142708352D01*
X137725104Y-142674000D01*
X137547033Y-142244098D01*
X137449000Y-141751253D01*
X137449000Y-141248747D01*
X137547033Y-140755902D01*
X137739332Y-140291650D01*
X137739333Y-140291648D01*
X138018509Y-139873832D01*
X138373832Y-139518509D01*
X138791648Y-139239333D01*
X138791650Y-139239332D01*
X139255902Y-139047033D01*
X139748747Y-138949000D01*
X140251253Y-138949000D01*
X140744098Y-139047033D01*
X140744098Y-139047033D01*
G37*
G36*
X104994098Y-138797033D02*
G01*
X105458350Y-138989332D01*
X105458352Y-138989333D01*
X105876168Y-139268509D01*
X106231491Y-139623832D01*
X106497403Y-140021797D01*
X106510668Y-140041650D01*
X106702967Y-140505902D01*
X106801000Y-140998747D01*
X106801000Y-141501253D01*
X106702967Y-141994098D01*
X106550496Y-142362196D01*
X106510667Y-142458352D01*
X106231491Y-142876168D01*
X105876168Y-143231491D01*
X105458352Y-143510667D01*
X105458351Y-143510668D01*
X105458350Y-143510668D01*
X104994098Y-143702967D01*
X104501253Y-143801000D01*
X103998747Y-143801000D01*
X103505902Y-143702967D01*
X103041650Y-143510668D01*
X103041649Y-143510668D01*
X103041648Y-143510667D01*
X102623832Y-143231491D01*
X102268509Y-142876168D01*
X101989333Y-142458352D01*
X101949504Y-142362196D01*
X101797033Y-141994098D01*
X101699000Y-141501253D01*
X101699000Y-140998747D01*
X101797033Y-140505902D01*
X101989332Y-140041650D01*
X102002597Y-140021797D01*
X102268509Y-139623832D01*
X102623832Y-139268509D01*
X103041648Y-138989333D01*
X103041650Y-138989332D01*
X103505902Y-138797033D01*
X103998747Y-138699000D01*
X104501253Y-138699000D01*
X104994098Y-138797033D01*
X104994098Y-138797033D01*
G37*
G36*
X54775880Y-139259776D02*
G01*
X55156593Y-139335504D01*
X55566249Y-139505189D01*
X55934929Y-139751534D01*
X56248466Y-140065071D01*
X56494811Y-140433751D01*
X56664496Y-140843407D01*
X56751000Y-141278296D01*
X56751000Y-141721704D01*
X56664496Y-142156593D01*
X56494811Y-142566249D01*
X56248466Y-142934929D01*
X55934929Y-143248466D01*
X55566249Y-143494811D01*
X55156593Y-143664496D01*
X54775880Y-143740224D01*
X54721705Y-143751000D01*
X54278295Y-143751000D01*
X54224120Y-143740224D01*
X53843407Y-143664496D01*
X53433751Y-143494811D01*
X53065071Y-143248466D01*
X52751534Y-142934929D01*
X52505189Y-142566249D01*
X52335504Y-142156593D01*
X52249000Y-141721704D01*
X52249000Y-141278296D01*
X52335504Y-140843407D01*
X52505189Y-140433751D01*
X52751534Y-140065071D01*
X53065071Y-139751534D01*
X53433751Y-139505189D01*
X53843407Y-139335504D01*
X54224120Y-139259776D01*
X54278295Y-139249000D01*
X54721705Y-139249000D01*
X54775880Y-139259776D01*
X54775880Y-139259776D01*
G37*
G36*
X89625880Y-139259776D02*
G01*
X90006593Y-139335504D01*
X90416249Y-139505189D01*
X90784929Y-139751534D01*
X91098466Y-140065071D01*
X91344811Y-140433751D01*
X91514496Y-140843407D01*
X91601000Y-141278296D01*
X91601000Y-141721704D01*
X91514496Y-142156593D01*
X91344811Y-142566249D01*
X91098466Y-142934929D01*
X90784929Y-143248466D01*
X90416249Y-143494811D01*
X90006593Y-143664496D01*
X89625880Y-143740224D01*
X89571705Y-143751000D01*
X89128295Y-143751000D01*
X89074120Y-143740224D01*
X88693407Y-143664496D01*
X88283751Y-143494811D01*
X87915071Y-143248466D01*
X87601534Y-142934929D01*
X87355189Y-142566249D01*
X87185504Y-142156593D01*
X87099000Y-141721704D01*
X87099000Y-141278296D01*
X87185504Y-140843407D01*
X87355189Y-140433751D01*
X87601534Y-140065071D01*
X87915071Y-139751534D01*
X88283751Y-139505189D01*
X88693407Y-139335504D01*
X89074120Y-139259776D01*
X89128295Y-139249000D01*
X89571705Y-139249000D01*
X89625880Y-139259776D01*
X89625880Y-139259776D01*
G37*
G36*
X131351000Y-142351000D02*
G01*
X129649000Y-142351000D01*
X129649000Y-140649000D01*
X131351000Y-140649000D01*
X131351000Y-142351000D01*
X131351000Y-142351000D01*
G37*
G36*
X76748228Y-139431703D02*
G01*
X76903100Y-139495853D01*
X77042481Y-139588985D01*
X77161015Y-139707519D01*
X77254147Y-139846900D01*
X77318297Y-140001772D01*
X77351000Y-140166184D01*
X77351000Y-140333816D01*
X77318297Y-140498228D01*
X77254147Y-140653100D01*
X77161015Y-140792481D01*
X77042481Y-140911015D01*
X76903100Y-141004147D01*
X76748228Y-141068297D01*
X76583816Y-141101000D01*
X76416184Y-141101000D01*
X76251772Y-141068297D01*
X76096900Y-141004147D01*
X75957519Y-140911015D01*
X75838985Y-140792481D01*
X75745853Y-140653100D01*
X75681703Y-140498228D01*
X75649000Y-140333816D01*
X75649000Y-140166184D01*
X75681703Y-140001772D01*
X75745853Y-139846900D01*
X75838985Y-139707519D01*
X75957519Y-139588985D01*
X76096900Y-139495853D01*
X76251772Y-139431703D01*
X76416184Y-139399000D01*
X76583816Y-139399000D01*
X76748228Y-139431703D01*
X76748228Y-139431703D01*
G37*
G36*
X61426823Y-139411313D02*
G01*
X61587242Y-139459976D01*
X61654361Y-139495852D01*
X61735078Y-139538996D01*
X61864659Y-139645341D01*
X61971004Y-139774922D01*
X61971005Y-139774924D01*
X62050024Y-139922758D01*
X62098687Y-140083177D01*
X62115117Y-140250000D01*
X62098687Y-140416823D01*
X62050024Y-140577242D01*
X62009477Y-140653100D01*
X61971004Y-140725078D01*
X61864659Y-140854659D01*
X61735078Y-140961004D01*
X61735076Y-140961005D01*
X61587242Y-141040024D01*
X61426823Y-141088687D01*
X61301804Y-141101000D01*
X61218196Y-141101000D01*
X61093177Y-141088687D01*
X60932758Y-141040024D01*
X60784924Y-140961005D01*
X60784922Y-140961004D01*
X60655341Y-140854659D01*
X60548996Y-140725078D01*
X60510523Y-140653100D01*
X60469976Y-140577242D01*
X60421313Y-140416823D01*
X60404883Y-140250000D01*
X60421313Y-140083177D01*
X60469976Y-139922758D01*
X60548995Y-139774924D01*
X60548996Y-139774922D01*
X60655341Y-139645341D01*
X60784922Y-139538996D01*
X60865639Y-139495852D01*
X60932758Y-139459976D01*
X61093177Y-139411313D01*
X61218196Y-139399000D01*
X61301804Y-139399000D01*
X61426823Y-139411313D01*
X61426823Y-139411313D01*
G37*
G36*
X130748228Y-137181703D02*
G01*
X130903100Y-137245853D01*
X131042481Y-137338985D01*
X131161015Y-137457519D01*
X131254147Y-137596900D01*
X131318297Y-137751772D01*
X131351000Y-137916184D01*
X131351000Y-138083816D01*
X131318297Y-138248228D01*
X131254147Y-138403100D01*
X131161015Y-138542481D01*
X131042481Y-138661015D01*
X130903100Y-138754147D01*
X130748228Y-138818297D01*
X130583816Y-138851000D01*
X130416184Y-138851000D01*
X130251772Y-138818297D01*
X130096900Y-138754147D01*
X129957519Y-138661015D01*
X129838985Y-138542481D01*
X129745853Y-138403100D01*
X129681703Y-138248228D01*
X129649000Y-138083816D01*
X129649000Y-137916184D01*
X129681703Y-137751772D01*
X129745853Y-137596900D01*
X129838985Y-137457519D01*
X129957519Y-137338985D01*
X130096900Y-137245853D01*
X130251772Y-137181703D01*
X130416184Y-137149000D01*
X130583816Y-137149000D01*
X130748228Y-137181703D01*
X130748228Y-137181703D01*
G37*
G36*
X54951000Y-137701000D02*
G01*
X53049000Y-137701000D01*
X53049000Y-135799000D01*
X54951000Y-135799000D01*
X54951000Y-137701000D01*
X54951000Y-137701000D01*
G37*
G36*
X142520239Y-134917101D02*
G01*
X142756053Y-134988634D01*
X142973381Y-135104799D01*
X143163871Y-135261129D01*
X143320201Y-135451619D01*
X143436366Y-135668947D01*
X143507899Y-135904761D01*
X143532053Y-136150000D01*
X143507899Y-136395239D01*
X143436366Y-136631053D01*
X143320201Y-136848381D01*
X143163871Y-137038871D01*
X142973381Y-137195201D01*
X142756053Y-137311366D01*
X142520239Y-137382899D01*
X142336457Y-137401000D01*
X139813543Y-137401000D01*
X139629761Y-137382899D01*
X139393947Y-137311366D01*
X139176619Y-137195201D01*
X138986129Y-137038871D01*
X138829799Y-136848381D01*
X138713634Y-136631053D01*
X138642101Y-136395239D01*
X138617947Y-136150000D01*
X138642101Y-135904761D01*
X138713634Y-135668947D01*
X138829799Y-135451619D01*
X138986129Y-135261129D01*
X139176619Y-135104799D01*
X139393947Y-134988634D01*
X139629761Y-134917101D01*
X139813543Y-134899000D01*
X142336457Y-134899000D01*
X142520239Y-134917101D01*
X142520239Y-134917101D01*
G37*
G36*
X95801000Y-136551000D02*
G01*
X92699000Y-136551000D01*
X92699000Y-133449000D01*
X95801000Y-133449000D01*
X95801000Y-136551000D01*
X95801000Y-136551000D01*
G37*
G36*
X116248228Y-134681703D02*
G01*
X116403100Y-134745853D01*
X116542481Y-134838985D01*
X116661015Y-134957519D01*
X116754147Y-135096900D01*
X116818297Y-135251772D01*
X116851000Y-135416184D01*
X116851000Y-135583816D01*
X116818297Y-135748228D01*
X116754147Y-135903100D01*
X116661015Y-136042481D01*
X116542481Y-136161015D01*
X116403100Y-136254147D01*
X116248228Y-136318297D01*
X116083816Y-136351000D01*
X115916184Y-136351000D01*
X115751772Y-136318297D01*
X115596900Y-136254147D01*
X115457519Y-136161015D01*
X115338985Y-136042481D01*
X115245853Y-135903100D01*
X115181703Y-135748228D01*
X115149000Y-135583816D01*
X115149000Y-135416184D01*
X115181703Y-135251772D01*
X115245853Y-135096900D01*
X115338985Y-134957519D01*
X115457519Y-134838985D01*
X115596900Y-134745853D01*
X115751772Y-134681703D01*
X115916184Y-134649000D01*
X116083816Y-134649000D01*
X116248228Y-134681703D01*
X116248228Y-134681703D01*
G37*
G36*
X111248228Y-134681703D02*
G01*
X111403100Y-134745853D01*
X111542481Y-134838985D01*
X111661015Y-134957519D01*
X111754147Y-135096900D01*
X111818297Y-135251772D01*
X111851000Y-135416184D01*
X111851000Y-135583816D01*
X111818297Y-135748228D01*
X111754147Y-135903100D01*
X111661015Y-136042481D01*
X111542481Y-136161015D01*
X111403100Y-136254147D01*
X111248228Y-136318297D01*
X111083816Y-136351000D01*
X110916184Y-136351000D01*
X110751772Y-136318297D01*
X110596900Y-136254147D01*
X110457519Y-136161015D01*
X110338985Y-136042481D01*
X110245853Y-135903100D01*
X110181703Y-135748228D01*
X110149000Y-135583816D01*
X110149000Y-135416184D01*
X110181703Y-135251772D01*
X110245853Y-135096900D01*
X110338985Y-134957519D01*
X110457519Y-134838985D01*
X110596900Y-134745853D01*
X110751772Y-134681703D01*
X110916184Y-134649000D01*
X111083816Y-134649000D01*
X111248228Y-134681703D01*
X111248228Y-134681703D01*
G37*
G36*
X108248228Y-134681703D02*
G01*
X108403100Y-134745853D01*
X108542481Y-134838985D01*
X108661015Y-134957519D01*
X108754147Y-135096900D01*
X108818297Y-135251772D01*
X108851000Y-135416184D01*
X108851000Y-135583816D01*
X108818297Y-135748228D01*
X108754147Y-135903100D01*
X108661015Y-136042481D01*
X108542481Y-136161015D01*
X108403100Y-136254147D01*
X108248228Y-136318297D01*
X108083816Y-136351000D01*
X107916184Y-136351000D01*
X107751772Y-136318297D01*
X107596900Y-136254147D01*
X107457519Y-136161015D01*
X107338985Y-136042481D01*
X107245853Y-135903100D01*
X107181703Y-135748228D01*
X107149000Y-135583816D01*
X107149000Y-135416184D01*
X107181703Y-135251772D01*
X107245853Y-135096900D01*
X107338985Y-134957519D01*
X107457519Y-134838985D01*
X107596900Y-134745853D01*
X107751772Y-134681703D01*
X107916184Y-134649000D01*
X108083816Y-134649000D01*
X108248228Y-134681703D01*
X108248228Y-134681703D01*
G37*
G36*
X103248228Y-134681703D02*
G01*
X103403100Y-134745853D01*
X103542481Y-134838985D01*
X103661015Y-134957519D01*
X103754147Y-135096900D01*
X103818297Y-135251772D01*
X103851000Y-135416184D01*
X103851000Y-135583816D01*
X103818297Y-135748228D01*
X103754147Y-135903100D01*
X103661015Y-136042481D01*
X103542481Y-136161015D01*
X103403100Y-136254147D01*
X103248228Y-136318297D01*
X103083816Y-136351000D01*
X102916184Y-136351000D01*
X102751772Y-136318297D01*
X102596900Y-136254147D01*
X102457519Y-136161015D01*
X102338985Y-136042481D01*
X102245853Y-135903100D01*
X102181703Y-135748228D01*
X102149000Y-135583816D01*
X102149000Y-135416184D01*
X102181703Y-135251772D01*
X102245853Y-135096900D01*
X102338985Y-134957519D01*
X102457519Y-134838985D01*
X102596900Y-134745853D01*
X102751772Y-134681703D01*
X102916184Y-134649000D01*
X103083816Y-134649000D01*
X103248228Y-134681703D01*
X103248228Y-134681703D01*
G37*
G36*
X74246822Y-133011313D02*
G01*
X74407241Y-133059976D01*
X74555077Y-133138995D01*
X74684659Y-133245341D01*
X74791004Y-133374922D01*
X74791005Y-133374924D01*
X74870024Y-133522758D01*
X74918687Y-133683177D01*
X74931000Y-133808196D01*
X74931000Y-134691803D01*
X74918687Y-134816822D01*
X74870024Y-134977242D01*
X74855425Y-135004554D01*
X74791004Y-135125078D01*
X74684659Y-135254659D01*
X74555078Y-135361004D01*
X74555076Y-135361005D01*
X74407242Y-135440024D01*
X74246823Y-135488687D01*
X74080000Y-135505117D01*
X73913178Y-135488687D01*
X73752759Y-135440024D01*
X73604925Y-135361005D01*
X73604923Y-135361004D01*
X73475342Y-135254659D01*
X73368997Y-135125078D01*
X73304576Y-135004554D01*
X73289977Y-134977242D01*
X73241314Y-134816823D01*
X73229000Y-134691803D01*
X73229000Y-133808197D01*
X73241313Y-133683178D01*
X73289976Y-133522759D01*
X73368995Y-133374923D01*
X73475341Y-133245341D01*
X73604922Y-133138996D01*
X73620094Y-133130886D01*
X73752758Y-133059976D01*
X73913177Y-133011313D01*
X74080000Y-132994883D01*
X74246822Y-133011313D01*
X74246822Y-133011313D01*
G37*
G36*
X76786822Y-133011313D02*
G01*
X76947241Y-133059976D01*
X77095077Y-133138995D01*
X77224659Y-133245341D01*
X77331004Y-133374922D01*
X77331005Y-133374924D01*
X77410024Y-133522758D01*
X77458687Y-133683177D01*
X77471000Y-133808196D01*
X77471000Y-134691803D01*
X77458687Y-134816822D01*
X77410024Y-134977242D01*
X77395425Y-135004554D01*
X77331004Y-135125078D01*
X77224659Y-135254659D01*
X77095078Y-135361004D01*
X77095076Y-135361005D01*
X76947242Y-135440024D01*
X76786823Y-135488687D01*
X76620000Y-135505117D01*
X76453178Y-135488687D01*
X76292759Y-135440024D01*
X76144925Y-135361005D01*
X76144923Y-135361004D01*
X76015342Y-135254659D01*
X75908997Y-135125078D01*
X75844576Y-135004554D01*
X75829977Y-134977242D01*
X75781314Y-134816823D01*
X75769000Y-134691803D01*
X75769000Y-133808197D01*
X75781313Y-133683178D01*
X75829976Y-133522759D01*
X75908995Y-133374923D01*
X76015341Y-133245341D01*
X76144922Y-133138996D01*
X76160094Y-133130886D01*
X76292758Y-133059976D01*
X76453177Y-133011313D01*
X76620000Y-132994883D01*
X76786822Y-133011313D01*
X76786822Y-133011313D01*
G37*
G36*
X71706822Y-133011313D02*
G01*
X71867241Y-133059976D01*
X72015077Y-133138995D01*
X72144659Y-133245341D01*
X72251004Y-133374922D01*
X72251005Y-133374924D01*
X72330024Y-133522758D01*
X72378687Y-133683177D01*
X72391000Y-133808196D01*
X72391000Y-134691803D01*
X72378687Y-134816822D01*
X72330024Y-134977242D01*
X72315425Y-135004554D01*
X72251004Y-135125078D01*
X72144659Y-135254659D01*
X72015078Y-135361004D01*
X72015076Y-135361005D01*
X71867242Y-135440024D01*
X71706823Y-135488687D01*
X71540000Y-135505117D01*
X71373178Y-135488687D01*
X71212759Y-135440024D01*
X71064925Y-135361005D01*
X71064923Y-135361004D01*
X70935342Y-135254659D01*
X70828997Y-135125078D01*
X70764576Y-135004554D01*
X70749977Y-134977242D01*
X70701314Y-134816823D01*
X70689000Y-134691803D01*
X70689000Y-133808197D01*
X70701313Y-133683178D01*
X70749976Y-133522759D01*
X70828995Y-133374923D01*
X70935341Y-133245341D01*
X71064922Y-133138996D01*
X71080094Y-133130886D01*
X71212758Y-133059976D01*
X71373177Y-133011313D01*
X71540000Y-132994883D01*
X71706822Y-133011313D01*
X71706822Y-133011313D01*
G37*
G36*
X69851000Y-135501000D02*
G01*
X68149000Y-135501000D01*
X68149000Y-132999000D01*
X69851000Y-132999000D01*
X69851000Y-135501000D01*
X69851000Y-135501000D01*
G37*
G36*
X66488674Y-133753465D02*
G01*
X66526367Y-133764899D01*
X66561103Y-133783466D01*
X66591548Y-133808452D01*
X66616534Y-133838897D01*
X66635101Y-133873633D01*
X66646535Y-133911326D01*
X66651000Y-133956661D01*
X66651000Y-135043339D01*
X66646535Y-135088674D01*
X66635101Y-135126367D01*
X66616534Y-135161103D01*
X66591548Y-135191548D01*
X66561103Y-135216534D01*
X66526367Y-135235101D01*
X66488674Y-135246535D01*
X66443339Y-135251000D01*
X65606661Y-135251000D01*
X65561326Y-135246535D01*
X65523633Y-135235101D01*
X65488897Y-135216534D01*
X65458452Y-135191548D01*
X65433466Y-135161103D01*
X65414899Y-135126367D01*
X65403465Y-135088674D01*
X65399000Y-135043339D01*
X65399000Y-133956661D01*
X65403465Y-133911326D01*
X65414899Y-133873633D01*
X65433466Y-133838897D01*
X65458452Y-133808452D01*
X65488897Y-133783466D01*
X65523633Y-133764899D01*
X65561326Y-133753465D01*
X65606661Y-133749000D01*
X66443339Y-133749000D01*
X66488674Y-133753465D01*
X66488674Y-133753465D01*
G37*
G36*
X64438674Y-133753465D02*
G01*
X64476367Y-133764899D01*
X64511103Y-133783466D01*
X64541548Y-133808452D01*
X64566534Y-133838897D01*
X64585101Y-133873633D01*
X64596535Y-133911326D01*
X64601000Y-133956661D01*
X64601000Y-135043339D01*
X64596535Y-135088674D01*
X64585101Y-135126367D01*
X64566534Y-135161103D01*
X64541548Y-135191548D01*
X64511103Y-135216534D01*
X64476367Y-135235101D01*
X64438674Y-135246535D01*
X64393339Y-135251000D01*
X63556661Y-135251000D01*
X63511326Y-135246535D01*
X63473633Y-135235101D01*
X63438897Y-135216534D01*
X63408452Y-135191548D01*
X63383466Y-135161103D01*
X63364899Y-135126367D01*
X63353465Y-135088674D01*
X63349000Y-135043339D01*
X63349000Y-133956661D01*
X63353465Y-133911326D01*
X63364899Y-133873633D01*
X63383466Y-133838897D01*
X63408452Y-133808452D01*
X63438897Y-133783466D01*
X63473633Y-133764899D01*
X63511326Y-133753465D01*
X63556661Y-133749000D01*
X64393339Y-133749000D01*
X64438674Y-133753465D01*
X64438674Y-133753465D01*
G37*
G36*
X54186425Y-133272760D02*
G01*
X54186428Y-133272761D01*
X54186429Y-133272761D01*
X54365693Y-133327140D01*
X54365696Y-133327142D01*
X54365697Y-133327142D01*
X54530903Y-133415446D01*
X54675712Y-133534288D01*
X54794554Y-133679097D01*
X54875283Y-133830132D01*
X54882860Y-133844307D01*
X54937239Y-134023571D01*
X54937240Y-134023575D01*
X54955601Y-134210000D01*
X54937240Y-134396425D01*
X54937239Y-134396428D01*
X54937239Y-134396429D01*
X54882860Y-134575693D01*
X54882858Y-134575696D01*
X54882858Y-134575697D01*
X54794554Y-134740903D01*
X54675712Y-134885712D01*
X54530903Y-135004554D01*
X54365697Y-135092858D01*
X54365693Y-135092860D01*
X54186429Y-135147239D01*
X54186428Y-135147239D01*
X54186425Y-135147240D01*
X54046718Y-135161000D01*
X53953282Y-135161000D01*
X53813575Y-135147240D01*
X53813572Y-135147239D01*
X53813571Y-135147239D01*
X53634307Y-135092860D01*
X53634303Y-135092858D01*
X53469097Y-135004554D01*
X53324288Y-134885712D01*
X53205446Y-134740903D01*
X53117142Y-134575697D01*
X53117142Y-134575696D01*
X53117140Y-134575693D01*
X53062761Y-134396429D01*
X53062761Y-134396428D01*
X53062760Y-134396425D01*
X53044399Y-134210000D01*
X53062760Y-134023575D01*
X53062761Y-134023571D01*
X53117140Y-133844307D01*
X53124717Y-133830132D01*
X53205446Y-133679097D01*
X53324288Y-133534288D01*
X53469097Y-133415446D01*
X53634303Y-133327142D01*
X53634304Y-133327142D01*
X53634307Y-133327140D01*
X53813571Y-133272761D01*
X53813572Y-133272761D01*
X53813575Y-133272760D01*
X53953282Y-133259000D01*
X54046718Y-133259000D01*
X54186425Y-133272760D01*
X54186425Y-133272760D01*
G37*
G36*
X137631564Y-132739389D02*
G01*
X137818975Y-132817017D01*
X137822835Y-132818616D01*
X137938909Y-132896174D01*
X137994973Y-132933635D01*
X138141365Y-133080027D01*
X138256385Y-133252167D01*
X138335611Y-133443436D01*
X138376000Y-133646484D01*
X138376000Y-133853516D01*
X138335611Y-134056564D01*
X138272056Y-134210000D01*
X138256384Y-134247835D01*
X138141365Y-134419973D01*
X137994973Y-134566365D01*
X137822835Y-134681384D01*
X137822834Y-134681385D01*
X137822833Y-134681385D01*
X137631564Y-134760611D01*
X137428516Y-134801000D01*
X137221484Y-134801000D01*
X137018436Y-134760611D01*
X136827167Y-134681385D01*
X136827166Y-134681385D01*
X136827165Y-134681384D01*
X136655027Y-134566365D01*
X136508635Y-134419973D01*
X136393616Y-134247835D01*
X136377944Y-134210000D01*
X136314389Y-134056564D01*
X136274000Y-133853516D01*
X136274000Y-133646484D01*
X136314389Y-133443436D01*
X136393615Y-133252167D01*
X136508635Y-133080027D01*
X136655027Y-132933635D01*
X136711091Y-132896174D01*
X136827165Y-132818616D01*
X136831025Y-132817017D01*
X137018436Y-132739389D01*
X137221484Y-132699000D01*
X137428516Y-132699000D01*
X137631564Y-132739389D01*
X137631564Y-132739389D01*
G37*
G36*
X81088674Y-132653465D02*
G01*
X81126367Y-132664899D01*
X81161103Y-132683466D01*
X81191548Y-132708452D01*
X81216534Y-132738897D01*
X81235101Y-132773633D01*
X81246535Y-132811326D01*
X81251000Y-132856661D01*
X81251000Y-133693339D01*
X81246535Y-133738674D01*
X81235101Y-133776367D01*
X81216534Y-133811103D01*
X81191548Y-133841548D01*
X81161103Y-133866534D01*
X81126367Y-133885101D01*
X81088674Y-133896535D01*
X81043339Y-133901000D01*
X79956661Y-133901000D01*
X79911326Y-133896535D01*
X79873633Y-133885101D01*
X79838897Y-133866534D01*
X79808452Y-133841548D01*
X79783466Y-133811103D01*
X79764899Y-133776367D01*
X79753465Y-133738674D01*
X79749000Y-133693339D01*
X79749000Y-132856661D01*
X79753465Y-132811326D01*
X79764899Y-132773633D01*
X79783466Y-132738897D01*
X79808452Y-132708452D01*
X79838897Y-132683466D01*
X79873633Y-132664899D01*
X79911326Y-132653465D01*
X79956661Y-132649000D01*
X81043339Y-132649000D01*
X81088674Y-132653465D01*
X81088674Y-132653465D01*
G37*
G36*
X85088674Y-132653465D02*
G01*
X85126367Y-132664899D01*
X85161103Y-132683466D01*
X85191548Y-132708452D01*
X85216534Y-132738897D01*
X85235101Y-132773633D01*
X85246535Y-132811326D01*
X85251000Y-132856661D01*
X85251000Y-133693339D01*
X85246535Y-133738674D01*
X85235101Y-133776367D01*
X85216534Y-133811103D01*
X85191548Y-133841548D01*
X85161103Y-133866534D01*
X85126367Y-133885101D01*
X85088674Y-133896535D01*
X85043339Y-133901000D01*
X83956661Y-133901000D01*
X83911326Y-133896535D01*
X83873633Y-133885101D01*
X83838897Y-133866534D01*
X83808452Y-133841548D01*
X83783466Y-133811103D01*
X83764899Y-133776367D01*
X83753465Y-133738674D01*
X83749000Y-133693339D01*
X83749000Y-132856661D01*
X83753465Y-132811326D01*
X83764899Y-132773633D01*
X83783466Y-132738897D01*
X83808452Y-132708452D01*
X83838897Y-132683466D01*
X83873633Y-132664899D01*
X83911326Y-132653465D01*
X83956661Y-132649000D01*
X85043339Y-132649000D01*
X85088674Y-132653465D01*
X85088674Y-132653465D01*
G37*
G36*
X89263673Y-132628466D02*
G01*
X89301366Y-132639900D01*
X89336102Y-132658467D01*
X89366547Y-132683453D01*
X89391533Y-132713898D01*
X89410100Y-132748634D01*
X89421534Y-132786327D01*
X89425999Y-132831662D01*
X89425999Y-133668340D01*
X89421534Y-133713675D01*
X89410100Y-133751368D01*
X89391533Y-133786104D01*
X89366547Y-133816549D01*
X89336102Y-133841535D01*
X89301366Y-133860102D01*
X89263673Y-133871536D01*
X89218338Y-133876001D01*
X88131660Y-133876001D01*
X88086325Y-133871536D01*
X88048632Y-133860102D01*
X88013896Y-133841535D01*
X87983451Y-133816549D01*
X87958465Y-133786104D01*
X87939898Y-133751368D01*
X87928464Y-133713675D01*
X87923999Y-133668340D01*
X87923999Y-132831662D01*
X87928464Y-132786327D01*
X87939898Y-132748634D01*
X87958465Y-132713898D01*
X87983451Y-132683453D01*
X88013896Y-132658467D01*
X88048632Y-132639900D01*
X88086325Y-132628466D01*
X88131660Y-132624001D01*
X89218338Y-132624001D01*
X89263673Y-132628466D01*
X89263673Y-132628466D01*
G37*
G36*
X59251000Y-133651000D02*
G01*
X57249000Y-133651000D01*
X57249000Y-132749000D01*
X59251000Y-132749000D01*
X59251000Y-133651000D01*
X59251000Y-133651000D01*
G37*
G36*
X131351000Y-133351000D02*
G01*
X129649000Y-133351000D01*
X129649000Y-131649000D01*
X131351000Y-131649000D01*
X131351000Y-133351000D01*
X131351000Y-133351000D01*
G37*
G36*
X62251000Y-132701000D02*
G01*
X60249000Y-132701000D01*
X60249000Y-131799000D01*
X62251000Y-131799000D01*
X62251000Y-132701000D01*
X62251000Y-132701000D01*
G37*
G36*
X54186425Y-130732760D02*
G01*
X54186428Y-130732761D01*
X54186429Y-130732761D01*
X54365693Y-130787140D01*
X54365696Y-130787142D01*
X54365697Y-130787142D01*
X54530903Y-130875446D01*
X54675712Y-130994288D01*
X54794554Y-131139097D01*
X54854367Y-131251000D01*
X54882860Y-131304307D01*
X54937239Y-131483571D01*
X54937240Y-131483575D01*
X54955601Y-131670000D01*
X54937240Y-131856425D01*
X54937239Y-131856428D01*
X54937239Y-131856429D01*
X54882860Y-132035693D01*
X54882858Y-132035696D01*
X54882858Y-132035697D01*
X54794554Y-132200903D01*
X54675712Y-132345712D01*
X54530903Y-132464554D01*
X54365697Y-132552858D01*
X54365693Y-132552860D01*
X54186429Y-132607239D01*
X54186428Y-132607239D01*
X54186425Y-132607240D01*
X54046718Y-132621000D01*
X53953282Y-132621000D01*
X53813575Y-132607240D01*
X53813572Y-132607239D01*
X53813571Y-132607239D01*
X53634307Y-132552860D01*
X53634303Y-132552858D01*
X53469097Y-132464554D01*
X53324288Y-132345712D01*
X53205446Y-132200903D01*
X53117142Y-132035697D01*
X53117142Y-132035696D01*
X53117140Y-132035693D01*
X53062761Y-131856429D01*
X53062761Y-131856428D01*
X53062760Y-131856425D01*
X53044399Y-131670000D01*
X53062760Y-131483575D01*
X53062761Y-131483571D01*
X53117140Y-131304307D01*
X53145633Y-131251000D01*
X53205446Y-131139097D01*
X53324288Y-130994288D01*
X53469097Y-130875446D01*
X53634303Y-130787142D01*
X53634304Y-130787142D01*
X53634307Y-130787140D01*
X53813571Y-130732761D01*
X53813572Y-130732761D01*
X53813575Y-130732760D01*
X53953282Y-130719000D01*
X54046718Y-130719000D01*
X54186425Y-130732760D01*
X54186425Y-130732760D01*
G37*
G36*
X81088674Y-130603465D02*
G01*
X81126367Y-130614899D01*
X81161103Y-130633466D01*
X81191548Y-130658452D01*
X81216534Y-130688897D01*
X81235101Y-130723633D01*
X81246535Y-130761326D01*
X81251000Y-130806661D01*
X81251000Y-131643339D01*
X81246535Y-131688674D01*
X81235101Y-131726367D01*
X81216534Y-131761103D01*
X81191548Y-131791548D01*
X81161103Y-131816534D01*
X81126367Y-131835101D01*
X81088674Y-131846535D01*
X81043339Y-131851000D01*
X79956661Y-131851000D01*
X79911326Y-131846535D01*
X79873633Y-131835101D01*
X79838897Y-131816534D01*
X79808452Y-131791548D01*
X79783466Y-131761103D01*
X79764899Y-131726367D01*
X79753465Y-131688674D01*
X79749000Y-131643339D01*
X79749000Y-130806661D01*
X79753465Y-130761326D01*
X79764899Y-130723633D01*
X79783466Y-130688897D01*
X79808452Y-130658452D01*
X79838897Y-130633466D01*
X79873633Y-130614899D01*
X79911326Y-130603465D01*
X79956661Y-130599000D01*
X81043339Y-130599000D01*
X81088674Y-130603465D01*
X81088674Y-130603465D01*
G37*
G36*
X85088674Y-130603465D02*
G01*
X85126367Y-130614899D01*
X85161103Y-130633466D01*
X85191548Y-130658452D01*
X85216534Y-130688897D01*
X85235101Y-130723633D01*
X85246535Y-130761326D01*
X85251000Y-130806661D01*
X85251000Y-131643339D01*
X85246535Y-131688674D01*
X85235101Y-131726367D01*
X85216534Y-131761103D01*
X85191548Y-131791548D01*
X85161103Y-131816534D01*
X85126367Y-131835101D01*
X85088674Y-131846535D01*
X85043339Y-131851000D01*
X83956661Y-131851000D01*
X83911326Y-131846535D01*
X83873633Y-131835101D01*
X83838897Y-131816534D01*
X83808452Y-131791548D01*
X83783466Y-131761103D01*
X83764899Y-131726367D01*
X83753465Y-131688674D01*
X83749000Y-131643339D01*
X83749000Y-130806661D01*
X83753465Y-130761326D01*
X83764899Y-130723633D01*
X83783466Y-130688897D01*
X83808452Y-130658452D01*
X83838897Y-130633466D01*
X83873633Y-130614899D01*
X83911326Y-130603465D01*
X83956661Y-130599000D01*
X85043339Y-130599000D01*
X85088674Y-130603465D01*
X85088674Y-130603465D01*
G37*
G36*
X89263673Y-130578466D02*
G01*
X89301366Y-130589900D01*
X89336102Y-130608467D01*
X89366547Y-130633453D01*
X89391533Y-130663898D01*
X89410100Y-130698634D01*
X89421534Y-130736327D01*
X89425999Y-130781662D01*
X89425999Y-131618340D01*
X89421534Y-131663675D01*
X89410100Y-131701368D01*
X89391533Y-131736104D01*
X89366547Y-131766549D01*
X89336102Y-131791535D01*
X89301366Y-131810102D01*
X89263673Y-131821536D01*
X89218338Y-131826001D01*
X88131660Y-131826001D01*
X88086325Y-131821536D01*
X88048632Y-131810102D01*
X88013896Y-131791535D01*
X87983451Y-131766549D01*
X87958465Y-131736104D01*
X87939898Y-131701368D01*
X87928464Y-131663675D01*
X87923999Y-131618340D01*
X87923999Y-130781662D01*
X87928464Y-130736327D01*
X87939898Y-130698634D01*
X87958465Y-130663898D01*
X87983451Y-130633453D01*
X88013896Y-130608467D01*
X88048632Y-130589900D01*
X88086325Y-130578466D01*
X88131660Y-130574001D01*
X89218338Y-130574001D01*
X89263673Y-130578466D01*
X89263673Y-130578466D01*
G37*
G36*
X59251000Y-131751000D02*
G01*
X57249000Y-131751000D01*
X57249000Y-130849000D01*
X59251000Y-130849000D01*
X59251000Y-131751000D01*
X59251000Y-131751000D01*
G37*
G36*
X94552585Y-128398802D02*
G01*
X94702410Y-128428604D01*
X94984674Y-128545521D01*
X95238705Y-128715259D01*
X95454741Y-128931295D01*
X95624479Y-129185326D01*
X95741396Y-129467590D01*
X95756293Y-129542481D01*
X95800535Y-129764899D01*
X95801000Y-129767240D01*
X95801000Y-130072760D01*
X95741396Y-130372410D01*
X95624479Y-130654674D01*
X95454741Y-130908705D01*
X95238705Y-131124741D01*
X94984674Y-131294479D01*
X94702410Y-131411396D01*
X94552585Y-131441198D01*
X94402761Y-131471000D01*
X94097239Y-131471000D01*
X93947415Y-131441198D01*
X93797590Y-131411396D01*
X93515326Y-131294479D01*
X93261295Y-131124741D01*
X93045259Y-130908705D01*
X92875521Y-130654674D01*
X92758604Y-130372410D01*
X92699000Y-130072760D01*
X92699000Y-129767240D01*
X92699466Y-129764899D01*
X92743707Y-129542481D01*
X92758604Y-129467590D01*
X92875521Y-129185326D01*
X93045259Y-128931295D01*
X93261295Y-128715259D01*
X93515326Y-128545521D01*
X93797590Y-128428604D01*
X93947415Y-128398802D01*
X94097239Y-128369000D01*
X94402761Y-128369000D01*
X94552585Y-128398802D01*
X94552585Y-128398802D01*
G37*
G36*
X66238674Y-129753465D02*
G01*
X66276367Y-129764899D01*
X66311103Y-129783466D01*
X66341548Y-129808452D01*
X66366534Y-129838897D01*
X66385101Y-129873633D01*
X66396535Y-129911326D01*
X66401000Y-129956661D01*
X66401000Y-131043339D01*
X66396535Y-131088674D01*
X66385101Y-131126367D01*
X66366534Y-131161103D01*
X66341548Y-131191548D01*
X66311103Y-131216534D01*
X66276367Y-131235101D01*
X66238674Y-131246535D01*
X66193339Y-131251000D01*
X65356661Y-131251000D01*
X65311326Y-131246535D01*
X65273633Y-131235101D01*
X65238897Y-131216534D01*
X65208452Y-131191548D01*
X65183466Y-131161103D01*
X65164899Y-131126367D01*
X65153465Y-131088674D01*
X65149000Y-131043339D01*
X65149000Y-129956661D01*
X65153465Y-129911326D01*
X65164899Y-129873633D01*
X65183466Y-129838897D01*
X65208452Y-129808452D01*
X65238897Y-129783466D01*
X65273633Y-129764899D01*
X65311326Y-129753465D01*
X65356661Y-129749000D01*
X66193339Y-129749000D01*
X66238674Y-129753465D01*
X66238674Y-129753465D01*
G37*
G36*
X64188674Y-129753465D02*
G01*
X64226367Y-129764899D01*
X64261103Y-129783466D01*
X64291548Y-129808452D01*
X64316534Y-129838897D01*
X64335101Y-129873633D01*
X64346535Y-129911326D01*
X64351000Y-129956661D01*
X64351000Y-131043339D01*
X64346535Y-131088674D01*
X64335101Y-131126367D01*
X64316534Y-131161103D01*
X64291548Y-131191548D01*
X64261103Y-131216534D01*
X64226367Y-131235101D01*
X64188674Y-131246535D01*
X64143339Y-131251000D01*
X63306661Y-131251000D01*
X63261326Y-131246535D01*
X63223633Y-131235101D01*
X63188897Y-131216534D01*
X63158452Y-131191548D01*
X63133466Y-131161103D01*
X63114899Y-131126367D01*
X63103465Y-131088674D01*
X63099000Y-131043339D01*
X63099000Y-129956661D01*
X63103465Y-129911326D01*
X63114899Y-129873633D01*
X63133466Y-129838897D01*
X63158452Y-129808452D01*
X63188897Y-129783466D01*
X63223633Y-129764899D01*
X63261326Y-129753465D01*
X63306661Y-129749000D01*
X64143339Y-129749000D01*
X64188674Y-129753465D01*
X64188674Y-129753465D01*
G37*
G36*
X103248228Y-128681703D02*
G01*
X103403100Y-128745853D01*
X103542481Y-128838985D01*
X103661015Y-128957519D01*
X103754147Y-129096900D01*
X103818297Y-129251772D01*
X103851000Y-129416184D01*
X103851000Y-129583816D01*
X103818297Y-129748228D01*
X103754147Y-129903100D01*
X103661015Y-130042481D01*
X103542481Y-130161015D01*
X103403100Y-130254147D01*
X103248228Y-130318297D01*
X103083816Y-130351000D01*
X102916184Y-130351000D01*
X102751772Y-130318297D01*
X102596900Y-130254147D01*
X102457519Y-130161015D01*
X102338985Y-130042481D01*
X102245853Y-129903100D01*
X102181703Y-129748228D01*
X102149000Y-129583816D01*
X102149000Y-129416184D01*
X102181703Y-129251772D01*
X102245853Y-129096900D01*
X102338985Y-128957519D01*
X102457519Y-128838985D01*
X102596900Y-128745853D01*
X102751772Y-128681703D01*
X102916184Y-128649000D01*
X103083816Y-128649000D01*
X103248228Y-128681703D01*
X103248228Y-128681703D01*
G37*
G36*
X108248228Y-128681703D02*
G01*
X108403100Y-128745853D01*
X108542481Y-128838985D01*
X108661015Y-128957519D01*
X108754147Y-129096900D01*
X108818297Y-129251772D01*
X108851000Y-129416184D01*
X108851000Y-129583816D01*
X108818297Y-129748228D01*
X108754147Y-129903100D01*
X108661015Y-130042481D01*
X108542481Y-130161015D01*
X108403100Y-130254147D01*
X108248228Y-130318297D01*
X108083816Y-130351000D01*
X107916184Y-130351000D01*
X107751772Y-130318297D01*
X107596900Y-130254147D01*
X107457519Y-130161015D01*
X107338985Y-130042481D01*
X107245853Y-129903100D01*
X107181703Y-129748228D01*
X107149000Y-129583816D01*
X107149000Y-129416184D01*
X107181703Y-129251772D01*
X107245853Y-129096900D01*
X107338985Y-128957519D01*
X107457519Y-128838985D01*
X107596900Y-128745853D01*
X107751772Y-128681703D01*
X107916184Y-128649000D01*
X108083816Y-128649000D01*
X108248228Y-128681703D01*
X108248228Y-128681703D01*
G37*
G36*
X130748228Y-128181703D02*
G01*
X130903100Y-128245853D01*
X131042481Y-128338985D01*
X131161015Y-128457519D01*
X131254147Y-128596900D01*
X131318297Y-128751772D01*
X131351000Y-128916184D01*
X131351000Y-129083816D01*
X131318297Y-129248228D01*
X131254147Y-129403100D01*
X131161015Y-129542481D01*
X131042481Y-129661015D01*
X130903100Y-129754147D01*
X130748228Y-129818297D01*
X130583816Y-129851000D01*
X130416184Y-129851000D01*
X130251772Y-129818297D01*
X130096900Y-129754147D01*
X129957519Y-129661015D01*
X129838985Y-129542481D01*
X129745853Y-129403100D01*
X129681703Y-129248228D01*
X129649000Y-129083816D01*
X129649000Y-128916184D01*
X129681703Y-128751772D01*
X129745853Y-128596900D01*
X129838985Y-128457519D01*
X129957519Y-128338985D01*
X130096900Y-128245853D01*
X130251772Y-128181703D01*
X130416184Y-128149000D01*
X130583816Y-128149000D01*
X130748228Y-128181703D01*
X130748228Y-128181703D01*
G37*
G36*
X81088674Y-127903465D02*
G01*
X81126367Y-127914899D01*
X81161103Y-127933466D01*
X81191548Y-127958452D01*
X81216534Y-127988897D01*
X81235101Y-128023633D01*
X81246535Y-128061326D01*
X81251000Y-128106661D01*
X81251000Y-128943339D01*
X81246535Y-128988674D01*
X81235101Y-129026367D01*
X81216534Y-129061103D01*
X81191548Y-129091548D01*
X81161103Y-129116534D01*
X81126367Y-129135101D01*
X81088674Y-129146535D01*
X81043339Y-129151000D01*
X79956661Y-129151000D01*
X79911326Y-129146535D01*
X79873633Y-129135101D01*
X79838897Y-129116534D01*
X79808452Y-129091548D01*
X79783466Y-129061103D01*
X79764899Y-129026367D01*
X79753465Y-128988674D01*
X79749000Y-128943339D01*
X79749000Y-128106661D01*
X79753465Y-128061326D01*
X79764899Y-128023633D01*
X79783466Y-127988897D01*
X79808452Y-127958452D01*
X79838897Y-127933466D01*
X79873633Y-127914899D01*
X79911326Y-127903465D01*
X79956661Y-127899000D01*
X81043339Y-127899000D01*
X81088674Y-127903465D01*
X81088674Y-127903465D01*
G37*
G36*
X85088674Y-127903465D02*
G01*
X85126367Y-127914899D01*
X85161103Y-127933466D01*
X85191548Y-127958452D01*
X85216534Y-127988897D01*
X85235101Y-128023633D01*
X85246535Y-128061326D01*
X85251000Y-128106661D01*
X85251000Y-128943339D01*
X85246535Y-128988674D01*
X85235101Y-129026367D01*
X85216534Y-129061103D01*
X85191548Y-129091548D01*
X85161103Y-129116534D01*
X85126367Y-129135101D01*
X85088674Y-129146535D01*
X85043339Y-129151000D01*
X83956661Y-129151000D01*
X83911326Y-129146535D01*
X83873633Y-129135101D01*
X83838897Y-129116534D01*
X83808452Y-129091548D01*
X83783466Y-129061103D01*
X83764899Y-129026367D01*
X83753465Y-128988674D01*
X83749000Y-128943339D01*
X83749000Y-128106661D01*
X83753465Y-128061326D01*
X83764899Y-128023633D01*
X83783466Y-127988897D01*
X83808452Y-127958452D01*
X83838897Y-127933466D01*
X83873633Y-127914899D01*
X83911326Y-127903465D01*
X83956661Y-127899000D01*
X85043339Y-127899000D01*
X85088674Y-127903465D01*
X85088674Y-127903465D01*
G37*
G36*
X89263673Y-127878466D02*
G01*
X89301366Y-127889900D01*
X89336102Y-127908467D01*
X89366547Y-127933453D01*
X89391533Y-127963898D01*
X89410100Y-127998634D01*
X89421534Y-128036327D01*
X89425999Y-128081662D01*
X89425999Y-128918340D01*
X89421534Y-128963675D01*
X89410100Y-129001368D01*
X89391533Y-129036104D01*
X89366547Y-129066549D01*
X89336102Y-129091535D01*
X89301366Y-129110102D01*
X89263673Y-129121536D01*
X89218338Y-129126001D01*
X88131660Y-129126001D01*
X88086325Y-129121536D01*
X88048632Y-129110102D01*
X88013896Y-129091535D01*
X87983451Y-129066549D01*
X87958465Y-129036104D01*
X87939898Y-129001368D01*
X87928464Y-128963675D01*
X87923999Y-128918340D01*
X87923999Y-128081662D01*
X87928464Y-128036327D01*
X87939898Y-127998634D01*
X87958465Y-127963898D01*
X87983451Y-127933453D01*
X88013896Y-127908467D01*
X88048632Y-127889900D01*
X88086325Y-127878466D01*
X88131660Y-127874001D01*
X89218338Y-127874001D01*
X89263673Y-127878466D01*
X89263673Y-127878466D01*
G37*
G36*
X54951000Y-128951000D02*
G01*
X53049000Y-128951000D01*
X53049000Y-127049000D01*
X54951000Y-127049000D01*
X54951000Y-128951000D01*
X54951000Y-128951000D01*
G37*
G36*
X59251000Y-128401000D02*
G01*
X57249000Y-128401000D01*
X57249000Y-127499000D01*
X59251000Y-127499000D01*
X59251000Y-128401000D01*
X59251000Y-128401000D01*
G37*
G36*
X76786822Y-125391313D02*
G01*
X76947241Y-125439976D01*
X77095077Y-125518995D01*
X77224659Y-125625341D01*
X77331004Y-125754922D01*
X77331005Y-125754924D01*
X77410024Y-125902758D01*
X77458687Y-126063177D01*
X77471000Y-126188196D01*
X77471000Y-127071803D01*
X77458687Y-127196822D01*
X77410024Y-127357242D01*
X77375794Y-127421282D01*
X77331004Y-127505078D01*
X77224659Y-127634659D01*
X77095078Y-127741004D01*
X77095076Y-127741005D01*
X76947242Y-127820024D01*
X76786823Y-127868687D01*
X76620000Y-127885117D01*
X76453178Y-127868687D01*
X76292759Y-127820024D01*
X76144925Y-127741005D01*
X76144923Y-127741004D01*
X76015342Y-127634659D01*
X75908997Y-127505078D01*
X75864207Y-127421282D01*
X75829977Y-127357242D01*
X75781314Y-127196823D01*
X75769000Y-127071803D01*
X75769000Y-126188197D01*
X75781313Y-126063178D01*
X75829976Y-125902759D01*
X75908995Y-125754923D01*
X76015341Y-125625341D01*
X76144922Y-125518996D01*
X76160094Y-125510886D01*
X76292758Y-125439976D01*
X76453177Y-125391313D01*
X76620000Y-125374883D01*
X76786822Y-125391313D01*
X76786822Y-125391313D01*
G37*
G36*
X69166822Y-125391313D02*
G01*
X69327241Y-125439976D01*
X69475077Y-125518995D01*
X69604659Y-125625341D01*
X69711004Y-125754922D01*
X69711005Y-125754924D01*
X69790024Y-125902758D01*
X69838687Y-126063177D01*
X69851000Y-126188196D01*
X69851000Y-127071803D01*
X69838687Y-127196822D01*
X69790024Y-127357242D01*
X69755794Y-127421282D01*
X69711004Y-127505078D01*
X69604659Y-127634659D01*
X69475078Y-127741004D01*
X69475076Y-127741005D01*
X69327242Y-127820024D01*
X69166823Y-127868687D01*
X69000000Y-127885117D01*
X68833178Y-127868687D01*
X68672759Y-127820024D01*
X68524925Y-127741005D01*
X68524923Y-127741004D01*
X68395342Y-127634659D01*
X68288997Y-127505078D01*
X68244207Y-127421282D01*
X68209977Y-127357242D01*
X68161314Y-127196823D01*
X68149000Y-127071803D01*
X68149000Y-126188197D01*
X68161313Y-126063178D01*
X68209976Y-125902759D01*
X68288995Y-125754923D01*
X68395341Y-125625341D01*
X68524922Y-125518996D01*
X68540094Y-125510886D01*
X68672758Y-125439976D01*
X68833177Y-125391313D01*
X69000000Y-125374883D01*
X69166822Y-125391313D01*
X69166822Y-125391313D01*
G37*
G36*
X74246822Y-125391313D02*
G01*
X74407241Y-125439976D01*
X74555077Y-125518995D01*
X74684659Y-125625341D01*
X74791004Y-125754922D01*
X74791005Y-125754924D01*
X74870024Y-125902758D01*
X74918687Y-126063177D01*
X74931000Y-126188196D01*
X74931000Y-127071803D01*
X74918687Y-127196822D01*
X74870024Y-127357242D01*
X74835794Y-127421282D01*
X74791004Y-127505078D01*
X74684659Y-127634659D01*
X74555078Y-127741004D01*
X74555076Y-127741005D01*
X74407242Y-127820024D01*
X74246823Y-127868687D01*
X74080000Y-127885117D01*
X73913178Y-127868687D01*
X73752759Y-127820024D01*
X73604925Y-127741005D01*
X73604923Y-127741004D01*
X73475342Y-127634659D01*
X73368997Y-127505078D01*
X73324207Y-127421282D01*
X73289977Y-127357242D01*
X73241314Y-127196823D01*
X73229000Y-127071803D01*
X73229000Y-126188197D01*
X73241313Y-126063178D01*
X73289976Y-125902759D01*
X73368995Y-125754923D01*
X73475341Y-125625341D01*
X73604922Y-125518996D01*
X73620094Y-125510886D01*
X73752758Y-125439976D01*
X73913177Y-125391313D01*
X74080000Y-125374883D01*
X74246822Y-125391313D01*
X74246822Y-125391313D01*
G37*
G36*
X71706822Y-125391313D02*
G01*
X71867241Y-125439976D01*
X72015077Y-125518995D01*
X72144659Y-125625341D01*
X72251004Y-125754922D01*
X72251005Y-125754924D01*
X72330024Y-125902758D01*
X72378687Y-126063177D01*
X72391000Y-126188196D01*
X72391000Y-127071803D01*
X72378687Y-127196822D01*
X72330024Y-127357242D01*
X72295794Y-127421282D01*
X72251004Y-127505078D01*
X72144659Y-127634659D01*
X72015078Y-127741004D01*
X72015076Y-127741005D01*
X71867242Y-127820024D01*
X71706823Y-127868687D01*
X71540000Y-127885117D01*
X71373178Y-127868687D01*
X71212759Y-127820024D01*
X71064925Y-127741005D01*
X71064923Y-127741004D01*
X70935342Y-127634659D01*
X70828997Y-127505078D01*
X70784207Y-127421282D01*
X70749977Y-127357242D01*
X70701314Y-127196823D01*
X70689000Y-127071803D01*
X70689000Y-126188197D01*
X70701313Y-126063178D01*
X70749976Y-125902759D01*
X70828995Y-125754923D01*
X70935341Y-125625341D01*
X71064922Y-125518996D01*
X71080094Y-125510886D01*
X71212758Y-125439976D01*
X71373177Y-125391313D01*
X71540000Y-125374883D01*
X71706822Y-125391313D01*
X71706822Y-125391313D01*
G37*
G36*
X64188674Y-126003465D02*
G01*
X64226367Y-126014899D01*
X64261103Y-126033466D01*
X64291548Y-126058452D01*
X64316534Y-126088897D01*
X64335101Y-126123633D01*
X64346535Y-126161326D01*
X64351000Y-126206661D01*
X64351000Y-127293339D01*
X64346535Y-127338674D01*
X64335101Y-127376367D01*
X64316534Y-127411103D01*
X64291548Y-127441548D01*
X64261103Y-127466534D01*
X64226367Y-127485101D01*
X64188674Y-127496535D01*
X64143339Y-127501000D01*
X63306661Y-127501000D01*
X63261326Y-127496535D01*
X63223633Y-127485101D01*
X63188897Y-127466534D01*
X63158452Y-127441548D01*
X63133466Y-127411103D01*
X63114899Y-127376367D01*
X63103465Y-127338674D01*
X63099000Y-127293339D01*
X63099000Y-126206661D01*
X63103465Y-126161326D01*
X63114899Y-126123633D01*
X63133466Y-126088897D01*
X63158452Y-126058452D01*
X63188897Y-126033466D01*
X63223633Y-126014899D01*
X63261326Y-126003465D01*
X63306661Y-125999000D01*
X64143339Y-125999000D01*
X64188674Y-126003465D01*
X64188674Y-126003465D01*
G37*
G36*
X66238674Y-126003465D02*
G01*
X66276367Y-126014899D01*
X66311103Y-126033466D01*
X66341548Y-126058452D01*
X66366534Y-126088897D01*
X66385101Y-126123633D01*
X66396535Y-126161326D01*
X66401000Y-126206661D01*
X66401000Y-127293339D01*
X66396535Y-127338674D01*
X66385101Y-127376367D01*
X66366534Y-127411103D01*
X66341548Y-127441548D01*
X66311103Y-127466534D01*
X66276367Y-127485101D01*
X66238674Y-127496535D01*
X66193339Y-127501000D01*
X65356661Y-127501000D01*
X65311326Y-127496535D01*
X65273633Y-127485101D01*
X65238897Y-127466534D01*
X65208452Y-127441548D01*
X65183466Y-127411103D01*
X65164899Y-127376367D01*
X65153465Y-127338674D01*
X65149000Y-127293339D01*
X65149000Y-126206661D01*
X65153465Y-126161326D01*
X65164899Y-126123633D01*
X65183466Y-126088897D01*
X65208452Y-126058452D01*
X65238897Y-126033466D01*
X65273633Y-126014899D01*
X65311326Y-126003465D01*
X65356661Y-125999000D01*
X66193339Y-125999000D01*
X66238674Y-126003465D01*
X66238674Y-126003465D01*
G37*
G36*
X62251000Y-127451000D02*
G01*
X60249000Y-127451000D01*
X60249000Y-126549000D01*
X62251000Y-126549000D01*
X62251000Y-127451000D01*
X62251000Y-127451000D01*
G37*
G36*
X144799549Y-125121116D02*
G01*
X144910734Y-125143232D01*
X145120203Y-125229997D01*
X145308720Y-125355960D01*
X145469040Y-125516280D01*
X145595003Y-125704797D01*
X145595004Y-125704799D01*
X145615766Y-125754923D01*
X145681768Y-125914266D01*
X145693577Y-125973633D01*
X145726000Y-126136635D01*
X145726000Y-126363365D01*
X145681768Y-126585733D01*
X145614624Y-126747835D01*
X145595003Y-126795203D01*
X145469040Y-126983720D01*
X145308720Y-127144040D01*
X145120203Y-127270003D01*
X144910734Y-127356768D01*
X144812203Y-127376367D01*
X144688365Y-127401000D01*
X144461635Y-127401000D01*
X144337797Y-127376367D01*
X144239266Y-127356768D01*
X144029797Y-127270003D01*
X143841280Y-127144040D01*
X143680960Y-126983720D01*
X143554997Y-126795203D01*
X143535377Y-126747835D01*
X143468232Y-126585733D01*
X143424000Y-126363365D01*
X143424000Y-126136635D01*
X143456423Y-125973633D01*
X143468232Y-125914266D01*
X143534234Y-125754923D01*
X143554996Y-125704799D01*
X143554997Y-125704797D01*
X143680960Y-125516280D01*
X143841280Y-125355960D01*
X144029797Y-125229997D01*
X144239266Y-125143232D01*
X144350451Y-125121116D01*
X144461635Y-125099000D01*
X144688365Y-125099000D01*
X144799549Y-125121116D01*
X144799549Y-125121116D01*
G37*
G36*
X137631564Y-125239389D02*
G01*
X137759568Y-125292410D01*
X137822835Y-125318616D01*
X137994973Y-125433635D01*
X138141365Y-125580027D01*
X138224734Y-125704797D01*
X138256385Y-125752167D01*
X138335611Y-125943436D01*
X138376000Y-126146484D01*
X138376000Y-126353516D01*
X138335611Y-126556564D01*
X138323528Y-126585734D01*
X138256384Y-126747835D01*
X138141365Y-126919973D01*
X137994973Y-127066365D01*
X137822835Y-127181384D01*
X137822834Y-127181385D01*
X137822833Y-127181385D01*
X137631564Y-127260611D01*
X137428516Y-127301000D01*
X137221484Y-127301000D01*
X137018436Y-127260611D01*
X136827167Y-127181385D01*
X136827166Y-127181385D01*
X136827165Y-127181384D01*
X136655027Y-127066365D01*
X136508635Y-126919973D01*
X136393616Y-126747835D01*
X136326472Y-126585734D01*
X136314389Y-126556564D01*
X136274000Y-126353516D01*
X136274000Y-126146484D01*
X136314389Y-125943436D01*
X136393615Y-125752167D01*
X136425267Y-125704797D01*
X136508635Y-125580027D01*
X136655027Y-125433635D01*
X136827165Y-125318616D01*
X136890432Y-125292410D01*
X137018436Y-125239389D01*
X137221484Y-125199000D01*
X137428516Y-125199000D01*
X137631564Y-125239389D01*
X137631564Y-125239389D01*
G37*
G36*
X85088674Y-125853465D02*
G01*
X85126367Y-125864899D01*
X85161103Y-125883466D01*
X85191548Y-125908452D01*
X85216534Y-125938897D01*
X85235101Y-125973633D01*
X85246535Y-126011326D01*
X85251000Y-126056661D01*
X85251000Y-126893339D01*
X85246535Y-126938674D01*
X85235101Y-126976367D01*
X85216534Y-127011103D01*
X85191548Y-127041548D01*
X85161103Y-127066534D01*
X85126367Y-127085101D01*
X85088674Y-127096535D01*
X85043339Y-127101000D01*
X83956661Y-127101000D01*
X83911326Y-127096535D01*
X83873633Y-127085101D01*
X83838897Y-127066534D01*
X83808452Y-127041548D01*
X83783466Y-127011103D01*
X83764899Y-126976367D01*
X83753465Y-126938674D01*
X83749000Y-126893339D01*
X83749000Y-126056661D01*
X83753465Y-126011326D01*
X83764899Y-125973633D01*
X83783466Y-125938897D01*
X83808452Y-125908452D01*
X83838897Y-125883466D01*
X83873633Y-125864899D01*
X83911326Y-125853465D01*
X83956661Y-125849000D01*
X85043339Y-125849000D01*
X85088674Y-125853465D01*
X85088674Y-125853465D01*
G37*
G36*
X81088674Y-125853465D02*
G01*
X81126367Y-125864899D01*
X81161103Y-125883466D01*
X81191548Y-125908452D01*
X81216534Y-125938897D01*
X81235101Y-125973633D01*
X81246535Y-126011326D01*
X81251000Y-126056661D01*
X81251000Y-126893339D01*
X81246535Y-126938674D01*
X81235101Y-126976367D01*
X81216534Y-127011103D01*
X81191548Y-127041548D01*
X81161103Y-127066534D01*
X81126367Y-127085101D01*
X81088674Y-127096535D01*
X81043339Y-127101000D01*
X79956661Y-127101000D01*
X79911326Y-127096535D01*
X79873633Y-127085101D01*
X79838897Y-127066534D01*
X79808452Y-127041548D01*
X79783466Y-127011103D01*
X79764899Y-126976367D01*
X79753465Y-126938674D01*
X79749000Y-126893339D01*
X79749000Y-126056661D01*
X79753465Y-126011326D01*
X79764899Y-125973633D01*
X79783466Y-125938897D01*
X79808452Y-125908452D01*
X79838897Y-125883466D01*
X79873633Y-125864899D01*
X79911326Y-125853465D01*
X79956661Y-125849000D01*
X81043339Y-125849000D01*
X81088674Y-125853465D01*
X81088674Y-125853465D01*
G37*
G36*
X89263673Y-125828466D02*
G01*
X89301366Y-125839900D01*
X89336102Y-125858467D01*
X89366547Y-125883453D01*
X89391533Y-125913898D01*
X89410100Y-125948634D01*
X89421534Y-125986327D01*
X89425999Y-126031662D01*
X89425999Y-126868340D01*
X89421534Y-126913675D01*
X89410100Y-126951368D01*
X89391533Y-126986104D01*
X89366547Y-127016549D01*
X89336102Y-127041535D01*
X89301366Y-127060102D01*
X89263673Y-127071536D01*
X89218338Y-127076001D01*
X88131660Y-127076001D01*
X88086325Y-127071536D01*
X88048632Y-127060102D01*
X88013896Y-127041535D01*
X87983451Y-127016549D01*
X87958465Y-126986104D01*
X87939898Y-126951368D01*
X87928464Y-126913675D01*
X87923999Y-126868340D01*
X87923999Y-126031662D01*
X87928464Y-125986327D01*
X87939898Y-125948634D01*
X87958465Y-125913898D01*
X87983451Y-125883453D01*
X88013896Y-125858467D01*
X88048632Y-125839900D01*
X88086325Y-125828466D01*
X88131660Y-125824001D01*
X89218338Y-125824001D01*
X89263673Y-125828466D01*
X89263673Y-125828466D01*
G37*
G36*
X59251000Y-126501000D02*
G01*
X57249000Y-126501000D01*
X57249000Y-125599000D01*
X59251000Y-125599000D01*
X59251000Y-126501000D01*
X59251000Y-126501000D01*
G37*
G36*
X54186425Y-124522760D02*
G01*
X54186428Y-124522761D01*
X54186429Y-124522761D01*
X54365693Y-124577140D01*
X54365696Y-124577142D01*
X54365697Y-124577142D01*
X54530903Y-124665446D01*
X54675712Y-124784288D01*
X54794554Y-124929097D01*
X54882858Y-125094303D01*
X54882860Y-125094307D01*
X54924021Y-125229997D01*
X54937240Y-125273575D01*
X54955601Y-125460000D01*
X54937240Y-125646425D01*
X54937239Y-125646428D01*
X54937239Y-125646429D01*
X54882860Y-125825693D01*
X54882858Y-125825696D01*
X54882858Y-125825697D01*
X54794554Y-125990903D01*
X54675712Y-126135712D01*
X54530903Y-126254554D01*
X54387141Y-126331396D01*
X54365693Y-126342860D01*
X54186429Y-126397239D01*
X54186428Y-126397239D01*
X54186425Y-126397240D01*
X54046718Y-126411000D01*
X53953282Y-126411000D01*
X53813575Y-126397240D01*
X53813572Y-126397239D01*
X53813571Y-126397239D01*
X53634307Y-126342860D01*
X53612859Y-126331396D01*
X53469097Y-126254554D01*
X53324288Y-126135712D01*
X53205446Y-125990903D01*
X53117142Y-125825697D01*
X53117142Y-125825696D01*
X53117140Y-125825693D01*
X53062761Y-125646429D01*
X53062761Y-125646428D01*
X53062760Y-125646425D01*
X53044399Y-125460000D01*
X53062760Y-125273575D01*
X53075979Y-125229997D01*
X53117140Y-125094307D01*
X53117142Y-125094303D01*
X53205446Y-124929097D01*
X53324288Y-124784288D01*
X53469097Y-124665446D01*
X53634303Y-124577142D01*
X53634304Y-124577142D01*
X53634307Y-124577140D01*
X53813571Y-124522761D01*
X53813572Y-124522761D01*
X53813575Y-124522760D01*
X53953282Y-124509000D01*
X54046718Y-124509000D01*
X54186425Y-124522760D01*
X54186425Y-124522760D01*
G37*
G36*
X94552585Y-123318802D02*
G01*
X94702410Y-123348604D01*
X94984674Y-123465521D01*
X95238705Y-123635259D01*
X95454741Y-123851295D01*
X95624479Y-124105326D01*
X95741396Y-124387590D01*
X95801000Y-124687240D01*
X95801000Y-124992760D01*
X95741396Y-125292410D01*
X95624479Y-125574674D01*
X95454741Y-125828705D01*
X95238705Y-126044741D01*
X94984674Y-126214479D01*
X94702410Y-126331396D01*
X94644776Y-126342860D01*
X94402761Y-126391000D01*
X94097239Y-126391000D01*
X93855224Y-126342860D01*
X93797590Y-126331396D01*
X93515326Y-126214479D01*
X93261295Y-126044741D01*
X93045259Y-125828705D01*
X92875521Y-125574674D01*
X92758604Y-125292410D01*
X92699000Y-124992760D01*
X92699000Y-124687240D01*
X92758604Y-124387590D01*
X92875521Y-124105326D01*
X93045259Y-123851295D01*
X93261295Y-123635259D01*
X93515326Y-123465521D01*
X93797590Y-123348604D01*
X93947415Y-123318802D01*
X94097239Y-123289000D01*
X94402761Y-123289000D01*
X94552585Y-123318802D01*
X94552585Y-123318802D01*
G37*
G36*
X131351000Y-124351000D02*
G01*
X129649000Y-124351000D01*
X129649000Y-122649000D01*
X131351000Y-122649000D01*
X131351000Y-124351000D01*
X131351000Y-124351000D01*
G37*
G36*
X54186425Y-121982760D02*
G01*
X54186428Y-121982761D01*
X54186429Y-121982761D01*
X54365693Y-122037140D01*
X54365696Y-122037142D01*
X54365697Y-122037142D01*
X54530903Y-122125446D01*
X54675712Y-122244288D01*
X54794554Y-122389097D01*
X54876539Y-122542481D01*
X54882860Y-122554307D01*
X54937239Y-122733571D01*
X54937240Y-122733575D01*
X54955601Y-122920000D01*
X54937240Y-123106425D01*
X54937239Y-123106428D01*
X54937239Y-123106429D01*
X54882860Y-123285693D01*
X54882858Y-123285696D01*
X54882858Y-123285697D01*
X54794554Y-123450903D01*
X54675712Y-123595712D01*
X54530903Y-123714554D01*
X54365697Y-123802858D01*
X54365693Y-123802860D01*
X54186429Y-123857239D01*
X54186428Y-123857239D01*
X54186425Y-123857240D01*
X54046718Y-123871000D01*
X53953282Y-123871000D01*
X53813575Y-123857240D01*
X53813572Y-123857239D01*
X53813571Y-123857239D01*
X53634307Y-123802860D01*
X53634303Y-123802858D01*
X53469097Y-123714554D01*
X53324288Y-123595712D01*
X53205446Y-123450903D01*
X53117142Y-123285697D01*
X53117142Y-123285696D01*
X53117140Y-123285693D01*
X53062761Y-123106429D01*
X53062761Y-123106428D01*
X53062760Y-123106425D01*
X53044399Y-122920000D01*
X53062760Y-122733575D01*
X53062761Y-122733571D01*
X53117140Y-122554307D01*
X53123461Y-122542481D01*
X53205446Y-122389097D01*
X53324288Y-122244288D01*
X53469097Y-122125446D01*
X53634303Y-122037142D01*
X53634304Y-122037142D01*
X53634307Y-122037140D01*
X53813571Y-121982761D01*
X53813572Y-121982761D01*
X53813575Y-121982760D01*
X53953282Y-121969000D01*
X54046718Y-121969000D01*
X54186425Y-121982760D01*
X54186425Y-121982760D01*
G37*
G36*
X62176823Y-121161313D02*
G01*
X62337242Y-121209976D01*
X62404361Y-121245852D01*
X62485078Y-121288996D01*
X62614659Y-121395341D01*
X62721004Y-121524922D01*
X62721005Y-121524924D01*
X62800024Y-121672758D01*
X62848687Y-121833177D01*
X62865117Y-122000000D01*
X62848687Y-122166823D01*
X62800024Y-122327242D01*
X62759477Y-122403100D01*
X62721004Y-122475078D01*
X62614659Y-122604659D01*
X62485078Y-122711004D01*
X62485076Y-122711005D01*
X62337242Y-122790024D01*
X62176823Y-122838687D01*
X62051804Y-122851000D01*
X61968196Y-122851000D01*
X61843177Y-122838687D01*
X61682758Y-122790024D01*
X61534924Y-122711005D01*
X61534922Y-122711004D01*
X61405341Y-122604659D01*
X61298996Y-122475078D01*
X61260523Y-122403100D01*
X61219976Y-122327242D01*
X61171313Y-122166823D01*
X61154883Y-122000000D01*
X61171313Y-121833177D01*
X61219976Y-121672758D01*
X61298995Y-121524924D01*
X61298996Y-121524922D01*
X61405341Y-121395341D01*
X61534922Y-121288996D01*
X61615639Y-121245852D01*
X61682758Y-121209976D01*
X61843177Y-121161313D01*
X61968196Y-121149000D01*
X62051804Y-121149000D01*
X62176823Y-121161313D01*
X62176823Y-121161313D01*
G37*
G36*
X77498228Y-121181703D02*
G01*
X77653100Y-121245853D01*
X77792481Y-121338985D01*
X77911015Y-121457519D01*
X78004147Y-121596900D01*
X78068297Y-121751772D01*
X78101000Y-121916184D01*
X78101000Y-122083816D01*
X78068297Y-122248228D01*
X78004147Y-122403100D01*
X77911015Y-122542481D01*
X77792481Y-122661015D01*
X77653100Y-122754147D01*
X77498228Y-122818297D01*
X77333816Y-122851000D01*
X77166184Y-122851000D01*
X77001772Y-122818297D01*
X76846900Y-122754147D01*
X76707519Y-122661015D01*
X76588985Y-122542481D01*
X76495853Y-122403100D01*
X76431703Y-122248228D01*
X76399000Y-122083816D01*
X76399000Y-121916184D01*
X76431703Y-121751772D01*
X76495853Y-121596900D01*
X76588985Y-121457519D01*
X76707519Y-121338985D01*
X76846900Y-121245853D01*
X77001772Y-121181703D01*
X77166184Y-121149000D01*
X77333816Y-121149000D01*
X77498228Y-121181703D01*
X77498228Y-121181703D01*
G37*
G36*
X130748228Y-119181703D02*
G01*
X130903100Y-119245853D01*
X131042481Y-119338985D01*
X131161015Y-119457519D01*
X131254147Y-119596900D01*
X131318297Y-119751772D01*
X131351000Y-119916184D01*
X131351000Y-120083816D01*
X131318297Y-120248228D01*
X131254147Y-120403100D01*
X131161015Y-120542481D01*
X131042481Y-120661015D01*
X130903100Y-120754147D01*
X130748228Y-120818297D01*
X130583816Y-120851000D01*
X130416184Y-120851000D01*
X130251772Y-120818297D01*
X130096900Y-120754147D01*
X129957519Y-120661015D01*
X129838985Y-120542481D01*
X129745853Y-120403100D01*
X129681703Y-120248228D01*
X129649000Y-120083816D01*
X129649000Y-119916184D01*
X129681703Y-119751772D01*
X129745853Y-119596900D01*
X129838985Y-119457519D01*
X129957519Y-119338985D01*
X130096900Y-119245853D01*
X130251772Y-119181703D01*
X130416184Y-119149000D01*
X130583816Y-119149000D01*
X130748228Y-119181703D01*
X130748228Y-119181703D01*
G37*
G36*
X137631564Y-118739389D02*
G01*
X137822833Y-118818615D01*
X137822835Y-118818616D01*
X137994973Y-118933635D01*
X138141365Y-119080027D01*
X138252166Y-119245852D01*
X138256385Y-119252167D01*
X138335611Y-119443436D01*
X138376000Y-119646484D01*
X138376000Y-119853516D01*
X138335611Y-120056564D01*
X138256385Y-120247833D01*
X138256384Y-120247835D01*
X138141365Y-120419973D01*
X137994973Y-120566365D01*
X137822835Y-120681384D01*
X137822834Y-120681385D01*
X137822833Y-120681385D01*
X137631564Y-120760611D01*
X137428516Y-120801000D01*
X137221484Y-120801000D01*
X137018436Y-120760611D01*
X136827167Y-120681385D01*
X136827166Y-120681385D01*
X136827165Y-120681384D01*
X136655027Y-120566365D01*
X136508635Y-120419973D01*
X136393616Y-120247835D01*
X136393615Y-120247833D01*
X136314389Y-120056564D01*
X136274000Y-119853516D01*
X136274000Y-119646484D01*
X136314389Y-119443436D01*
X136393615Y-119252167D01*
X136397835Y-119245852D01*
X136508635Y-119080027D01*
X136655027Y-118933635D01*
X136827165Y-118818616D01*
X136827167Y-118818615D01*
X137018436Y-118739389D01*
X137221484Y-118699000D01*
X137428516Y-118699000D01*
X137631564Y-118739389D01*
X137631564Y-118739389D01*
G37*
G36*
X88088674Y-115903465D02*
G01*
X88126367Y-115914899D01*
X88161103Y-115933466D01*
X88191548Y-115958452D01*
X88216534Y-115988897D01*
X88235101Y-116023633D01*
X88246535Y-116061326D01*
X88251000Y-116106661D01*
X88251000Y-116943339D01*
X88246535Y-116988674D01*
X88235101Y-117026367D01*
X88216534Y-117061103D01*
X88191548Y-117091548D01*
X88161103Y-117116534D01*
X88126367Y-117135101D01*
X88088674Y-117146535D01*
X88043339Y-117151000D01*
X86956661Y-117151000D01*
X86911326Y-117146535D01*
X86873633Y-117135101D01*
X86838897Y-117116534D01*
X86808452Y-117091548D01*
X86783466Y-117061103D01*
X86764899Y-117026367D01*
X86753465Y-116988674D01*
X86749000Y-116943339D01*
X86749000Y-116106661D01*
X86753465Y-116061326D01*
X86764899Y-116023633D01*
X86783466Y-115988897D01*
X86808452Y-115958452D01*
X86838897Y-115933466D01*
X86873633Y-115914899D01*
X86911326Y-115903465D01*
X86956661Y-115899000D01*
X88043339Y-115899000D01*
X88088674Y-115903465D01*
X88088674Y-115903465D01*
G37*
G36*
X82838674Y-115903465D02*
G01*
X82876367Y-115914899D01*
X82911103Y-115933466D01*
X82941548Y-115958452D01*
X82966534Y-115988897D01*
X82985101Y-116023633D01*
X82996535Y-116061326D01*
X83001000Y-116106661D01*
X83001000Y-116943339D01*
X82996535Y-116988674D01*
X82985101Y-117026367D01*
X82966534Y-117061103D01*
X82941548Y-117091548D01*
X82911103Y-117116534D01*
X82876367Y-117135101D01*
X82838674Y-117146535D01*
X82793339Y-117151000D01*
X81706661Y-117151000D01*
X81661326Y-117146535D01*
X81623633Y-117135101D01*
X81588897Y-117116534D01*
X81558452Y-117091548D01*
X81533466Y-117061103D01*
X81514899Y-117026367D01*
X81503465Y-116988674D01*
X81499000Y-116943339D01*
X81499000Y-116106661D01*
X81503465Y-116061326D01*
X81514899Y-116023633D01*
X81533466Y-115988897D01*
X81558452Y-115958452D01*
X81588897Y-115933466D01*
X81623633Y-115914899D01*
X81661326Y-115903465D01*
X81706661Y-115899000D01*
X82793339Y-115899000D01*
X82838674Y-115903465D01*
X82838674Y-115903465D01*
G37*
G36*
X60176823Y-114911313D02*
G01*
X60337242Y-114959976D01*
X60451937Y-115021282D01*
X60485078Y-115038996D01*
X60614659Y-115145341D01*
X60721004Y-115274922D01*
X60721005Y-115274924D01*
X60800024Y-115422758D01*
X60848687Y-115583177D01*
X60865117Y-115750000D01*
X60848687Y-115916823D01*
X60800024Y-116077242D01*
X60759477Y-116153100D01*
X60721004Y-116225078D01*
X60614659Y-116354659D01*
X60485078Y-116461004D01*
X60485076Y-116461005D01*
X60337242Y-116540024D01*
X60176823Y-116588687D01*
X60051804Y-116601000D01*
X59968196Y-116601000D01*
X59843177Y-116588687D01*
X59682758Y-116540024D01*
X59534924Y-116461005D01*
X59534922Y-116461004D01*
X59405341Y-116354659D01*
X59298996Y-116225078D01*
X59260523Y-116153100D01*
X59219976Y-116077242D01*
X59171313Y-115916823D01*
X59154883Y-115750000D01*
X59171313Y-115583177D01*
X59219976Y-115422758D01*
X59298995Y-115274924D01*
X59298996Y-115274922D01*
X59405341Y-115145341D01*
X59534922Y-115038996D01*
X59568063Y-115021282D01*
X59682758Y-114959976D01*
X59843177Y-114911313D01*
X59968196Y-114899000D01*
X60051804Y-114899000D01*
X60176823Y-114911313D01*
X60176823Y-114911313D01*
G37*
G36*
X75498228Y-114931703D02*
G01*
X75653100Y-114995853D01*
X75792481Y-115088985D01*
X75911015Y-115207519D01*
X76004147Y-115346900D01*
X76068297Y-115501772D01*
X76101000Y-115666184D01*
X76101000Y-115833816D01*
X76068297Y-115998228D01*
X76004147Y-116153100D01*
X75911015Y-116292481D01*
X75792481Y-116411015D01*
X75653100Y-116504147D01*
X75498228Y-116568297D01*
X75333816Y-116601000D01*
X75166184Y-116601000D01*
X75001772Y-116568297D01*
X74846900Y-116504147D01*
X74707519Y-116411015D01*
X74588985Y-116292481D01*
X74495853Y-116153100D01*
X74431703Y-115998228D01*
X74399000Y-115833816D01*
X74399000Y-115666184D01*
X74431703Y-115501772D01*
X74495853Y-115346900D01*
X74588985Y-115207519D01*
X74707519Y-115088985D01*
X74846900Y-114995853D01*
X75001772Y-114931703D01*
X75166184Y-114899000D01*
X75333816Y-114899000D01*
X75498228Y-114931703D01*
X75498228Y-114931703D01*
G37*
G36*
X57451000Y-116201000D02*
G01*
X55549000Y-116201000D01*
X55549000Y-114299000D01*
X57451000Y-114299000D01*
X57451000Y-116201000D01*
X57451000Y-116201000D01*
G37*
G36*
X131351000Y-115351000D02*
G01*
X129649000Y-115351000D01*
X129649000Y-113649000D01*
X131351000Y-113649000D01*
X131351000Y-115351000D01*
X131351000Y-115351000D01*
G37*
G36*
X82838674Y-113853465D02*
G01*
X82876367Y-113864899D01*
X82911103Y-113883466D01*
X82941548Y-113908452D01*
X82966534Y-113938897D01*
X82985101Y-113973633D01*
X82996535Y-114011326D01*
X83001000Y-114056661D01*
X83001000Y-114893339D01*
X82996535Y-114938674D01*
X82985101Y-114976367D01*
X82966534Y-115011103D01*
X82941548Y-115041548D01*
X82911103Y-115066534D01*
X82876367Y-115085101D01*
X82838674Y-115096535D01*
X82793339Y-115101000D01*
X81706661Y-115101000D01*
X81661326Y-115096535D01*
X81623633Y-115085101D01*
X81588897Y-115066534D01*
X81558452Y-115041548D01*
X81533466Y-115011103D01*
X81514899Y-114976367D01*
X81503465Y-114938674D01*
X81499000Y-114893339D01*
X81499000Y-114056661D01*
X81503465Y-114011326D01*
X81514899Y-113973633D01*
X81533466Y-113938897D01*
X81558452Y-113908452D01*
X81588897Y-113883466D01*
X81623633Y-113864899D01*
X81661326Y-113853465D01*
X81706661Y-113849000D01*
X82793339Y-113849000D01*
X82838674Y-113853465D01*
X82838674Y-113853465D01*
G37*
G36*
X88088674Y-113853465D02*
G01*
X88126367Y-113864899D01*
X88161103Y-113883466D01*
X88191548Y-113908452D01*
X88216534Y-113938897D01*
X88235101Y-113973633D01*
X88246535Y-114011326D01*
X88251000Y-114056661D01*
X88251000Y-114893339D01*
X88246535Y-114938674D01*
X88235101Y-114976367D01*
X88216534Y-115011103D01*
X88191548Y-115041548D01*
X88161103Y-115066534D01*
X88126367Y-115085101D01*
X88088674Y-115096535D01*
X88043339Y-115101000D01*
X86956661Y-115101000D01*
X86911326Y-115096535D01*
X86873633Y-115085101D01*
X86838897Y-115066534D01*
X86808452Y-115041548D01*
X86783466Y-115011103D01*
X86764899Y-114976367D01*
X86753465Y-114938674D01*
X86749000Y-114893339D01*
X86749000Y-114056661D01*
X86753465Y-114011326D01*
X86764899Y-113973633D01*
X86783466Y-113938897D01*
X86808452Y-113908452D01*
X86838897Y-113883466D01*
X86873633Y-113864899D01*
X86911326Y-113853465D01*
X86956661Y-113849000D01*
X88043339Y-113849000D01*
X88088674Y-113853465D01*
X88088674Y-113853465D01*
G37*
G36*
X95801000Y-114301000D02*
G01*
X92699000Y-114301000D01*
X92699000Y-111199000D01*
X95801000Y-111199000D01*
X95801000Y-114301000D01*
X95801000Y-114301000D01*
G37*
G36*
X56686425Y-111772760D02*
G01*
X56686428Y-111772761D01*
X56686429Y-111772761D01*
X56865693Y-111827140D01*
X56865696Y-111827142D01*
X56865697Y-111827142D01*
X57030903Y-111915446D01*
X57175712Y-112034288D01*
X57294554Y-112179097D01*
X57349516Y-112281925D01*
X57382860Y-112344307D01*
X57430392Y-112501000D01*
X57437240Y-112523575D01*
X57455601Y-112710000D01*
X57437240Y-112896425D01*
X57437239Y-112896428D01*
X57437239Y-112896429D01*
X57382860Y-113075693D01*
X57382858Y-113075696D01*
X57382858Y-113075697D01*
X57294554Y-113240903D01*
X57175712Y-113385712D01*
X57030903Y-113504554D01*
X56865697Y-113592858D01*
X56865693Y-113592860D01*
X56686429Y-113647239D01*
X56686428Y-113647239D01*
X56686425Y-113647240D01*
X56546718Y-113661000D01*
X56453282Y-113661000D01*
X56313575Y-113647240D01*
X56313572Y-113647239D01*
X56313571Y-113647239D01*
X56134307Y-113592860D01*
X56134303Y-113592858D01*
X55969097Y-113504554D01*
X55824288Y-113385712D01*
X55705446Y-113240903D01*
X55617142Y-113075697D01*
X55617142Y-113075696D01*
X55617140Y-113075693D01*
X55562761Y-112896429D01*
X55562761Y-112896428D01*
X55562760Y-112896425D01*
X55544399Y-112710000D01*
X55562760Y-112523575D01*
X55569608Y-112501000D01*
X55617140Y-112344307D01*
X55650484Y-112281925D01*
X55705446Y-112179097D01*
X55824288Y-112034288D01*
X55969097Y-111915446D01*
X56134303Y-111827142D01*
X56134304Y-111827142D01*
X56134307Y-111827140D01*
X56313571Y-111772761D01*
X56313572Y-111772761D01*
X56313575Y-111772760D01*
X56453282Y-111759000D01*
X56546718Y-111759000D01*
X56686425Y-111772760D01*
X56686425Y-111772760D01*
G37*
G36*
X144793747Y-111119962D02*
G01*
X144910734Y-111143232D01*
X145120203Y-111229997D01*
X145308720Y-111355960D01*
X145469040Y-111516280D01*
X145595003Y-111704797D01*
X145595004Y-111704799D01*
X145614624Y-111752167D01*
X145681768Y-111914266D01*
X145690372Y-111957520D01*
X145726000Y-112136635D01*
X145726000Y-112363365D01*
X145705478Y-112466534D01*
X145682150Y-112583816D01*
X145681768Y-112585733D01*
X145614624Y-112747835D01*
X145595003Y-112795203D01*
X145469040Y-112983720D01*
X145308720Y-113144040D01*
X145120203Y-113270003D01*
X144910734Y-113356768D01*
X144799549Y-113378884D01*
X144688365Y-113401000D01*
X144461635Y-113401000D01*
X144350451Y-113378884D01*
X144239266Y-113356768D01*
X144029797Y-113270003D01*
X143841280Y-113144040D01*
X143680960Y-112983720D01*
X143554997Y-112795203D01*
X143535377Y-112747835D01*
X143468232Y-112585733D01*
X143467851Y-112583816D01*
X143444522Y-112466534D01*
X143424000Y-112363365D01*
X143424000Y-112136635D01*
X143459628Y-111957520D01*
X143468232Y-111914266D01*
X143535376Y-111752167D01*
X143554996Y-111704799D01*
X143554997Y-111704797D01*
X143680960Y-111516280D01*
X143841280Y-111355960D01*
X144029797Y-111229997D01*
X144239266Y-111143232D01*
X144356253Y-111119962D01*
X144461635Y-111099000D01*
X144688365Y-111099000D01*
X144793747Y-111119962D01*
X144793747Y-111119962D01*
G37*
G36*
X111248228Y-111681703D02*
G01*
X111403100Y-111745853D01*
X111542481Y-111838985D01*
X111661015Y-111957519D01*
X111754147Y-112096900D01*
X111818297Y-112251772D01*
X111851000Y-112416184D01*
X111851000Y-112583816D01*
X111818297Y-112748228D01*
X111754147Y-112903100D01*
X111661015Y-113042481D01*
X111542481Y-113161015D01*
X111403100Y-113254147D01*
X111248228Y-113318297D01*
X111083816Y-113351000D01*
X110916184Y-113351000D01*
X110751772Y-113318297D01*
X110596900Y-113254147D01*
X110457519Y-113161015D01*
X110338985Y-113042481D01*
X110245853Y-112903100D01*
X110181703Y-112748228D01*
X110149000Y-112583816D01*
X110149000Y-112416184D01*
X110181703Y-112251772D01*
X110245853Y-112096900D01*
X110338985Y-111957519D01*
X110457519Y-111838985D01*
X110596900Y-111745853D01*
X110751772Y-111681703D01*
X110916184Y-111649000D01*
X111083816Y-111649000D01*
X111248228Y-111681703D01*
X111248228Y-111681703D01*
G37*
G36*
X116248228Y-111681703D02*
G01*
X116403100Y-111745853D01*
X116542481Y-111838985D01*
X116661015Y-111957519D01*
X116754147Y-112096900D01*
X116818297Y-112251772D01*
X116851000Y-112416184D01*
X116851000Y-112583816D01*
X116818297Y-112748228D01*
X116754147Y-112903100D01*
X116661015Y-113042481D01*
X116542481Y-113161015D01*
X116403100Y-113254147D01*
X116248228Y-113318297D01*
X116083816Y-113351000D01*
X115916184Y-113351000D01*
X115751772Y-113318297D01*
X115596900Y-113254147D01*
X115457519Y-113161015D01*
X115338985Y-113042481D01*
X115245853Y-112903100D01*
X115181703Y-112748228D01*
X115149000Y-112583816D01*
X115149000Y-112416184D01*
X115181703Y-112251772D01*
X115245853Y-112096900D01*
X115338985Y-111957519D01*
X115457519Y-111838985D01*
X115596900Y-111745853D01*
X115751772Y-111681703D01*
X115916184Y-111649000D01*
X116083816Y-111649000D01*
X116248228Y-111681703D01*
X116248228Y-111681703D01*
G37*
G36*
X137631564Y-111239389D02*
G01*
X137822833Y-111318615D01*
X137822835Y-111318616D01*
X137994973Y-111433635D01*
X138141365Y-111580027D01*
X138252166Y-111745852D01*
X138256385Y-111752167D01*
X138335611Y-111943436D01*
X138376000Y-112146484D01*
X138376000Y-112353516D01*
X138335611Y-112556564D01*
X138323528Y-112585734D01*
X138256384Y-112747835D01*
X138141365Y-112919973D01*
X137994973Y-113066365D01*
X137822835Y-113181384D01*
X137822834Y-113181385D01*
X137822833Y-113181385D01*
X137631564Y-113260611D01*
X137428516Y-113301000D01*
X137221484Y-113301000D01*
X137018436Y-113260611D01*
X136827167Y-113181385D01*
X136827166Y-113181385D01*
X136827165Y-113181384D01*
X136655027Y-113066365D01*
X136508635Y-112919973D01*
X136393616Y-112747835D01*
X136326472Y-112585734D01*
X136314389Y-112556564D01*
X136274000Y-112353516D01*
X136274000Y-112146484D01*
X136314389Y-111943436D01*
X136393615Y-111752167D01*
X136397835Y-111745852D01*
X136508635Y-111580027D01*
X136655027Y-111433635D01*
X136827165Y-111318616D01*
X136827167Y-111318615D01*
X137018436Y-111239389D01*
X137221484Y-111199000D01*
X137428516Y-111199000D01*
X137631564Y-111239389D01*
X137631564Y-111239389D01*
G37*
G36*
X83201000Y-112701000D02*
G01*
X81299000Y-112701000D01*
X81299000Y-110799000D01*
X83201000Y-110799000D01*
X83201000Y-112701000D01*
X83201000Y-112701000D01*
G37*
G36*
X71706822Y-110011313D02*
G01*
X71867241Y-110059976D01*
X72015077Y-110138995D01*
X72144659Y-110245341D01*
X72251004Y-110374922D01*
X72251005Y-110374924D01*
X72330024Y-110522758D01*
X72378687Y-110683177D01*
X72391000Y-110808196D01*
X72391000Y-111691803D01*
X72378687Y-111816822D01*
X72330024Y-111977242D01*
X72299532Y-112034288D01*
X72251004Y-112125078D01*
X72144659Y-112254659D01*
X72015078Y-112361004D01*
X72015076Y-112361005D01*
X71867242Y-112440024D01*
X71706823Y-112488687D01*
X71540000Y-112505117D01*
X71373178Y-112488687D01*
X71212759Y-112440024D01*
X71064925Y-112361005D01*
X71064923Y-112361004D01*
X70935342Y-112254659D01*
X70828997Y-112125078D01*
X70780469Y-112034288D01*
X70749977Y-111977242D01*
X70701314Y-111816823D01*
X70689000Y-111691803D01*
X70689000Y-110808197D01*
X70701313Y-110683178D01*
X70749976Y-110522759D01*
X70828995Y-110374923D01*
X70935341Y-110245341D01*
X71064922Y-110138996D01*
X71146786Y-110095239D01*
X71212758Y-110059976D01*
X71373177Y-110011313D01*
X71540000Y-109994883D01*
X71706822Y-110011313D01*
X71706822Y-110011313D01*
G37*
G36*
X74246822Y-110011313D02*
G01*
X74407241Y-110059976D01*
X74555077Y-110138995D01*
X74684659Y-110245341D01*
X74791004Y-110374922D01*
X74791005Y-110374924D01*
X74870024Y-110522758D01*
X74918687Y-110683177D01*
X74931000Y-110808196D01*
X74931000Y-111691803D01*
X74918687Y-111816822D01*
X74870024Y-111977242D01*
X74839532Y-112034288D01*
X74791004Y-112125078D01*
X74684659Y-112254659D01*
X74555078Y-112361004D01*
X74555076Y-112361005D01*
X74407242Y-112440024D01*
X74246823Y-112488687D01*
X74080000Y-112505117D01*
X73913178Y-112488687D01*
X73752759Y-112440024D01*
X73604925Y-112361005D01*
X73604923Y-112361004D01*
X73475342Y-112254659D01*
X73368997Y-112125078D01*
X73320469Y-112034288D01*
X73289977Y-111977242D01*
X73241314Y-111816823D01*
X73229000Y-111691803D01*
X73229000Y-110808197D01*
X73241313Y-110683178D01*
X73289976Y-110522759D01*
X73368995Y-110374923D01*
X73475341Y-110245341D01*
X73604922Y-110138996D01*
X73686786Y-110095239D01*
X73752758Y-110059976D01*
X73913177Y-110011313D01*
X74080000Y-109994883D01*
X74246822Y-110011313D01*
X74246822Y-110011313D01*
G37*
G36*
X76786822Y-110011313D02*
G01*
X76947241Y-110059976D01*
X77095077Y-110138995D01*
X77224659Y-110245341D01*
X77331004Y-110374922D01*
X77331005Y-110374924D01*
X77410024Y-110522758D01*
X77458687Y-110683177D01*
X77471000Y-110808196D01*
X77471000Y-111691803D01*
X77458687Y-111816822D01*
X77410024Y-111977242D01*
X77379532Y-112034288D01*
X77331004Y-112125078D01*
X77224659Y-112254659D01*
X77095078Y-112361004D01*
X77095076Y-112361005D01*
X76947242Y-112440024D01*
X76786823Y-112488687D01*
X76620000Y-112505117D01*
X76453178Y-112488687D01*
X76292759Y-112440024D01*
X76144925Y-112361005D01*
X76144923Y-112361004D01*
X76015342Y-112254659D01*
X75908997Y-112125078D01*
X75860469Y-112034288D01*
X75829977Y-111977242D01*
X75781314Y-111816823D01*
X75769000Y-111691803D01*
X75769000Y-110808197D01*
X75781313Y-110683178D01*
X75829976Y-110522759D01*
X75908995Y-110374923D01*
X76015341Y-110245341D01*
X76144922Y-110138996D01*
X76226786Y-110095239D01*
X76292758Y-110059976D01*
X76453177Y-110011313D01*
X76620000Y-109994883D01*
X76786822Y-110011313D01*
X76786822Y-110011313D01*
G37*
G36*
X63688674Y-111003465D02*
G01*
X63726367Y-111014899D01*
X63761103Y-111033466D01*
X63791548Y-111058452D01*
X63816534Y-111088897D01*
X63835101Y-111123633D01*
X63846535Y-111161326D01*
X63851000Y-111206661D01*
X63851000Y-112293339D01*
X63846535Y-112338674D01*
X63835101Y-112376367D01*
X63816534Y-112411103D01*
X63791548Y-112441548D01*
X63761103Y-112466534D01*
X63726367Y-112485101D01*
X63688674Y-112496535D01*
X63643339Y-112501000D01*
X62806661Y-112501000D01*
X62761326Y-112496535D01*
X62723633Y-112485101D01*
X62688897Y-112466534D01*
X62658452Y-112441548D01*
X62633466Y-112411103D01*
X62614899Y-112376367D01*
X62603465Y-112338674D01*
X62599000Y-112293339D01*
X62599000Y-111206661D01*
X62603465Y-111161326D01*
X62614899Y-111123633D01*
X62633466Y-111088897D01*
X62658452Y-111058452D01*
X62688897Y-111033466D01*
X62723633Y-111014899D01*
X62761326Y-111003465D01*
X62806661Y-110999000D01*
X63643339Y-110999000D01*
X63688674Y-111003465D01*
X63688674Y-111003465D01*
G37*
G36*
X69851000Y-112501000D02*
G01*
X68149000Y-112501000D01*
X68149000Y-109999000D01*
X69851000Y-109999000D01*
X69851000Y-112501000D01*
X69851000Y-112501000D01*
G37*
G36*
X65738674Y-111003465D02*
G01*
X65776367Y-111014899D01*
X65811103Y-111033466D01*
X65841548Y-111058452D01*
X65866534Y-111088897D01*
X65885101Y-111123633D01*
X65896535Y-111161326D01*
X65901000Y-111206661D01*
X65901000Y-112293339D01*
X65896535Y-112338674D01*
X65885101Y-112376367D01*
X65866534Y-112411103D01*
X65841548Y-112441548D01*
X65811103Y-112466534D01*
X65776367Y-112485101D01*
X65738674Y-112496535D01*
X65693339Y-112501000D01*
X64856661Y-112501000D01*
X64811326Y-112496535D01*
X64773633Y-112485101D01*
X64738897Y-112466534D01*
X64708452Y-112441548D01*
X64683466Y-112411103D01*
X64664899Y-112376367D01*
X64653465Y-112338674D01*
X64649000Y-112293339D01*
X64649000Y-111206661D01*
X64653465Y-111161326D01*
X64664899Y-111123633D01*
X64683466Y-111088897D01*
X64708452Y-111058452D01*
X64738897Y-111033466D01*
X64773633Y-111014899D01*
X64811326Y-111003465D01*
X64856661Y-110999000D01*
X65693339Y-110999000D01*
X65738674Y-111003465D01*
X65738674Y-111003465D01*
G37*
G36*
X130748228Y-110181703D02*
G01*
X130903100Y-110245853D01*
X131042481Y-110338985D01*
X131161015Y-110457519D01*
X131254147Y-110596900D01*
X131318297Y-110751772D01*
X131351000Y-110916184D01*
X131351000Y-111083816D01*
X131318297Y-111248228D01*
X131254147Y-111403100D01*
X131161015Y-111542481D01*
X131042481Y-111661015D01*
X130903100Y-111754147D01*
X130748228Y-111818297D01*
X130583816Y-111851000D01*
X130416184Y-111851000D01*
X130251772Y-111818297D01*
X130096900Y-111754147D01*
X129957519Y-111661015D01*
X129838985Y-111542481D01*
X129745853Y-111403100D01*
X129681703Y-111248228D01*
X129649000Y-111083816D01*
X129649000Y-110916184D01*
X129681703Y-110751772D01*
X129745853Y-110596900D01*
X129838985Y-110457519D01*
X129957519Y-110338985D01*
X130096900Y-110245853D01*
X130251772Y-110181703D01*
X130416184Y-110149000D01*
X130583816Y-110149000D01*
X130748228Y-110181703D01*
X130748228Y-110181703D01*
G37*
G36*
X56686425Y-109232760D02*
G01*
X56686428Y-109232761D01*
X56686429Y-109232761D01*
X56865693Y-109287140D01*
X56865696Y-109287142D01*
X56865697Y-109287142D01*
X57030903Y-109375446D01*
X57175712Y-109494288D01*
X57294554Y-109639097D01*
X57305976Y-109660467D01*
X57382860Y-109804307D01*
X57426658Y-109948690D01*
X57437240Y-109983575D01*
X57455601Y-110170000D01*
X57437240Y-110356425D01*
X57437239Y-110356428D01*
X57437239Y-110356429D01*
X57382860Y-110535693D01*
X57382858Y-110535696D01*
X57382858Y-110535697D01*
X57294554Y-110700903D01*
X57175712Y-110845712D01*
X57030903Y-110964554D01*
X56880643Y-111044869D01*
X56865693Y-111052860D01*
X56686429Y-111107239D01*
X56686428Y-111107239D01*
X56686425Y-111107240D01*
X56546718Y-111121000D01*
X56453282Y-111121000D01*
X56313575Y-111107240D01*
X56313572Y-111107239D01*
X56313571Y-111107239D01*
X56134307Y-111052860D01*
X56119357Y-111044869D01*
X55969097Y-110964554D01*
X55824288Y-110845712D01*
X55705446Y-110700903D01*
X55617142Y-110535697D01*
X55617142Y-110535696D01*
X55617140Y-110535693D01*
X55562761Y-110356429D01*
X55562761Y-110356428D01*
X55562760Y-110356425D01*
X55544399Y-110170000D01*
X55562760Y-109983575D01*
X55573342Y-109948690D01*
X55617140Y-109804307D01*
X55694024Y-109660467D01*
X55705446Y-109639097D01*
X55824288Y-109494288D01*
X55969097Y-109375446D01*
X56134303Y-109287142D01*
X56134304Y-109287142D01*
X56134307Y-109287140D01*
X56313571Y-109232761D01*
X56313572Y-109232761D01*
X56313575Y-109232760D01*
X56453282Y-109219000D01*
X56546718Y-109219000D01*
X56686425Y-109232760D01*
X56686425Y-109232760D01*
G37*
G36*
X142520239Y-108617101D02*
G01*
X142756053Y-108688634D01*
X142973381Y-108804799D01*
X143163871Y-108961129D01*
X143320201Y-109151619D01*
X143436366Y-109368947D01*
X143507899Y-109604761D01*
X143532053Y-109850000D01*
X143507899Y-110095239D01*
X143436366Y-110331053D01*
X143320201Y-110548381D01*
X143163871Y-110738871D01*
X142973381Y-110895201D01*
X142756053Y-111011366D01*
X142520239Y-111082899D01*
X142336457Y-111101000D01*
X139813543Y-111101000D01*
X139629761Y-111082899D01*
X139393947Y-111011366D01*
X139176619Y-110895201D01*
X138986129Y-110738871D01*
X138829799Y-110548381D01*
X138713634Y-110331053D01*
X138642101Y-110095239D01*
X138617947Y-109850000D01*
X138642101Y-109604761D01*
X138713634Y-109368947D01*
X138829799Y-109151619D01*
X138986129Y-108961129D01*
X139176619Y-108804799D01*
X139393947Y-108688634D01*
X139629761Y-108617101D01*
X139813543Y-108599000D01*
X142336457Y-108599000D01*
X142520239Y-108617101D01*
X142520239Y-108617101D01*
G37*
G36*
X82527395Y-108295546D02*
G01*
X82700466Y-108367234D01*
X82756496Y-108404672D01*
X82856227Y-108471310D01*
X82988690Y-108603773D01*
X83025394Y-108658705D01*
X83092766Y-108759534D01*
X83164454Y-108932605D01*
X83201000Y-109116333D01*
X83201000Y-109303667D01*
X83164454Y-109487395D01*
X83092766Y-109660466D01*
X83092765Y-109660467D01*
X82988690Y-109816227D01*
X82856227Y-109948690D01*
X82787094Y-109994883D01*
X82700466Y-110052766D01*
X82527395Y-110124454D01*
X82343667Y-110161000D01*
X82156333Y-110161000D01*
X81972605Y-110124454D01*
X81799534Y-110052766D01*
X81712906Y-109994883D01*
X81643773Y-109948690D01*
X81511310Y-109816227D01*
X81407235Y-109660467D01*
X81407234Y-109660466D01*
X81335546Y-109487395D01*
X81299000Y-109303667D01*
X81299000Y-109116333D01*
X81335546Y-108932605D01*
X81407234Y-108759534D01*
X81474606Y-108658705D01*
X81511310Y-108603773D01*
X81643773Y-108471310D01*
X81743504Y-108404672D01*
X81799534Y-108367234D01*
X81972605Y-108295546D01*
X82156333Y-108259000D01*
X82343667Y-108259000D01*
X82527395Y-108295546D01*
X82527395Y-108295546D01*
G37*
G36*
X94552585Y-106148802D02*
G01*
X94702410Y-106178604D01*
X94984674Y-106295521D01*
X95238705Y-106465259D01*
X95454741Y-106681295D01*
X95624479Y-106935326D01*
X95741396Y-107217590D01*
X95801000Y-107517240D01*
X95801000Y-107822760D01*
X95741396Y-108122410D01*
X95624479Y-108404674D01*
X95454741Y-108658705D01*
X95238705Y-108874741D01*
X94984674Y-109044479D01*
X94702410Y-109161396D01*
X94552585Y-109191198D01*
X94402761Y-109221000D01*
X94097239Y-109221000D01*
X93947415Y-109191198D01*
X93797590Y-109161396D01*
X93515326Y-109044479D01*
X93261295Y-108874741D01*
X93045259Y-108658705D01*
X92875521Y-108404674D01*
X92758604Y-108122410D01*
X92699000Y-107822760D01*
X92699000Y-107517240D01*
X92758604Y-107217590D01*
X92875521Y-106935326D01*
X93045259Y-106681295D01*
X93261295Y-106465259D01*
X93515326Y-106295521D01*
X93797590Y-106178604D01*
X93947415Y-106148802D01*
X94097239Y-106119000D01*
X94402761Y-106119000D01*
X94552585Y-106148802D01*
X94552585Y-106148802D01*
G37*
G36*
X63663674Y-107003465D02*
G01*
X63701367Y-107014899D01*
X63736103Y-107033466D01*
X63766548Y-107058452D01*
X63791534Y-107088897D01*
X63810101Y-107123633D01*
X63821535Y-107161326D01*
X63826000Y-107206661D01*
X63826000Y-108293339D01*
X63821535Y-108338674D01*
X63810101Y-108376367D01*
X63791534Y-108411103D01*
X63766548Y-108441548D01*
X63736103Y-108466534D01*
X63701367Y-108485101D01*
X63663674Y-108496535D01*
X63618339Y-108501000D01*
X62781661Y-108501000D01*
X62736326Y-108496535D01*
X62698633Y-108485101D01*
X62663897Y-108466534D01*
X62633452Y-108441548D01*
X62608466Y-108411103D01*
X62589899Y-108376367D01*
X62578465Y-108338674D01*
X62574000Y-108293339D01*
X62574000Y-107206661D01*
X62578465Y-107161326D01*
X62589899Y-107123633D01*
X62608466Y-107088897D01*
X62633452Y-107058452D01*
X62663897Y-107033466D01*
X62698633Y-107014899D01*
X62736326Y-107003465D01*
X62781661Y-106999000D01*
X63618339Y-106999000D01*
X63663674Y-107003465D01*
X63663674Y-107003465D01*
G37*
G36*
X65713674Y-107003465D02*
G01*
X65751367Y-107014899D01*
X65786103Y-107033466D01*
X65816548Y-107058452D01*
X65841534Y-107088897D01*
X65860101Y-107123633D01*
X65871535Y-107161326D01*
X65876000Y-107206661D01*
X65876000Y-108293339D01*
X65871535Y-108338674D01*
X65860101Y-108376367D01*
X65841534Y-108411103D01*
X65816548Y-108441548D01*
X65786103Y-108466534D01*
X65751367Y-108485101D01*
X65713674Y-108496535D01*
X65668339Y-108501000D01*
X64831661Y-108501000D01*
X64786326Y-108496535D01*
X64748633Y-108485101D01*
X64713897Y-108466534D01*
X64683452Y-108441548D01*
X64658466Y-108411103D01*
X64639899Y-108376367D01*
X64628465Y-108338674D01*
X64624000Y-108293339D01*
X64624000Y-107206661D01*
X64628465Y-107161326D01*
X64639899Y-107123633D01*
X64658466Y-107088897D01*
X64683452Y-107058452D01*
X64713897Y-107033466D01*
X64748633Y-107014899D01*
X64786326Y-107003465D01*
X64831661Y-106999000D01*
X65668339Y-106999000D01*
X65713674Y-107003465D01*
X65713674Y-107003465D01*
G37*
G36*
X103248228Y-105681703D02*
G01*
X103403100Y-105745853D01*
X103542481Y-105838985D01*
X103661015Y-105957519D01*
X103754147Y-106096900D01*
X103818297Y-106251772D01*
X103851000Y-106416184D01*
X103851000Y-106583816D01*
X103818297Y-106748228D01*
X103754147Y-106903100D01*
X103661015Y-107042481D01*
X103542481Y-107161015D01*
X103403100Y-107254147D01*
X103248228Y-107318297D01*
X103083816Y-107351000D01*
X102916184Y-107351000D01*
X102751772Y-107318297D01*
X102596900Y-107254147D01*
X102457519Y-107161015D01*
X102338985Y-107042481D01*
X102245853Y-106903100D01*
X102181703Y-106748228D01*
X102149000Y-106583816D01*
X102149000Y-106416184D01*
X102181703Y-106251772D01*
X102245853Y-106096900D01*
X102338985Y-105957519D01*
X102457519Y-105838985D01*
X102596900Y-105745853D01*
X102751772Y-105681703D01*
X102916184Y-105649000D01*
X103083816Y-105649000D01*
X103248228Y-105681703D01*
X103248228Y-105681703D01*
G37*
G36*
X108248228Y-105681703D02*
G01*
X108403100Y-105745853D01*
X108542481Y-105838985D01*
X108661015Y-105957519D01*
X108754147Y-106096900D01*
X108818297Y-106251772D01*
X108851000Y-106416184D01*
X108851000Y-106583816D01*
X108818297Y-106748228D01*
X108754147Y-106903100D01*
X108661015Y-107042481D01*
X108542481Y-107161015D01*
X108403100Y-107254147D01*
X108248228Y-107318297D01*
X108083816Y-107351000D01*
X107916184Y-107351000D01*
X107751772Y-107318297D01*
X107596900Y-107254147D01*
X107457519Y-107161015D01*
X107338985Y-107042481D01*
X107245853Y-106903100D01*
X107181703Y-106748228D01*
X107149000Y-106583816D01*
X107149000Y-106416184D01*
X107181703Y-106251772D01*
X107245853Y-106096900D01*
X107338985Y-105957519D01*
X107457519Y-105838985D01*
X107596900Y-105745853D01*
X107751772Y-105681703D01*
X107916184Y-105649000D01*
X108083816Y-105649000D01*
X108248228Y-105681703D01*
X108248228Y-105681703D01*
G37*
G36*
X111248228Y-105681703D02*
G01*
X111403100Y-105745853D01*
X111542481Y-105838985D01*
X111661015Y-105957519D01*
X111754147Y-106096900D01*
X111818297Y-106251772D01*
X111851000Y-106416184D01*
X111851000Y-106583816D01*
X111818297Y-106748228D01*
X111754147Y-106903100D01*
X111661015Y-107042481D01*
X111542481Y-107161015D01*
X111403100Y-107254147D01*
X111248228Y-107318297D01*
X111083816Y-107351000D01*
X110916184Y-107351000D01*
X110751772Y-107318297D01*
X110596900Y-107254147D01*
X110457519Y-107161015D01*
X110338985Y-107042481D01*
X110245853Y-106903100D01*
X110181703Y-106748228D01*
X110149000Y-106583816D01*
X110149000Y-106416184D01*
X110181703Y-106251772D01*
X110245853Y-106096900D01*
X110338985Y-105957519D01*
X110457519Y-105838985D01*
X110596900Y-105745853D01*
X110751772Y-105681703D01*
X110916184Y-105649000D01*
X111083816Y-105649000D01*
X111248228Y-105681703D01*
X111248228Y-105681703D01*
G37*
G36*
X116248228Y-105681703D02*
G01*
X116403100Y-105745853D01*
X116542481Y-105838985D01*
X116661015Y-105957519D01*
X116754147Y-106096900D01*
X116818297Y-106251772D01*
X116851000Y-106416184D01*
X116851000Y-106583816D01*
X116818297Y-106748228D01*
X116754147Y-106903100D01*
X116661015Y-107042481D01*
X116542481Y-107161015D01*
X116403100Y-107254147D01*
X116248228Y-107318297D01*
X116083816Y-107351000D01*
X115916184Y-107351000D01*
X115751772Y-107318297D01*
X115596900Y-107254147D01*
X115457519Y-107161015D01*
X115338985Y-107042481D01*
X115245853Y-106903100D01*
X115181703Y-106748228D01*
X115149000Y-106583816D01*
X115149000Y-106416184D01*
X115181703Y-106251772D01*
X115245853Y-106096900D01*
X115338985Y-105957519D01*
X115457519Y-105838985D01*
X115596900Y-105745853D01*
X115751772Y-105681703D01*
X115916184Y-105649000D01*
X116083816Y-105649000D01*
X116248228Y-105681703D01*
X116248228Y-105681703D01*
G37*
G36*
X57451000Y-107201000D02*
G01*
X55549000Y-107201000D01*
X55549000Y-105299000D01*
X57451000Y-105299000D01*
X57451000Y-107201000D01*
X57451000Y-107201000D01*
G37*
G36*
X83201000Y-106701000D02*
G01*
X81299000Y-106701000D01*
X81299000Y-104799000D01*
X83201000Y-104799000D01*
X83201000Y-106701000D01*
X83201000Y-106701000D01*
G37*
G36*
X74246822Y-102391313D02*
G01*
X74377379Y-102430917D01*
X74398219Y-102437239D01*
X74407241Y-102439976D01*
X74555077Y-102518995D01*
X74658381Y-102603775D01*
X74684659Y-102625341D01*
X74791004Y-102754922D01*
X74791005Y-102754924D01*
X74870024Y-102902758D01*
X74918687Y-103063177D01*
X74931000Y-103188196D01*
X74931000Y-104071803D01*
X74918687Y-104196822D01*
X74870024Y-104357242D01*
X74854806Y-104385712D01*
X74791004Y-104505078D01*
X74684659Y-104634659D01*
X74555078Y-104741004D01*
X74555076Y-104741005D01*
X74407242Y-104820024D01*
X74246823Y-104868687D01*
X74080000Y-104885117D01*
X73913178Y-104868687D01*
X73752759Y-104820024D01*
X73604925Y-104741005D01*
X73604923Y-104741004D01*
X73475342Y-104634659D01*
X73368997Y-104505078D01*
X73305195Y-104385712D01*
X73289977Y-104357242D01*
X73241314Y-104196823D01*
X73229000Y-104071803D01*
X73229000Y-103188197D01*
X73241313Y-103063178D01*
X73289976Y-102902759D01*
X73368995Y-102754923D01*
X73475341Y-102625341D01*
X73573396Y-102544869D01*
X73604922Y-102518996D01*
X73642332Y-102499000D01*
X73752758Y-102439976D01*
X73761781Y-102437239D01*
X73782620Y-102430917D01*
X73913177Y-102391313D01*
X74080000Y-102374883D01*
X74246822Y-102391313D01*
X74246822Y-102391313D01*
G37*
G36*
X76786822Y-102391313D02*
G01*
X76917379Y-102430917D01*
X76938219Y-102437239D01*
X76947241Y-102439976D01*
X77095077Y-102518995D01*
X77198381Y-102603775D01*
X77224659Y-102625341D01*
X77331004Y-102754922D01*
X77331005Y-102754924D01*
X77410024Y-102902758D01*
X77458687Y-103063177D01*
X77471000Y-103188196D01*
X77471000Y-104071803D01*
X77458687Y-104196822D01*
X77410024Y-104357242D01*
X77394806Y-104385712D01*
X77331004Y-104505078D01*
X77224659Y-104634659D01*
X77095078Y-104741004D01*
X77095076Y-104741005D01*
X76947242Y-104820024D01*
X76786823Y-104868687D01*
X76620000Y-104885117D01*
X76453178Y-104868687D01*
X76292759Y-104820024D01*
X76144925Y-104741005D01*
X76144923Y-104741004D01*
X76015342Y-104634659D01*
X75908997Y-104505078D01*
X75845195Y-104385712D01*
X75829977Y-104357242D01*
X75781314Y-104196823D01*
X75769000Y-104071803D01*
X75769000Y-103188197D01*
X75781313Y-103063178D01*
X75829976Y-102902759D01*
X75908995Y-102754923D01*
X76015341Y-102625341D01*
X76113396Y-102544869D01*
X76144922Y-102518996D01*
X76182332Y-102499000D01*
X76292758Y-102439976D01*
X76301781Y-102437239D01*
X76322620Y-102430917D01*
X76453177Y-102391313D01*
X76620000Y-102374883D01*
X76786822Y-102391313D01*
X76786822Y-102391313D01*
G37*
G36*
X69166822Y-102391313D02*
G01*
X69297379Y-102430917D01*
X69318219Y-102437239D01*
X69327241Y-102439976D01*
X69475077Y-102518995D01*
X69578381Y-102603775D01*
X69604659Y-102625341D01*
X69711004Y-102754922D01*
X69711005Y-102754924D01*
X69790024Y-102902758D01*
X69838687Y-103063177D01*
X69851000Y-103188196D01*
X69851000Y-104071803D01*
X69838687Y-104196822D01*
X69790024Y-104357242D01*
X69774806Y-104385712D01*
X69711004Y-104505078D01*
X69604659Y-104634659D01*
X69475078Y-104741004D01*
X69475076Y-104741005D01*
X69327242Y-104820024D01*
X69166823Y-104868687D01*
X69000000Y-104885117D01*
X68833178Y-104868687D01*
X68672759Y-104820024D01*
X68524925Y-104741005D01*
X68524923Y-104741004D01*
X68395342Y-104634659D01*
X68288997Y-104505078D01*
X68225195Y-104385712D01*
X68209977Y-104357242D01*
X68161314Y-104196823D01*
X68149000Y-104071803D01*
X68149000Y-103188197D01*
X68161313Y-103063178D01*
X68209976Y-102902759D01*
X68288995Y-102754923D01*
X68395341Y-102625341D01*
X68493396Y-102544869D01*
X68524922Y-102518996D01*
X68562332Y-102499000D01*
X68672758Y-102439976D01*
X68681781Y-102437239D01*
X68702620Y-102430917D01*
X68833177Y-102391313D01*
X69000000Y-102374883D01*
X69166822Y-102391313D01*
X69166822Y-102391313D01*
G37*
G36*
X71706822Y-102391313D02*
G01*
X71837379Y-102430917D01*
X71858219Y-102437239D01*
X71867241Y-102439976D01*
X72015077Y-102518995D01*
X72118381Y-102603775D01*
X72144659Y-102625341D01*
X72251004Y-102754922D01*
X72251005Y-102754924D01*
X72330024Y-102902758D01*
X72378687Y-103063177D01*
X72391000Y-103188196D01*
X72391000Y-104071803D01*
X72378687Y-104196822D01*
X72330024Y-104357242D01*
X72314806Y-104385712D01*
X72251004Y-104505078D01*
X72144659Y-104634659D01*
X72015078Y-104741004D01*
X72015076Y-104741005D01*
X71867242Y-104820024D01*
X71706823Y-104868687D01*
X71540000Y-104885117D01*
X71373178Y-104868687D01*
X71212759Y-104820024D01*
X71064925Y-104741005D01*
X71064923Y-104741004D01*
X70935342Y-104634659D01*
X70828997Y-104505078D01*
X70765195Y-104385712D01*
X70749977Y-104357242D01*
X70701314Y-104196823D01*
X70689000Y-104071803D01*
X70689000Y-103188197D01*
X70701313Y-103063178D01*
X70749976Y-102902759D01*
X70828995Y-102754923D01*
X70935341Y-102625341D01*
X71033396Y-102544869D01*
X71064922Y-102518996D01*
X71102332Y-102499000D01*
X71212758Y-102439976D01*
X71221781Y-102437239D01*
X71242620Y-102430917D01*
X71373177Y-102391313D01*
X71540000Y-102374883D01*
X71706822Y-102391313D01*
X71706822Y-102391313D01*
G37*
G36*
X56686425Y-102772760D02*
G01*
X56686428Y-102772761D01*
X56686429Y-102772761D01*
X56865693Y-102827140D01*
X56865696Y-102827142D01*
X56865697Y-102827142D01*
X57030903Y-102915446D01*
X57175712Y-103034288D01*
X57294554Y-103179097D01*
X57372365Y-103324672D01*
X57382860Y-103344307D01*
X57426265Y-103487395D01*
X57437240Y-103523575D01*
X57455601Y-103710000D01*
X57437240Y-103896425D01*
X57437239Y-103896428D01*
X57437239Y-103896429D01*
X57382860Y-104075693D01*
X57382858Y-104075696D01*
X57382858Y-104075697D01*
X57294554Y-104240903D01*
X57175712Y-104385712D01*
X57030903Y-104504554D01*
X56865697Y-104592858D01*
X56865693Y-104592860D01*
X56686429Y-104647239D01*
X56686428Y-104647239D01*
X56686425Y-104647240D01*
X56546718Y-104661000D01*
X56453282Y-104661000D01*
X56313575Y-104647240D01*
X56313572Y-104647239D01*
X56313571Y-104647239D01*
X56134307Y-104592860D01*
X56134303Y-104592858D01*
X55969097Y-104504554D01*
X55824288Y-104385712D01*
X55705446Y-104240903D01*
X55617142Y-104075697D01*
X55617142Y-104075696D01*
X55617140Y-104075693D01*
X55562761Y-103896429D01*
X55562761Y-103896428D01*
X55562760Y-103896425D01*
X55544399Y-103710000D01*
X55562760Y-103523575D01*
X55573735Y-103487395D01*
X55617140Y-103344307D01*
X55627635Y-103324672D01*
X55705446Y-103179097D01*
X55824288Y-103034288D01*
X55969097Y-102915446D01*
X56134303Y-102827142D01*
X56134304Y-102827142D01*
X56134307Y-102827140D01*
X56313571Y-102772761D01*
X56313572Y-102772761D01*
X56313575Y-102772760D01*
X56453282Y-102759000D01*
X56546718Y-102759000D01*
X56686425Y-102772760D01*
X56686425Y-102772760D01*
G37*
G36*
X82527395Y-102295546D02*
G01*
X82700466Y-102367234D01*
X82736504Y-102391314D01*
X82856227Y-102471310D01*
X82988690Y-102603773D01*
X82988691Y-102603775D01*
X83092766Y-102759534D01*
X83164454Y-102932605D01*
X83201000Y-103116333D01*
X83201000Y-103303667D01*
X83164454Y-103487395D01*
X83092766Y-103660466D01*
X83092765Y-103660467D01*
X82988690Y-103816227D01*
X82856227Y-103948690D01*
X82846587Y-103955131D01*
X82700466Y-104052766D01*
X82527395Y-104124454D01*
X82343667Y-104161000D01*
X82156333Y-104161000D01*
X81972605Y-104124454D01*
X81799534Y-104052766D01*
X81653413Y-103955131D01*
X81643773Y-103948690D01*
X81511310Y-103816227D01*
X81407235Y-103660467D01*
X81407234Y-103660466D01*
X81335546Y-103487395D01*
X81299000Y-103303667D01*
X81299000Y-103116333D01*
X81335546Y-102932605D01*
X81407234Y-102759534D01*
X81511309Y-102603775D01*
X81511310Y-102603773D01*
X81643773Y-102471310D01*
X81763496Y-102391314D01*
X81799534Y-102367234D01*
X81972605Y-102295546D01*
X82156333Y-102259000D01*
X82343667Y-102259000D01*
X82527395Y-102295546D01*
X82527395Y-102295546D01*
G37*
G36*
X94550036Y-101068295D02*
G01*
X94702410Y-101098604D01*
X94984674Y-101215521D01*
X95238705Y-101385259D01*
X95454741Y-101601295D01*
X95624479Y-101855326D01*
X95734524Y-102121000D01*
X95741396Y-102137591D01*
X95801000Y-102437239D01*
X95801000Y-102742761D01*
X95784216Y-102827140D01*
X95741396Y-103042410D01*
X95624479Y-103324674D01*
X95454741Y-103578705D01*
X95238705Y-103794741D01*
X94984674Y-103964479D01*
X94702410Y-104081396D01*
X94552585Y-104111198D01*
X94402761Y-104141000D01*
X94097239Y-104141000D01*
X93947415Y-104111198D01*
X93797590Y-104081396D01*
X93515326Y-103964479D01*
X93261295Y-103794741D01*
X93045259Y-103578705D01*
X92875521Y-103324674D01*
X92758604Y-103042410D01*
X92715784Y-102827140D01*
X92699000Y-102742761D01*
X92699000Y-102437239D01*
X92758604Y-102137591D01*
X92765476Y-102121000D01*
X92875521Y-101855326D01*
X93045259Y-101601295D01*
X93261295Y-101385259D01*
X93515326Y-101215521D01*
X93797590Y-101098604D01*
X93949964Y-101068295D01*
X94097239Y-101039000D01*
X94402761Y-101039000D01*
X94550036Y-101068295D01*
X94550036Y-101068295D01*
G37*
G36*
X65738674Y-102503465D02*
G01*
X65776367Y-102514899D01*
X65811103Y-102533466D01*
X65841548Y-102558452D01*
X65866534Y-102588897D01*
X65885101Y-102623633D01*
X65896535Y-102661326D01*
X65901000Y-102706661D01*
X65901000Y-103793339D01*
X65896535Y-103838674D01*
X65885101Y-103876367D01*
X65866534Y-103911103D01*
X65841548Y-103941548D01*
X65811103Y-103966534D01*
X65776367Y-103985101D01*
X65738674Y-103996535D01*
X65693339Y-104001000D01*
X64856661Y-104001000D01*
X64811326Y-103996535D01*
X64773633Y-103985101D01*
X64738897Y-103966534D01*
X64708452Y-103941548D01*
X64683466Y-103911103D01*
X64664899Y-103876367D01*
X64653465Y-103838674D01*
X64649000Y-103793339D01*
X64649000Y-102706661D01*
X64653465Y-102661326D01*
X64664899Y-102623633D01*
X64683466Y-102588897D01*
X64708452Y-102558452D01*
X64738897Y-102533466D01*
X64773633Y-102514899D01*
X64811326Y-102503465D01*
X64856661Y-102499000D01*
X65693339Y-102499000D01*
X65738674Y-102503465D01*
X65738674Y-102503465D01*
G37*
G36*
X63688674Y-102503465D02*
G01*
X63726367Y-102514899D01*
X63761103Y-102533466D01*
X63791548Y-102558452D01*
X63816534Y-102588897D01*
X63835101Y-102623633D01*
X63846535Y-102661326D01*
X63851000Y-102706661D01*
X63851000Y-103793339D01*
X63846535Y-103838674D01*
X63835101Y-103876367D01*
X63816534Y-103911103D01*
X63791548Y-103941548D01*
X63761103Y-103966534D01*
X63726367Y-103985101D01*
X63688674Y-103996535D01*
X63643339Y-104001000D01*
X62806661Y-104001000D01*
X62761326Y-103996535D01*
X62723633Y-103985101D01*
X62688897Y-103966534D01*
X62658452Y-103941548D01*
X62633466Y-103911103D01*
X62614899Y-103876367D01*
X62603465Y-103838674D01*
X62599000Y-103793339D01*
X62599000Y-102706661D01*
X62603465Y-102661326D01*
X62614899Y-102623633D01*
X62633466Y-102588897D01*
X62658452Y-102558452D01*
X62688897Y-102533466D01*
X62723633Y-102514899D01*
X62761326Y-102503465D01*
X62806661Y-102499000D01*
X63643339Y-102499000D01*
X63688674Y-102503465D01*
X63688674Y-102503465D01*
G37*
G36*
X56686425Y-100232760D02*
G01*
X56686428Y-100232761D01*
X56686429Y-100232761D01*
X56865693Y-100287140D01*
X56865696Y-100287142D01*
X56865697Y-100287142D01*
X57030903Y-100375446D01*
X57175712Y-100494288D01*
X57294554Y-100639097D01*
X57376539Y-100792481D01*
X57382860Y-100804307D01*
X57412191Y-100901000D01*
X57437240Y-100983575D01*
X57455601Y-101170000D01*
X57437240Y-101356425D01*
X57437239Y-101356428D01*
X57437239Y-101356429D01*
X57382860Y-101535693D01*
X57382858Y-101535696D01*
X57382858Y-101535697D01*
X57294554Y-101700903D01*
X57175712Y-101845712D01*
X57030903Y-101964554D01*
X56865697Y-102052858D01*
X56865693Y-102052860D01*
X56686429Y-102107239D01*
X56686428Y-102107239D01*
X56686425Y-102107240D01*
X56546718Y-102121000D01*
X56453282Y-102121000D01*
X56313575Y-102107240D01*
X56313572Y-102107239D01*
X56313571Y-102107239D01*
X56134307Y-102052860D01*
X56134303Y-102052858D01*
X55969097Y-101964554D01*
X55824288Y-101845712D01*
X55705446Y-101700903D01*
X55617142Y-101535697D01*
X55617142Y-101535696D01*
X55617140Y-101535693D01*
X55562761Y-101356429D01*
X55562761Y-101356428D01*
X55562760Y-101356425D01*
X55544399Y-101170000D01*
X55562760Y-100983575D01*
X55587809Y-100901000D01*
X55617140Y-100804307D01*
X55623461Y-100792481D01*
X55705446Y-100639097D01*
X55824288Y-100494288D01*
X55969097Y-100375446D01*
X56134303Y-100287142D01*
X56134304Y-100287142D01*
X56134307Y-100287140D01*
X56313571Y-100232761D01*
X56313572Y-100232761D01*
X56313575Y-100232760D01*
X56453282Y-100219000D01*
X56546718Y-100219000D01*
X56686425Y-100232760D01*
X56686425Y-100232760D01*
G37*
G36*
X103141410Y-99431703D02*
G01*
X103296282Y-99495853D01*
X103435663Y-99588985D01*
X103554197Y-99707519D01*
X103647329Y-99846900D01*
X103711479Y-100001772D01*
X103744182Y-100166184D01*
X103744182Y-100333816D01*
X103711479Y-100498228D01*
X103647329Y-100653100D01*
X103554197Y-100792481D01*
X103435663Y-100911015D01*
X103296282Y-101004147D01*
X103141410Y-101068297D01*
X102976998Y-101101000D01*
X102809366Y-101101000D01*
X102644954Y-101068297D01*
X102490082Y-101004147D01*
X102350701Y-100911015D01*
X102232167Y-100792481D01*
X102139035Y-100653100D01*
X102074885Y-100498228D01*
X102042182Y-100333816D01*
X102042182Y-100166184D01*
X102074885Y-100001772D01*
X102139035Y-99846900D01*
X102232167Y-99707519D01*
X102350701Y-99588985D01*
X102490082Y-99495853D01*
X102644954Y-99431703D01*
X102809366Y-99399000D01*
X102976998Y-99399000D01*
X103141410Y-99431703D01*
X103141410Y-99431703D01*
G37*
G36*
X108141410Y-99431703D02*
G01*
X108296282Y-99495853D01*
X108435663Y-99588985D01*
X108554197Y-99707519D01*
X108647329Y-99846900D01*
X108711479Y-100001772D01*
X108744182Y-100166184D01*
X108744182Y-100333816D01*
X108711479Y-100498228D01*
X108647329Y-100653100D01*
X108554197Y-100792481D01*
X108435663Y-100911015D01*
X108296282Y-101004147D01*
X108141410Y-101068297D01*
X107976998Y-101101000D01*
X107809366Y-101101000D01*
X107644954Y-101068297D01*
X107490082Y-101004147D01*
X107350701Y-100911015D01*
X107232167Y-100792481D01*
X107139035Y-100653100D01*
X107074885Y-100498228D01*
X107042182Y-100333816D01*
X107042182Y-100166184D01*
X107074885Y-100001772D01*
X107139035Y-99846900D01*
X107232167Y-99707519D01*
X107350701Y-99588985D01*
X107490082Y-99495853D01*
X107644954Y-99431703D01*
X107809366Y-99399000D01*
X107976998Y-99399000D01*
X108141410Y-99431703D01*
X108141410Y-99431703D01*
G37*
G36*
X83088674Y-99653465D02*
G01*
X83126367Y-99664899D01*
X83161103Y-99683466D01*
X83191548Y-99708452D01*
X83216534Y-99738897D01*
X83235101Y-99773633D01*
X83246535Y-99811326D01*
X83251000Y-99856661D01*
X83251000Y-100693339D01*
X83246535Y-100738674D01*
X83235101Y-100776367D01*
X83216534Y-100811103D01*
X83191548Y-100841548D01*
X83161103Y-100866534D01*
X83126367Y-100885101D01*
X83088674Y-100896535D01*
X83043339Y-100901000D01*
X81956661Y-100901000D01*
X81911326Y-100896535D01*
X81873633Y-100885101D01*
X81838897Y-100866534D01*
X81808452Y-100841548D01*
X81783466Y-100811103D01*
X81764899Y-100776367D01*
X81753465Y-100738674D01*
X81749000Y-100693339D01*
X81749000Y-99856661D01*
X81753465Y-99811326D01*
X81764899Y-99773633D01*
X81783466Y-99738897D01*
X81808452Y-99708452D01*
X81838897Y-99683466D01*
X81873633Y-99664899D01*
X81911326Y-99653465D01*
X81956661Y-99649000D01*
X83043339Y-99649000D01*
X83088674Y-99653465D01*
X83088674Y-99653465D01*
G37*
G36*
X87588674Y-99653465D02*
G01*
X87626367Y-99664899D01*
X87661103Y-99683466D01*
X87691548Y-99708452D01*
X87716534Y-99738897D01*
X87735101Y-99773633D01*
X87746535Y-99811326D01*
X87751000Y-99856661D01*
X87751000Y-100693339D01*
X87746535Y-100738674D01*
X87735101Y-100776367D01*
X87716534Y-100811103D01*
X87691548Y-100841548D01*
X87661103Y-100866534D01*
X87626367Y-100885101D01*
X87588674Y-100896535D01*
X87543339Y-100901000D01*
X86456661Y-100901000D01*
X86411326Y-100896535D01*
X86373633Y-100885101D01*
X86338897Y-100866534D01*
X86308452Y-100841548D01*
X86283466Y-100811103D01*
X86264899Y-100776367D01*
X86253465Y-100738674D01*
X86249000Y-100693339D01*
X86249000Y-99856661D01*
X86253465Y-99811326D01*
X86264899Y-99773633D01*
X86283466Y-99738897D01*
X86308452Y-99708452D01*
X86338897Y-99683466D01*
X86373633Y-99664899D01*
X86411326Y-99653465D01*
X86456661Y-99649000D01*
X87543339Y-99649000D01*
X87588674Y-99653465D01*
X87588674Y-99653465D01*
G37*
G36*
X75498228Y-98681703D02*
G01*
X75653100Y-98745853D01*
X75792481Y-98838985D01*
X75911015Y-98957519D01*
X76004147Y-99096900D01*
X76068297Y-99251772D01*
X76101000Y-99416184D01*
X76101000Y-99583816D01*
X76068297Y-99748228D01*
X76004147Y-99903100D01*
X75911015Y-100042481D01*
X75792481Y-100161015D01*
X75653100Y-100254147D01*
X75498228Y-100318297D01*
X75333816Y-100351000D01*
X75166184Y-100351000D01*
X75001772Y-100318297D01*
X74846900Y-100254147D01*
X74707519Y-100161015D01*
X74588985Y-100042481D01*
X74495853Y-99903100D01*
X74431703Y-99748228D01*
X74399000Y-99583816D01*
X74399000Y-99416184D01*
X74431703Y-99251772D01*
X74495853Y-99096900D01*
X74588985Y-98957519D01*
X74707519Y-98838985D01*
X74846900Y-98745853D01*
X75001772Y-98681703D01*
X75166184Y-98649000D01*
X75333816Y-98649000D01*
X75498228Y-98681703D01*
X75498228Y-98681703D01*
G37*
G36*
X60176823Y-98661313D02*
G01*
X60337242Y-98709976D01*
X60451937Y-98771282D01*
X60485078Y-98788996D01*
X60614659Y-98895341D01*
X60721004Y-99024922D01*
X60721005Y-99024924D01*
X60800024Y-99172758D01*
X60848687Y-99333177D01*
X60865117Y-99500000D01*
X60848687Y-99666823D01*
X60822197Y-99754147D01*
X60802738Y-99818297D01*
X60800024Y-99827242D01*
X60759477Y-99903100D01*
X60721004Y-99975078D01*
X60614659Y-100104659D01*
X60485078Y-100211004D01*
X60485076Y-100211005D01*
X60337242Y-100290024D01*
X60176823Y-100338687D01*
X60051804Y-100351000D01*
X59968196Y-100351000D01*
X59843177Y-100338687D01*
X59682758Y-100290024D01*
X59534924Y-100211005D01*
X59534922Y-100211004D01*
X59405341Y-100104659D01*
X59298996Y-99975078D01*
X59260523Y-99903100D01*
X59219976Y-99827242D01*
X59217263Y-99818297D01*
X59197803Y-99754147D01*
X59171313Y-99666823D01*
X59154883Y-99500000D01*
X59171313Y-99333177D01*
X59219976Y-99172758D01*
X59298995Y-99024924D01*
X59298996Y-99024922D01*
X59405341Y-98895341D01*
X59534922Y-98788996D01*
X59568063Y-98771282D01*
X59682758Y-98709976D01*
X59843177Y-98661313D01*
X59968196Y-98649000D01*
X60051804Y-98649000D01*
X60176823Y-98661313D01*
X60176823Y-98661313D01*
G37*
G36*
X136248228Y-98181703D02*
G01*
X136403100Y-98245853D01*
X136542481Y-98338985D01*
X136661015Y-98457519D01*
X136754147Y-98596900D01*
X136818297Y-98751772D01*
X136851000Y-98916184D01*
X136851000Y-99083816D01*
X136818297Y-99248228D01*
X136754147Y-99403100D01*
X136661015Y-99542481D01*
X136542481Y-99661015D01*
X136403100Y-99754147D01*
X136248228Y-99818297D01*
X136083816Y-99851000D01*
X135916184Y-99851000D01*
X135751772Y-99818297D01*
X135596900Y-99754147D01*
X135457519Y-99661015D01*
X135338985Y-99542481D01*
X135245853Y-99403100D01*
X135181703Y-99248228D01*
X135149000Y-99083816D01*
X135149000Y-98916184D01*
X135181703Y-98751772D01*
X135245853Y-98596900D01*
X135338985Y-98457519D01*
X135457519Y-98338985D01*
X135596900Y-98245853D01*
X135751772Y-98181703D01*
X135916184Y-98149000D01*
X136083816Y-98149000D01*
X136248228Y-98181703D01*
X136248228Y-98181703D01*
G37*
G36*
X131248228Y-98181703D02*
G01*
X131403100Y-98245853D01*
X131542481Y-98338985D01*
X131661015Y-98457519D01*
X131754147Y-98596900D01*
X131818297Y-98751772D01*
X131851000Y-98916184D01*
X131851000Y-99083816D01*
X131818297Y-99248228D01*
X131754147Y-99403100D01*
X131661015Y-99542481D01*
X131542481Y-99661015D01*
X131403100Y-99754147D01*
X131248228Y-99818297D01*
X131083816Y-99851000D01*
X130916184Y-99851000D01*
X130751772Y-99818297D01*
X130596900Y-99754147D01*
X130457519Y-99661015D01*
X130338985Y-99542481D01*
X130245853Y-99403100D01*
X130181703Y-99248228D01*
X130149000Y-99083816D01*
X130149000Y-98916184D01*
X130181703Y-98751772D01*
X130245853Y-98596900D01*
X130338985Y-98457519D01*
X130457519Y-98338985D01*
X130596900Y-98245853D01*
X130751772Y-98181703D01*
X130916184Y-98149000D01*
X131083816Y-98149000D01*
X131248228Y-98181703D01*
X131248228Y-98181703D01*
G37*
G36*
X95025880Y-94509776D02*
G01*
X95406593Y-94585504D01*
X95816249Y-94755189D01*
X96184929Y-95001534D01*
X96498466Y-95315071D01*
X96744811Y-95683751D01*
X96914496Y-96093407D01*
X97001000Y-96528296D01*
X97001000Y-96971704D01*
X96914496Y-97406593D01*
X96744811Y-97816249D01*
X96498466Y-98184929D01*
X96184929Y-98498466D01*
X95816249Y-98744811D01*
X95406593Y-98914496D01*
X95025880Y-98990224D01*
X94971705Y-99001000D01*
X94528295Y-99001000D01*
X94474120Y-98990224D01*
X94093407Y-98914496D01*
X93683751Y-98744811D01*
X93315071Y-98498466D01*
X93001534Y-98184929D01*
X92755189Y-97816249D01*
X92585504Y-97406593D01*
X92499000Y-96971704D01*
X92499000Y-96528296D01*
X92585504Y-96093407D01*
X92755189Y-95683751D01*
X93001534Y-95315071D01*
X93315071Y-95001534D01*
X93683751Y-94755189D01*
X94093407Y-94585504D01*
X94474120Y-94509776D01*
X94528295Y-94499000D01*
X94971705Y-94499000D01*
X95025880Y-94509776D01*
X95025880Y-94509776D01*
G37*
G36*
X54775880Y-94509776D02*
G01*
X55156593Y-94585504D01*
X55566249Y-94755189D01*
X55934929Y-95001534D01*
X56248466Y-95315071D01*
X56494811Y-95683751D01*
X56664496Y-96093407D01*
X56751000Y-96528296D01*
X56751000Y-96971704D01*
X56664496Y-97406593D01*
X56494811Y-97816249D01*
X56248466Y-98184929D01*
X55934929Y-98498466D01*
X55566249Y-98744811D01*
X55156593Y-98914496D01*
X54775880Y-98990224D01*
X54721705Y-99001000D01*
X54278295Y-99001000D01*
X54224120Y-98990224D01*
X53843407Y-98914496D01*
X53433751Y-98744811D01*
X53065071Y-98498466D01*
X52751534Y-98184929D01*
X52505189Y-97816249D01*
X52335504Y-97406593D01*
X52249000Y-96971704D01*
X52249000Y-96528296D01*
X52335504Y-96093407D01*
X52505189Y-95683751D01*
X52751534Y-95315071D01*
X53065071Y-95001534D01*
X53433751Y-94755189D01*
X53843407Y-94585504D01*
X54224120Y-94509776D01*
X54278295Y-94499000D01*
X54721705Y-94499000D01*
X54775880Y-94509776D01*
X54775880Y-94509776D01*
G37*
G36*
X87588674Y-97603465D02*
G01*
X87626367Y-97614899D01*
X87661103Y-97633466D01*
X87691548Y-97658452D01*
X87716534Y-97688897D01*
X87735101Y-97723633D01*
X87746535Y-97761326D01*
X87751000Y-97806661D01*
X87751000Y-98643339D01*
X87746535Y-98688674D01*
X87735101Y-98726367D01*
X87716534Y-98761103D01*
X87691548Y-98791548D01*
X87661103Y-98816534D01*
X87626367Y-98835101D01*
X87588674Y-98846535D01*
X87543339Y-98851000D01*
X86456661Y-98851000D01*
X86411326Y-98846535D01*
X86373633Y-98835101D01*
X86338897Y-98816534D01*
X86308452Y-98791548D01*
X86283466Y-98761103D01*
X86264899Y-98726367D01*
X86253465Y-98688674D01*
X86249000Y-98643339D01*
X86249000Y-97806661D01*
X86253465Y-97761326D01*
X86264899Y-97723633D01*
X86283466Y-97688897D01*
X86308452Y-97658452D01*
X86338897Y-97633466D01*
X86373633Y-97614899D01*
X86411326Y-97603465D01*
X86456661Y-97599000D01*
X87543339Y-97599000D01*
X87588674Y-97603465D01*
X87588674Y-97603465D01*
G37*
G36*
X83088674Y-97603465D02*
G01*
X83126367Y-97614899D01*
X83161103Y-97633466D01*
X83191548Y-97658452D01*
X83216534Y-97688897D01*
X83235101Y-97723633D01*
X83246535Y-97761326D01*
X83251000Y-97806661D01*
X83251000Y-98643339D01*
X83246535Y-98688674D01*
X83235101Y-98726367D01*
X83216534Y-98761103D01*
X83191548Y-98791548D01*
X83161103Y-98816534D01*
X83126367Y-98835101D01*
X83088674Y-98846535D01*
X83043339Y-98851000D01*
X81956661Y-98851000D01*
X81911326Y-98846535D01*
X81873633Y-98835101D01*
X81838897Y-98816534D01*
X81808452Y-98791548D01*
X81783466Y-98761103D01*
X81764899Y-98726367D01*
X81753465Y-98688674D01*
X81749000Y-98643339D01*
X81749000Y-97806661D01*
X81753465Y-97761326D01*
X81764899Y-97723633D01*
X81783466Y-97688897D01*
X81808452Y-97658452D01*
X81838897Y-97633466D01*
X81873633Y-97614899D01*
X81911326Y-97603465D01*
X81956661Y-97599000D01*
X83043339Y-97599000D01*
X83088674Y-97603465D01*
X83088674Y-97603465D01*
G37*
G36*
X123248228Y-91681703D02*
G01*
X123403100Y-91745853D01*
X123542481Y-91838985D01*
X123661015Y-91957519D01*
X123754147Y-92096900D01*
X123818297Y-92251772D01*
X123851000Y-92416184D01*
X123851000Y-92583816D01*
X123818297Y-92748228D01*
X123754147Y-92903100D01*
X123661015Y-93042481D01*
X123542481Y-93161015D01*
X123403100Y-93254147D01*
X123248228Y-93318297D01*
X123083816Y-93351000D01*
X122916184Y-93351000D01*
X122751772Y-93318297D01*
X122596900Y-93254147D01*
X122457519Y-93161015D01*
X122338985Y-93042481D01*
X122245853Y-92903100D01*
X122181703Y-92748228D01*
X122149000Y-92583816D01*
X122149000Y-92416184D01*
X122181703Y-92251772D01*
X122245853Y-92096900D01*
X122338985Y-91957519D01*
X122457519Y-91838985D01*
X122596900Y-91745853D01*
X122751772Y-91681703D01*
X122916184Y-91649000D01*
X123083816Y-91649000D01*
X123248228Y-91681703D01*
X123248228Y-91681703D01*
G37*
G36*
X139248228Y-91681703D02*
G01*
X139403100Y-91745853D01*
X139542481Y-91838985D01*
X139661015Y-91957519D01*
X139754147Y-92096900D01*
X139818297Y-92251772D01*
X139851000Y-92416184D01*
X139851000Y-92583816D01*
X139818297Y-92748228D01*
X139754147Y-92903100D01*
X139661015Y-93042481D01*
X139542481Y-93161015D01*
X139403100Y-93254147D01*
X139248228Y-93318297D01*
X139083816Y-93351000D01*
X138916184Y-93351000D01*
X138751772Y-93318297D01*
X138596900Y-93254147D01*
X138457519Y-93161015D01*
X138338985Y-93042481D01*
X138245853Y-92903100D01*
X138181703Y-92748228D01*
X138149000Y-92583816D01*
X138149000Y-92416184D01*
X138181703Y-92251772D01*
X138245853Y-92096900D01*
X138338985Y-91957519D01*
X138457519Y-91838985D01*
X138596900Y-91745853D01*
X138751772Y-91681703D01*
X138916184Y-91649000D01*
X139083816Y-91649000D01*
X139248228Y-91681703D01*
X139248228Y-91681703D01*
G37*
G36*
X144248228Y-91681703D02*
G01*
X144403100Y-91745853D01*
X144542481Y-91838985D01*
X144661015Y-91957519D01*
X144754147Y-92096900D01*
X144818297Y-92251772D01*
X144851000Y-92416184D01*
X144851000Y-92583816D01*
X144818297Y-92748228D01*
X144754147Y-92903100D01*
X144661015Y-93042481D01*
X144542481Y-93161015D01*
X144403100Y-93254147D01*
X144248228Y-93318297D01*
X144083816Y-93351000D01*
X143916184Y-93351000D01*
X143751772Y-93318297D01*
X143596900Y-93254147D01*
X143457519Y-93161015D01*
X143338985Y-93042481D01*
X143245853Y-92903100D01*
X143181703Y-92748228D01*
X143149000Y-92583816D01*
X143149000Y-92416184D01*
X143181703Y-92251772D01*
X143245853Y-92096900D01*
X143338985Y-91957519D01*
X143457519Y-91838985D01*
X143596900Y-91745853D01*
X143751772Y-91681703D01*
X143916184Y-91649000D01*
X144083816Y-91649000D01*
X144248228Y-91681703D01*
X144248228Y-91681703D01*
G37*
G36*
X136248228Y-91681703D02*
G01*
X136403100Y-91745853D01*
X136542481Y-91838985D01*
X136661015Y-91957519D01*
X136754147Y-92096900D01*
X136818297Y-92251772D01*
X136851000Y-92416184D01*
X136851000Y-92583816D01*
X136818297Y-92748228D01*
X136754147Y-92903100D01*
X136661015Y-93042481D01*
X136542481Y-93161015D01*
X136403100Y-93254147D01*
X136248228Y-93318297D01*
X136083816Y-93351000D01*
X135916184Y-93351000D01*
X135751772Y-93318297D01*
X135596900Y-93254147D01*
X135457519Y-93161015D01*
X135338985Y-93042481D01*
X135245853Y-92903100D01*
X135181703Y-92748228D01*
X135149000Y-92583816D01*
X135149000Y-92416184D01*
X135181703Y-92251772D01*
X135245853Y-92096900D01*
X135338985Y-91957519D01*
X135457519Y-91838985D01*
X135596900Y-91745853D01*
X135751772Y-91681703D01*
X135916184Y-91649000D01*
X136083816Y-91649000D01*
X136248228Y-91681703D01*
X136248228Y-91681703D01*
G37*
G36*
X131248228Y-91681703D02*
G01*
X131403100Y-91745853D01*
X131542481Y-91838985D01*
X131661015Y-91957519D01*
X131754147Y-92096900D01*
X131818297Y-92251772D01*
X131851000Y-92416184D01*
X131851000Y-92583816D01*
X131818297Y-92748228D01*
X131754147Y-92903100D01*
X131661015Y-93042481D01*
X131542481Y-93161015D01*
X131403100Y-93254147D01*
X131248228Y-93318297D01*
X131083816Y-93351000D01*
X130916184Y-93351000D01*
X130751772Y-93318297D01*
X130596900Y-93254147D01*
X130457519Y-93161015D01*
X130338985Y-93042481D01*
X130245853Y-92903100D01*
X130181703Y-92748228D01*
X130149000Y-92583816D01*
X130149000Y-92416184D01*
X130181703Y-92251772D01*
X130245853Y-92096900D01*
X130338985Y-91957519D01*
X130457519Y-91838985D01*
X130596900Y-91745853D01*
X130751772Y-91681703D01*
X130916184Y-91649000D01*
X131083816Y-91649000D01*
X131248228Y-91681703D01*
X131248228Y-91681703D01*
G37*
G36*
X128248228Y-91681703D02*
G01*
X128403100Y-91745853D01*
X128542481Y-91838985D01*
X128661015Y-91957519D01*
X128754147Y-92096900D01*
X128818297Y-92251772D01*
X128851000Y-92416184D01*
X128851000Y-92583816D01*
X128818297Y-92748228D01*
X128754147Y-92903100D01*
X128661015Y-93042481D01*
X128542481Y-93161015D01*
X128403100Y-93254147D01*
X128248228Y-93318297D01*
X128083816Y-93351000D01*
X127916184Y-93351000D01*
X127751772Y-93318297D01*
X127596900Y-93254147D01*
X127457519Y-93161015D01*
X127338985Y-93042481D01*
X127245853Y-92903100D01*
X127181703Y-92748228D01*
X127149000Y-92583816D01*
X127149000Y-92416184D01*
X127181703Y-92251772D01*
X127245853Y-92096900D01*
X127338985Y-91957519D01*
X127457519Y-91838985D01*
X127596900Y-91745853D01*
X127751772Y-91681703D01*
X127916184Y-91649000D01*
X128083816Y-91649000D01*
X128248228Y-91681703D01*
X128248228Y-91681703D01*
G37*
G36*
X95027395Y-90375546D02*
G01*
X95200466Y-90447234D01*
X95200467Y-90447235D01*
X95356227Y-90551310D01*
X95488690Y-90683773D01*
X95488691Y-90683775D01*
X95592766Y-90839534D01*
X95664454Y-91012605D01*
X95701000Y-91196333D01*
X95701000Y-91383667D01*
X95664454Y-91567395D01*
X95592766Y-91740466D01*
X95541081Y-91817818D01*
X95488690Y-91896227D01*
X95356227Y-92028690D01*
X95277818Y-92081081D01*
X95200466Y-92132766D01*
X95027395Y-92204454D01*
X94843667Y-92241000D01*
X94656333Y-92241000D01*
X94472605Y-92204454D01*
X94299534Y-92132766D01*
X94222182Y-92081081D01*
X94143773Y-92028690D01*
X94011310Y-91896227D01*
X93958919Y-91817818D01*
X93907234Y-91740466D01*
X93835546Y-91567395D01*
X93799000Y-91383667D01*
X93799000Y-91196333D01*
X93835546Y-91012605D01*
X93907234Y-90839534D01*
X94011309Y-90683775D01*
X94011310Y-90683773D01*
X94143773Y-90551310D01*
X94299533Y-90447235D01*
X94299534Y-90447234D01*
X94472605Y-90375546D01*
X94656333Y-90339000D01*
X94843667Y-90339000D01*
X95027395Y-90375546D01*
X95027395Y-90375546D01*
G37*
G36*
X95701000Y-89701000D02*
G01*
X93799000Y-89701000D01*
X93799000Y-87799000D01*
X95701000Y-87799000D01*
X95701000Y-89701000D01*
X95701000Y-89701000D01*
G37*
G36*
X128248228Y-85681703D02*
G01*
X128403100Y-85745853D01*
X128542481Y-85838985D01*
X128661015Y-85957519D01*
X128754147Y-86096900D01*
X128818297Y-86251772D01*
X128851000Y-86416184D01*
X128851000Y-86583816D01*
X128818297Y-86748228D01*
X128754147Y-86903100D01*
X128661015Y-87042481D01*
X128542481Y-87161015D01*
X128403100Y-87254147D01*
X128248228Y-87318297D01*
X128083816Y-87351000D01*
X127916184Y-87351000D01*
X127751772Y-87318297D01*
X127596900Y-87254147D01*
X127457519Y-87161015D01*
X127338985Y-87042481D01*
X127245853Y-86903100D01*
X127181703Y-86748228D01*
X127149000Y-86583816D01*
X127149000Y-86416184D01*
X127181703Y-86251772D01*
X127245853Y-86096900D01*
X127338985Y-85957519D01*
X127457519Y-85838985D01*
X127596900Y-85745853D01*
X127751772Y-85681703D01*
X127916184Y-85649000D01*
X128083816Y-85649000D01*
X128248228Y-85681703D01*
X128248228Y-85681703D01*
G37*
G36*
X123248228Y-85681703D02*
G01*
X123403100Y-85745853D01*
X123542481Y-85838985D01*
X123661015Y-85957519D01*
X123754147Y-86096900D01*
X123818297Y-86251772D01*
X123851000Y-86416184D01*
X123851000Y-86583816D01*
X123818297Y-86748228D01*
X123754147Y-86903100D01*
X123661015Y-87042481D01*
X123542481Y-87161015D01*
X123403100Y-87254147D01*
X123248228Y-87318297D01*
X123083816Y-87351000D01*
X122916184Y-87351000D01*
X122751772Y-87318297D01*
X122596900Y-87254147D01*
X122457519Y-87161015D01*
X122338985Y-87042481D01*
X122245853Y-86903100D01*
X122181703Y-86748228D01*
X122149000Y-86583816D01*
X122149000Y-86416184D01*
X122181703Y-86251772D01*
X122245853Y-86096900D01*
X122338985Y-85957519D01*
X122457519Y-85838985D01*
X122596900Y-85745853D01*
X122751772Y-85681703D01*
X122916184Y-85649000D01*
X123083816Y-85649000D01*
X123248228Y-85681703D01*
X123248228Y-85681703D01*
G37*
G36*
X81364903Y-82797075D02*
G01*
X81592571Y-82891378D01*
X81797466Y-83028285D01*
X81971715Y-83202534D01*
X82062830Y-83338897D01*
X82108623Y-83407431D01*
X82202925Y-83635097D01*
X82251000Y-83876786D01*
X82251000Y-84123214D01*
X82202925Y-84364903D01*
X82112594Y-84582983D01*
X82108622Y-84592571D01*
X81971715Y-84797466D01*
X81797466Y-84971715D01*
X81592571Y-85108622D01*
X81592570Y-85108623D01*
X81592569Y-85108623D01*
X81364903Y-85202925D01*
X81123214Y-85251000D01*
X80876786Y-85251000D01*
X80635097Y-85202925D01*
X80407431Y-85108623D01*
X80407430Y-85108623D01*
X80407429Y-85108622D01*
X80202534Y-84971715D01*
X80028285Y-84797466D01*
X79891378Y-84592571D01*
X79887407Y-84582983D01*
X79797075Y-84364903D01*
X79749000Y-84123214D01*
X79749000Y-83876786D01*
X79797075Y-83635097D01*
X79891377Y-83407431D01*
X79937170Y-83338897D01*
X80028285Y-83202534D01*
X80202534Y-83028285D01*
X80407429Y-82891378D01*
X80635097Y-82797075D01*
X80876786Y-82749000D01*
X81123214Y-82749000D01*
X81364903Y-82797075D01*
X81364903Y-82797075D01*
G37*
G36*
X116364903Y-82797075D02*
G01*
X116592571Y-82891378D01*
X116797466Y-83028285D01*
X116971715Y-83202534D01*
X117062830Y-83338897D01*
X117108623Y-83407431D01*
X117202925Y-83635097D01*
X117251000Y-83876786D01*
X117251000Y-84123214D01*
X117202925Y-84364903D01*
X117112594Y-84582983D01*
X117108622Y-84592571D01*
X116971715Y-84797466D01*
X116797466Y-84971715D01*
X116592571Y-85108622D01*
X116592570Y-85108623D01*
X116592569Y-85108623D01*
X116364903Y-85202925D01*
X116123214Y-85251000D01*
X115876786Y-85251000D01*
X115635097Y-85202925D01*
X115407431Y-85108623D01*
X115407430Y-85108623D01*
X115407429Y-85108622D01*
X115202534Y-84971715D01*
X115028285Y-84797466D01*
X114891378Y-84592571D01*
X114887407Y-84582983D01*
X114797075Y-84364903D01*
X114749000Y-84123214D01*
X114749000Y-83876786D01*
X114797075Y-83635097D01*
X114891377Y-83407431D01*
X114937170Y-83338897D01*
X115028285Y-83202534D01*
X115202534Y-83028285D01*
X115407429Y-82891378D01*
X115635097Y-82797075D01*
X115876786Y-82749000D01*
X116123214Y-82749000D01*
X116364903Y-82797075D01*
X116364903Y-82797075D01*
G37*
G36*
X71438674Y-83253465D02*
G01*
X71476367Y-83264899D01*
X71511103Y-83283466D01*
X71541548Y-83308452D01*
X71566534Y-83338897D01*
X71585101Y-83373633D01*
X71596535Y-83411326D01*
X71601000Y-83456661D01*
X71601000Y-84543339D01*
X71596535Y-84588674D01*
X71585101Y-84626367D01*
X71566534Y-84661103D01*
X71541548Y-84691548D01*
X71511103Y-84716534D01*
X71476367Y-84735101D01*
X71438674Y-84746535D01*
X71393339Y-84751000D01*
X70556661Y-84751000D01*
X70511326Y-84746535D01*
X70473633Y-84735101D01*
X70438897Y-84716534D01*
X70408452Y-84691548D01*
X70383466Y-84661103D01*
X70364899Y-84626367D01*
X70353465Y-84588674D01*
X70349000Y-84543339D01*
X70349000Y-83456661D01*
X70353465Y-83411326D01*
X70364899Y-83373633D01*
X70383466Y-83338897D01*
X70408452Y-83308452D01*
X70438897Y-83283466D01*
X70473633Y-83264899D01*
X70511326Y-83253465D01*
X70556661Y-83249000D01*
X71393339Y-83249000D01*
X71438674Y-83253465D01*
X71438674Y-83253465D01*
G37*
G36*
X73488674Y-83253465D02*
G01*
X73526367Y-83264899D01*
X73561103Y-83283466D01*
X73591548Y-83308452D01*
X73616534Y-83338897D01*
X73635101Y-83373633D01*
X73646535Y-83411326D01*
X73651000Y-83456661D01*
X73651000Y-84543339D01*
X73646535Y-84588674D01*
X73635101Y-84626367D01*
X73616534Y-84661103D01*
X73591548Y-84691548D01*
X73561103Y-84716534D01*
X73526367Y-84735101D01*
X73488674Y-84746535D01*
X73443339Y-84751000D01*
X72606661Y-84751000D01*
X72561326Y-84746535D01*
X72523633Y-84735101D01*
X72488897Y-84716534D01*
X72458452Y-84691548D01*
X72433466Y-84661103D01*
X72414899Y-84626367D01*
X72403465Y-84588674D01*
X72399000Y-84543339D01*
X72399000Y-83456661D01*
X72403465Y-83411326D01*
X72414899Y-83373633D01*
X72433466Y-83338897D01*
X72458452Y-83308452D01*
X72488897Y-83283466D01*
X72523633Y-83264899D01*
X72561326Y-83253465D01*
X72606661Y-83249000D01*
X73443339Y-83249000D01*
X73488674Y-83253465D01*
X73488674Y-83253465D01*
G37*
G36*
X106551000Y-81301000D02*
G01*
X103449000Y-81301000D01*
X103449000Y-78199000D01*
X106551000Y-78199000D01*
X106551000Y-81301000D01*
X106551000Y-81301000D01*
G37*
G36*
X95551000Y-81051000D02*
G01*
X92449000Y-81051000D01*
X92449000Y-77949000D01*
X95551000Y-77949000D01*
X95551000Y-81051000D01*
X95551000Y-81051000D01*
G37*
G36*
X54509752Y-77630282D02*
G01*
X54702410Y-77668604D01*
X54984674Y-77785521D01*
X55238705Y-77955259D01*
X55454741Y-78171295D01*
X55624479Y-78425326D01*
X55741396Y-78707590D01*
X55801000Y-79007240D01*
X55801000Y-79312760D01*
X55741396Y-79612410D01*
X55624479Y-79894674D01*
X55454741Y-80148705D01*
X55238705Y-80364741D01*
X54984674Y-80534479D01*
X54702410Y-80651396D01*
X54552585Y-80681198D01*
X54402761Y-80711000D01*
X54097239Y-80711000D01*
X53947415Y-80681198D01*
X53797590Y-80651396D01*
X53515326Y-80534479D01*
X53261295Y-80364741D01*
X53045259Y-80148705D01*
X52875521Y-79894674D01*
X52758604Y-79612410D01*
X52699000Y-79312760D01*
X52699000Y-79007240D01*
X52758604Y-78707590D01*
X52875521Y-78425326D01*
X53045259Y-78171295D01*
X53261295Y-77955259D01*
X53515326Y-77785521D01*
X53797590Y-77668604D01*
X53990248Y-77630282D01*
X54097239Y-77609000D01*
X54402761Y-77609000D01*
X54509752Y-77630282D01*
X54509752Y-77630282D01*
G37*
G36*
X117251000Y-80251000D02*
G01*
X114749000Y-80251000D01*
X114749000Y-77749000D01*
X117251000Y-77749000D01*
X117251000Y-80251000D01*
X117251000Y-80251000D01*
G37*
G36*
X82251000Y-80251000D02*
G01*
X79749000Y-80251000D01*
X79749000Y-77749000D01*
X82251000Y-77749000D01*
X82251000Y-80251000D01*
X82251000Y-80251000D01*
G37*
G36*
X63086823Y-77031313D02*
G01*
X63247242Y-77079976D01*
X63379906Y-77150886D01*
X63395078Y-77158996D01*
X63524659Y-77265341D01*
X63631004Y-77394922D01*
X63631005Y-77394924D01*
X63710024Y-77542758D01*
X63758687Y-77703177D01*
X63775117Y-77870000D01*
X63758687Y-78036823D01*
X63710024Y-78197242D01*
X63709084Y-78199000D01*
X63631004Y-78345078D01*
X63524659Y-78474659D01*
X63395078Y-78581004D01*
X63395076Y-78581005D01*
X63247242Y-78660024D01*
X63086823Y-78708687D01*
X62961804Y-78721000D01*
X62878196Y-78721000D01*
X62753177Y-78708687D01*
X62592758Y-78660024D01*
X62444924Y-78581005D01*
X62444922Y-78581004D01*
X62315341Y-78474659D01*
X62208996Y-78345078D01*
X62130916Y-78199000D01*
X62129976Y-78197242D01*
X62081313Y-78036823D01*
X62064883Y-77870000D01*
X62081313Y-77703177D01*
X62129976Y-77542758D01*
X62208995Y-77394924D01*
X62208996Y-77394922D01*
X62315341Y-77265341D01*
X62444922Y-77158996D01*
X62460094Y-77150886D01*
X62592758Y-77079976D01*
X62753177Y-77031313D01*
X62878196Y-77019000D01*
X62961804Y-77019000D01*
X63086823Y-77031313D01*
X63086823Y-77031313D01*
G37*
G36*
X68166823Y-77031313D02*
G01*
X68327242Y-77079976D01*
X68459906Y-77150886D01*
X68475078Y-77158996D01*
X68604659Y-77265341D01*
X68711004Y-77394922D01*
X68711005Y-77394924D01*
X68790024Y-77542758D01*
X68838687Y-77703177D01*
X68855117Y-77870000D01*
X68838687Y-78036823D01*
X68790024Y-78197242D01*
X68789084Y-78199000D01*
X68711004Y-78345078D01*
X68604659Y-78474659D01*
X68475078Y-78581004D01*
X68475076Y-78581005D01*
X68327242Y-78660024D01*
X68166823Y-78708687D01*
X68041804Y-78721000D01*
X67958196Y-78721000D01*
X67833177Y-78708687D01*
X67672758Y-78660024D01*
X67524924Y-78581005D01*
X67524922Y-78581004D01*
X67395341Y-78474659D01*
X67288996Y-78345078D01*
X67210916Y-78199000D01*
X67209976Y-78197242D01*
X67161313Y-78036823D01*
X67144883Y-77870000D01*
X67161313Y-77703177D01*
X67209976Y-77542758D01*
X67288995Y-77394924D01*
X67288996Y-77394922D01*
X67395341Y-77265341D01*
X67524922Y-77158996D01*
X67540094Y-77150886D01*
X67672758Y-77079976D01*
X67833177Y-77031313D01*
X67958196Y-77019000D01*
X68041804Y-77019000D01*
X68166823Y-77031313D01*
X68166823Y-77031313D01*
G37*
G36*
X72838674Y-76403465D02*
G01*
X72876367Y-76414899D01*
X72911103Y-76433466D01*
X72941548Y-76458452D01*
X72966534Y-76488897D01*
X72985101Y-76523633D01*
X72996535Y-76561326D01*
X73001000Y-76606661D01*
X73001000Y-77443339D01*
X72996535Y-77488674D01*
X72985101Y-77526367D01*
X72966534Y-77561103D01*
X72941548Y-77591548D01*
X72911103Y-77616534D01*
X72876367Y-77635101D01*
X72838674Y-77646535D01*
X72793339Y-77651000D01*
X71706661Y-77651000D01*
X71661326Y-77646535D01*
X71623633Y-77635101D01*
X71588897Y-77616534D01*
X71558452Y-77591548D01*
X71533466Y-77561103D01*
X71514899Y-77526367D01*
X71503465Y-77488674D01*
X71499000Y-77443339D01*
X71499000Y-76606661D01*
X71503465Y-76561326D01*
X71514899Y-76523633D01*
X71533466Y-76488897D01*
X71558452Y-76458452D01*
X71588897Y-76433466D01*
X71623633Y-76414899D01*
X71661326Y-76403465D01*
X71706661Y-76399000D01*
X72793339Y-76399000D01*
X72838674Y-76403465D01*
X72838674Y-76403465D01*
G37*
G36*
X105302585Y-73148802D02*
G01*
X105452410Y-73178604D01*
X105734674Y-73295521D01*
X105988705Y-73465259D01*
X106204741Y-73681295D01*
X106374479Y-73935326D01*
X106491396Y-74217590D01*
X106491396Y-74217591D01*
X106544659Y-74485359D01*
X106551000Y-74517240D01*
X106551000Y-74822760D01*
X106491396Y-75122410D01*
X106374479Y-75404674D01*
X106204741Y-75658705D01*
X105988705Y-75874741D01*
X105734674Y-76044479D01*
X105452410Y-76161396D01*
X105302585Y-76191198D01*
X105152761Y-76221000D01*
X104847239Y-76221000D01*
X104697415Y-76191198D01*
X104547590Y-76161396D01*
X104265326Y-76044479D01*
X104011295Y-75874741D01*
X103795259Y-75658705D01*
X103625521Y-75404674D01*
X103508604Y-75122410D01*
X103449000Y-74822760D01*
X103449000Y-74517240D01*
X103455342Y-74485359D01*
X103508604Y-74217591D01*
X103508604Y-74217590D01*
X103625521Y-73935326D01*
X103795259Y-73681295D01*
X104011295Y-73465259D01*
X104265326Y-73295521D01*
X104547590Y-73178604D01*
X104697415Y-73148802D01*
X104847239Y-73119000D01*
X105152761Y-73119000D01*
X105302585Y-73148802D01*
X105302585Y-73148802D01*
G37*
G36*
X94302585Y-72898802D02*
G01*
X94452410Y-72928604D01*
X94734674Y-73045521D01*
X94988705Y-73215259D01*
X95204741Y-73431295D01*
X95374479Y-73685326D01*
X95491396Y-73967590D01*
X95551000Y-74267240D01*
X95551000Y-74572760D01*
X95491396Y-74872410D01*
X95374479Y-75154674D01*
X95204741Y-75408705D01*
X94988705Y-75624741D01*
X94734674Y-75794479D01*
X94452410Y-75911396D01*
X94302585Y-75941198D01*
X94152761Y-75971000D01*
X93847239Y-75971000D01*
X93697415Y-75941198D01*
X93547590Y-75911396D01*
X93265326Y-75794479D01*
X93011295Y-75624741D01*
X92795259Y-75408705D01*
X92625521Y-75154674D01*
X92508604Y-74872410D01*
X92449000Y-74572760D01*
X92449000Y-74267240D01*
X92508604Y-73967590D01*
X92625521Y-73685326D01*
X92795259Y-73431295D01*
X93011295Y-73215259D01*
X93265326Y-73045521D01*
X93547590Y-72928604D01*
X93697415Y-72898802D01*
X93847239Y-72869000D01*
X94152761Y-72869000D01*
X94302585Y-72898802D01*
X94302585Y-72898802D01*
G37*
G36*
X54552585Y-72558802D02*
G01*
X54702410Y-72588604D01*
X54984674Y-72705521D01*
X55238705Y-72875259D01*
X55454741Y-73091295D01*
X55624479Y-73345326D01*
X55741396Y-73627590D01*
X55752079Y-73681296D01*
X55801000Y-73927239D01*
X55801000Y-74232761D01*
X55776990Y-74353465D01*
X55741396Y-74532410D01*
X55624479Y-74814674D01*
X55454741Y-75068705D01*
X55238705Y-75284741D01*
X54984674Y-75454479D01*
X54702410Y-75571396D01*
X54553580Y-75601000D01*
X54402761Y-75631000D01*
X54097239Y-75631000D01*
X53946420Y-75601000D01*
X53797590Y-75571396D01*
X53515326Y-75454479D01*
X53261295Y-75284741D01*
X53045259Y-75068705D01*
X52875521Y-74814674D01*
X52758604Y-74532410D01*
X52723010Y-74353465D01*
X52699000Y-74232761D01*
X52699000Y-73927239D01*
X52747921Y-73681296D01*
X52758604Y-73627590D01*
X52875521Y-73345326D01*
X53045259Y-73091295D01*
X53261295Y-72875259D01*
X53515326Y-72705521D01*
X53797590Y-72588604D01*
X53947415Y-72558802D01*
X54097239Y-72529000D01*
X54402761Y-72529000D01*
X54552585Y-72558802D01*
X54552585Y-72558802D01*
G37*
G36*
X72838674Y-74353465D02*
G01*
X72876367Y-74364899D01*
X72911103Y-74383466D01*
X72941548Y-74408452D01*
X72966534Y-74438897D01*
X72985101Y-74473633D01*
X72996535Y-74511326D01*
X73001000Y-74556661D01*
X73001000Y-75393339D01*
X72996535Y-75438674D01*
X72985101Y-75476367D01*
X72966534Y-75511103D01*
X72941548Y-75541548D01*
X72911103Y-75566534D01*
X72876367Y-75585101D01*
X72838674Y-75596535D01*
X72793339Y-75601000D01*
X71706661Y-75601000D01*
X71661326Y-75596535D01*
X71623633Y-75585101D01*
X71588897Y-75566534D01*
X71558452Y-75541548D01*
X71533466Y-75511103D01*
X71514899Y-75476367D01*
X71503465Y-75438674D01*
X71499000Y-75393339D01*
X71499000Y-74556661D01*
X71503465Y-74511326D01*
X71514899Y-74473633D01*
X71533466Y-74438897D01*
X71558452Y-74408452D01*
X71588897Y-74383466D01*
X71623633Y-74364899D01*
X71661326Y-74353465D01*
X71706661Y-74349000D01*
X72793339Y-74349000D01*
X72838674Y-74353465D01*
X72838674Y-74353465D01*
G37*
G36*
X146171934Y-70502671D02*
G01*
X146201877Y-70511754D01*
X146229465Y-70526500D01*
X146253651Y-70546349D01*
X146273500Y-70570535D01*
X146288246Y-70598123D01*
X146297329Y-70628066D01*
X146301000Y-70665340D01*
X146301000Y-74434660D01*
X146297329Y-74471934D01*
X146288246Y-74501877D01*
X146273500Y-74529465D01*
X146253651Y-74553651D01*
X146229465Y-74573500D01*
X146201877Y-74588246D01*
X146171934Y-74597329D01*
X146134660Y-74601000D01*
X143865340Y-74601000D01*
X143828066Y-74597329D01*
X143798123Y-74588246D01*
X143770535Y-74573500D01*
X143746349Y-74553651D01*
X143726500Y-74529465D01*
X143711754Y-74501877D01*
X143702671Y-74471934D01*
X143699000Y-74434660D01*
X143699000Y-70665340D01*
X143702671Y-70628066D01*
X143711754Y-70598123D01*
X143726500Y-70570535D01*
X143746349Y-70546349D01*
X143770535Y-70526500D01*
X143798123Y-70511754D01*
X143828066Y-70502671D01*
X143865340Y-70499000D01*
X146134660Y-70499000D01*
X146171934Y-70502671D01*
X146171934Y-70502671D01*
G37*
G36*
X131171934Y-70502671D02*
G01*
X131201877Y-70511754D01*
X131229465Y-70526500D01*
X131253651Y-70546349D01*
X131273500Y-70570535D01*
X131288246Y-70598123D01*
X131297329Y-70628066D01*
X131301000Y-70665340D01*
X131301000Y-74434660D01*
X131297329Y-74471934D01*
X131288246Y-74501877D01*
X131273500Y-74529465D01*
X131253651Y-74553651D01*
X131229465Y-74573500D01*
X131201877Y-74588246D01*
X131171934Y-74597329D01*
X131134660Y-74601000D01*
X128865340Y-74601000D01*
X128828066Y-74597329D01*
X128798123Y-74588246D01*
X128770535Y-74573500D01*
X128746349Y-74553651D01*
X128726500Y-74529465D01*
X128711754Y-74501877D01*
X128702671Y-74471934D01*
X128699000Y-74434660D01*
X128699000Y-70665340D01*
X128702671Y-70628066D01*
X128711754Y-70598123D01*
X128726500Y-70570535D01*
X128746349Y-70546349D01*
X128770535Y-70526500D01*
X128798123Y-70511754D01*
X128828066Y-70502671D01*
X128865340Y-70499000D01*
X131134660Y-70499000D01*
X131171934Y-70502671D01*
X131171934Y-70502671D01*
G37*
G36*
X72838674Y-72403465D02*
G01*
X72876367Y-72414899D01*
X72911103Y-72433466D01*
X72941548Y-72458452D01*
X72966534Y-72488897D01*
X72985101Y-72523633D01*
X72996535Y-72561326D01*
X73001000Y-72606661D01*
X73001000Y-73443339D01*
X72996535Y-73488674D01*
X72985101Y-73526367D01*
X72966534Y-73561103D01*
X72941548Y-73591548D01*
X72911103Y-73616534D01*
X72876367Y-73635101D01*
X72838674Y-73646535D01*
X72793339Y-73651000D01*
X71706661Y-73651000D01*
X71661326Y-73646535D01*
X71623633Y-73635101D01*
X71588897Y-73616534D01*
X71558452Y-73591548D01*
X71533466Y-73561103D01*
X71514899Y-73526367D01*
X71503465Y-73488674D01*
X71499000Y-73443339D01*
X71499000Y-72606661D01*
X71503465Y-72561326D01*
X71514899Y-72523633D01*
X71533466Y-72488897D01*
X71558452Y-72458452D01*
X71588897Y-72433466D01*
X71623633Y-72414899D01*
X71661326Y-72403465D01*
X71706661Y-72399000D01*
X72793339Y-72399000D01*
X72838674Y-72403465D01*
X72838674Y-72403465D01*
G37*
G36*
X116364903Y-69297075D02*
G01*
X116592571Y-69391378D01*
X116797466Y-69528285D01*
X116971715Y-69702534D01*
X117108622Y-69907429D01*
X117108623Y-69907431D01*
X117202925Y-70135097D01*
X117251000Y-70376786D01*
X117251000Y-70623214D01*
X117234048Y-70708437D01*
X117202925Y-70864903D01*
X117108622Y-71092571D01*
X116971715Y-71297466D01*
X116797466Y-71471715D01*
X116592571Y-71608622D01*
X116592570Y-71608623D01*
X116592569Y-71608623D01*
X116364903Y-71702925D01*
X116123214Y-71751000D01*
X115876786Y-71751000D01*
X115635097Y-71702925D01*
X115407431Y-71608623D01*
X115407430Y-71608623D01*
X115407429Y-71608622D01*
X115202534Y-71471715D01*
X115028285Y-71297466D01*
X114891378Y-71092571D01*
X114797075Y-70864903D01*
X114765952Y-70708437D01*
X114749000Y-70623214D01*
X114749000Y-70376786D01*
X114797075Y-70135097D01*
X114891377Y-69907431D01*
X114891378Y-69907429D01*
X115028285Y-69702534D01*
X115202534Y-69528285D01*
X115407429Y-69391378D01*
X115635097Y-69297075D01*
X115876786Y-69249000D01*
X116123214Y-69249000D01*
X116364903Y-69297075D01*
X116364903Y-69297075D01*
G37*
G36*
X72838674Y-70353465D02*
G01*
X72876367Y-70364899D01*
X72911103Y-70383466D01*
X72941548Y-70408452D01*
X72966534Y-70438897D01*
X72985101Y-70473633D01*
X72996535Y-70511326D01*
X73001000Y-70556661D01*
X73001000Y-71393339D01*
X72996535Y-71438674D01*
X72985101Y-71476367D01*
X72966534Y-71511103D01*
X72941548Y-71541548D01*
X72911103Y-71566534D01*
X72876367Y-71585101D01*
X72838674Y-71596535D01*
X72793339Y-71601000D01*
X71706661Y-71601000D01*
X71661326Y-71596535D01*
X71623633Y-71585101D01*
X71588897Y-71566534D01*
X71558452Y-71541548D01*
X71533466Y-71511103D01*
X71514899Y-71476367D01*
X71503465Y-71438674D01*
X71499000Y-71393339D01*
X71499000Y-70556661D01*
X71503465Y-70511326D01*
X71514899Y-70473633D01*
X71533466Y-70438897D01*
X71558452Y-70408452D01*
X71588897Y-70383466D01*
X71623633Y-70364899D01*
X71661326Y-70353465D01*
X71706661Y-70349000D01*
X72793339Y-70349000D01*
X72838674Y-70353465D01*
X72838674Y-70353465D01*
G37*
G36*
X105302585Y-68068802D02*
G01*
X105452410Y-68098604D01*
X105734674Y-68215521D01*
X105988705Y-68385259D01*
X106204741Y-68601295D01*
X106374479Y-68855326D01*
X106485441Y-69123214D01*
X106491396Y-69137591D01*
X106541878Y-69391378D01*
X106551000Y-69437240D01*
X106551000Y-69742760D01*
X106491396Y-70042410D01*
X106374479Y-70324674D01*
X106204741Y-70578705D01*
X105988705Y-70794741D01*
X105734674Y-70964479D01*
X105452410Y-71081396D01*
X105396239Y-71092569D01*
X105152761Y-71141000D01*
X104847239Y-71141000D01*
X104603761Y-71092569D01*
X104547590Y-71081396D01*
X104265326Y-70964479D01*
X104011295Y-70794741D01*
X103795259Y-70578705D01*
X103625521Y-70324674D01*
X103508604Y-70042410D01*
X103449000Y-69742760D01*
X103449000Y-69437240D01*
X103458123Y-69391378D01*
X103508604Y-69137591D01*
X103514559Y-69123214D01*
X103625521Y-68855326D01*
X103795259Y-68601295D01*
X104011295Y-68385259D01*
X104265326Y-68215521D01*
X104547590Y-68098604D01*
X104697415Y-68068802D01*
X104847239Y-68039000D01*
X105152761Y-68039000D01*
X105302585Y-68068802D01*
X105302585Y-68068802D01*
G37*
G36*
X63086823Y-69411313D02*
G01*
X63247242Y-69459976D01*
X63308576Y-69492760D01*
X63395078Y-69538996D01*
X63524659Y-69645341D01*
X63631004Y-69774922D01*
X63631005Y-69774924D01*
X63710024Y-69922758D01*
X63758687Y-70083177D01*
X63775117Y-70250000D01*
X63758687Y-70416823D01*
X63720456Y-70542852D01*
X63717985Y-70551000D01*
X63710024Y-70577242D01*
X63639899Y-70708437D01*
X63631004Y-70725078D01*
X63524659Y-70854659D01*
X63395078Y-70961004D01*
X63395076Y-70961005D01*
X63247242Y-71040024D01*
X63086823Y-71088687D01*
X62961804Y-71101000D01*
X62878196Y-71101000D01*
X62753177Y-71088687D01*
X62592758Y-71040024D01*
X62444924Y-70961005D01*
X62444922Y-70961004D01*
X62315341Y-70854659D01*
X62208996Y-70725078D01*
X62200101Y-70708437D01*
X62129976Y-70577242D01*
X62122016Y-70551000D01*
X62119544Y-70542852D01*
X62081313Y-70416823D01*
X62064883Y-70250000D01*
X62081313Y-70083177D01*
X62129976Y-69922758D01*
X62208995Y-69774924D01*
X62208996Y-69774922D01*
X62315341Y-69645341D01*
X62444922Y-69538996D01*
X62531424Y-69492760D01*
X62592758Y-69459976D01*
X62753177Y-69411313D01*
X62878196Y-69399000D01*
X62961804Y-69399000D01*
X63086823Y-69411313D01*
X63086823Y-69411313D01*
G37*
G36*
X68851000Y-71101000D02*
G01*
X67149000Y-71101000D01*
X67149000Y-69399000D01*
X68851000Y-69399000D01*
X68851000Y-71101000D01*
X68851000Y-71101000D01*
G37*
G36*
X94302585Y-67818802D02*
G01*
X94452410Y-67848604D01*
X94734674Y-67965521D01*
X94988705Y-68135259D01*
X95204741Y-68351295D01*
X95374479Y-68605326D01*
X95486921Y-68876787D01*
X95491396Y-68887591D01*
X95538265Y-69123214D01*
X95551000Y-69187240D01*
X95551000Y-69492760D01*
X95491396Y-69792410D01*
X95374479Y-70074674D01*
X95204741Y-70328705D01*
X94988705Y-70544741D01*
X94734674Y-70714479D01*
X94452410Y-70831396D01*
X94335459Y-70854659D01*
X94152761Y-70891000D01*
X93847239Y-70891000D01*
X93664541Y-70854659D01*
X93547590Y-70831396D01*
X93265326Y-70714479D01*
X93011295Y-70544741D01*
X92795259Y-70328705D01*
X92625521Y-70074674D01*
X92508604Y-69792410D01*
X92449000Y-69492760D01*
X92449000Y-69187240D01*
X92461736Y-69123214D01*
X92508604Y-68887591D01*
X92513079Y-68876787D01*
X92625521Y-68605326D01*
X92795259Y-68351295D01*
X93011295Y-68135259D01*
X93265326Y-67965521D01*
X93547590Y-67848604D01*
X93697415Y-67818802D01*
X93847239Y-67789000D01*
X94152761Y-67789000D01*
X94302585Y-67818802D01*
X94302585Y-67818802D01*
G37*
G36*
X55801000Y-70551000D02*
G01*
X52699000Y-70551000D01*
X52699000Y-67449000D01*
X55801000Y-67449000D01*
X55801000Y-70551000D01*
X55801000Y-70551000D01*
G37*
G36*
X81324307Y-67789000D02*
G01*
X81364903Y-67797075D01*
X81592571Y-67891378D01*
X81797466Y-68028285D01*
X81971715Y-68202534D01*
X82059999Y-68334660D01*
X82108623Y-68407431D01*
X82202925Y-68635097D01*
X82251000Y-68876786D01*
X82251000Y-69123214D01*
X82202925Y-69364903D01*
X82130814Y-69538996D01*
X82108622Y-69592571D01*
X81971715Y-69797466D01*
X81797466Y-69971715D01*
X81592571Y-70108622D01*
X81592570Y-70108623D01*
X81592569Y-70108623D01*
X81364903Y-70202925D01*
X81123214Y-70251000D01*
X80876786Y-70251000D01*
X80635097Y-70202925D01*
X80407431Y-70108623D01*
X80407430Y-70108623D01*
X80407429Y-70108622D01*
X80202534Y-69971715D01*
X80028285Y-69797466D01*
X79891378Y-69592571D01*
X79869187Y-69538996D01*
X79797075Y-69364903D01*
X79749000Y-69123214D01*
X79749000Y-68876786D01*
X79797075Y-68635097D01*
X79891377Y-68407431D01*
X79940001Y-68334660D01*
X80028285Y-68202534D01*
X80202534Y-68028285D01*
X80407429Y-67891378D01*
X80635097Y-67797075D01*
X80675693Y-67789000D01*
X80876786Y-67749000D01*
X81123214Y-67749000D01*
X81324307Y-67789000D01*
X81324307Y-67789000D01*
G37*
G36*
X146171934Y-64402671D02*
G01*
X146201877Y-64411754D01*
X146229465Y-64426500D01*
X146253651Y-64446349D01*
X146273500Y-64470535D01*
X146288246Y-64498123D01*
X146297329Y-64528066D01*
X146301000Y-64565340D01*
X146301000Y-68334660D01*
X146297329Y-68371934D01*
X146288246Y-68401877D01*
X146273500Y-68429465D01*
X146253651Y-68453651D01*
X146229465Y-68473500D01*
X146201877Y-68488246D01*
X146171934Y-68497329D01*
X146134660Y-68501000D01*
X143865340Y-68501000D01*
X143828066Y-68497329D01*
X143798123Y-68488246D01*
X143770535Y-68473500D01*
X143746349Y-68453651D01*
X143726500Y-68429465D01*
X143711754Y-68401877D01*
X143702671Y-68371934D01*
X143699000Y-68334660D01*
X143699000Y-64565340D01*
X143702671Y-64528066D01*
X143711754Y-64498123D01*
X143726500Y-64470535D01*
X143746349Y-64446349D01*
X143770535Y-64426500D01*
X143798123Y-64411754D01*
X143828066Y-64402671D01*
X143865340Y-64399000D01*
X146134660Y-64399000D01*
X146171934Y-64402671D01*
X146171934Y-64402671D01*
G37*
G36*
X131171934Y-64402671D02*
G01*
X131201877Y-64411754D01*
X131229465Y-64426500D01*
X131253651Y-64446349D01*
X131273500Y-64470535D01*
X131288246Y-64498123D01*
X131297329Y-64528066D01*
X131301000Y-64565340D01*
X131301000Y-68334660D01*
X131297329Y-68371934D01*
X131288246Y-68401877D01*
X131273500Y-68429465D01*
X131253651Y-68453651D01*
X131229465Y-68473500D01*
X131201877Y-68488246D01*
X131171934Y-68497329D01*
X131134660Y-68501000D01*
X128865340Y-68501000D01*
X128828066Y-68497329D01*
X128798123Y-68488246D01*
X128770535Y-68473500D01*
X128746349Y-68453651D01*
X128726500Y-68429465D01*
X128711754Y-68401877D01*
X128702671Y-68371934D01*
X128699000Y-68334660D01*
X128699000Y-64565340D01*
X128702671Y-64528066D01*
X128711754Y-64498123D01*
X128726500Y-64470535D01*
X128746349Y-64446349D01*
X128770535Y-64426500D01*
X128798123Y-64411754D01*
X128828066Y-64402671D01*
X128865340Y-64399000D01*
X131134660Y-64399000D01*
X131171934Y-64402671D01*
X131171934Y-64402671D01*
G37*
G36*
X117251000Y-66751000D02*
G01*
X114749000Y-66751000D01*
X114749000Y-64249000D01*
X117251000Y-64249000D01*
X117251000Y-66751000D01*
X117251000Y-66751000D01*
G37*
G36*
X82251000Y-65251000D02*
G01*
X79749000Y-65251000D01*
X79749000Y-62749000D01*
X82251000Y-62749000D01*
X82251000Y-65251000D01*
X82251000Y-65251000D01*
G37*
G36*
X71463674Y-63253465D02*
G01*
X71501367Y-63264899D01*
X71536103Y-63283466D01*
X71566548Y-63308452D01*
X71591534Y-63338897D01*
X71610101Y-63373633D01*
X71621535Y-63411326D01*
X71626000Y-63456661D01*
X71626000Y-64543339D01*
X71621535Y-64588674D01*
X71610101Y-64626367D01*
X71591534Y-64661103D01*
X71566548Y-64691548D01*
X71536103Y-64716534D01*
X71501367Y-64735101D01*
X71463674Y-64746535D01*
X71418339Y-64751000D01*
X70581661Y-64751000D01*
X70536326Y-64746535D01*
X70498633Y-64735101D01*
X70463897Y-64716534D01*
X70433452Y-64691548D01*
X70408466Y-64661103D01*
X70389899Y-64626367D01*
X70378465Y-64588674D01*
X70374000Y-64543339D01*
X70374000Y-63456661D01*
X70378465Y-63411326D01*
X70389899Y-63373633D01*
X70408466Y-63338897D01*
X70433452Y-63308452D01*
X70463897Y-63283466D01*
X70498633Y-63264899D01*
X70536326Y-63253465D01*
X70581661Y-63249000D01*
X71418339Y-63249000D01*
X71463674Y-63253465D01*
X71463674Y-63253465D01*
G37*
G36*
X73513674Y-63253465D02*
G01*
X73551367Y-63264899D01*
X73586103Y-63283466D01*
X73616548Y-63308452D01*
X73641534Y-63338897D01*
X73660101Y-63373633D01*
X73671535Y-63411326D01*
X73676000Y-63456661D01*
X73676000Y-64543339D01*
X73671535Y-64588674D01*
X73660101Y-64626367D01*
X73641534Y-64661103D01*
X73616548Y-64691548D01*
X73586103Y-64716534D01*
X73551367Y-64735101D01*
X73513674Y-64746535D01*
X73468339Y-64751000D01*
X72631661Y-64751000D01*
X72586326Y-64746535D01*
X72548633Y-64735101D01*
X72513897Y-64716534D01*
X72483452Y-64691548D01*
X72458466Y-64661103D01*
X72439899Y-64626367D01*
X72428465Y-64588674D01*
X72424000Y-64543339D01*
X72424000Y-63456661D01*
X72428465Y-63411326D01*
X72439899Y-63373633D01*
X72458466Y-63338897D01*
X72483452Y-63308452D01*
X72513897Y-63283466D01*
X72548633Y-63264899D01*
X72586326Y-63253465D01*
X72631661Y-63249000D01*
X73468339Y-63249000D01*
X73513674Y-63253465D01*
X73513674Y-63253465D01*
G37*
G36*
X147027395Y-61125546D02*
G01*
X147200466Y-61197234D01*
X147200467Y-61197235D01*
X147356227Y-61301310D01*
X147488690Y-61433773D01*
X147488691Y-61433775D01*
X147592766Y-61589534D01*
X147664454Y-61762605D01*
X147701000Y-61946333D01*
X147701000Y-62133667D01*
X147664454Y-62317395D01*
X147592766Y-62490466D01*
X147592765Y-62490467D01*
X147488690Y-62646227D01*
X147356227Y-62778690D01*
X147277818Y-62831081D01*
X147200466Y-62882766D01*
X147027395Y-62954454D01*
X146843667Y-62991000D01*
X146656333Y-62991000D01*
X146472605Y-62954454D01*
X146299534Y-62882766D01*
X146222182Y-62831081D01*
X146143773Y-62778690D01*
X146011310Y-62646227D01*
X145907235Y-62490467D01*
X145907234Y-62490466D01*
X145835546Y-62317395D01*
X145799000Y-62133667D01*
X145799000Y-61946333D01*
X145835546Y-61762605D01*
X145907234Y-61589534D01*
X146011309Y-61433775D01*
X146011310Y-61433773D01*
X146143773Y-61301310D01*
X146299533Y-61197235D01*
X146299534Y-61197234D01*
X146472605Y-61125546D01*
X146656333Y-61089000D01*
X146843667Y-61089000D01*
X147027395Y-61125546D01*
X147027395Y-61125546D01*
G37*
G36*
X104994098Y-56047033D02*
G01*
X105458350Y-56239332D01*
X105458352Y-56239333D01*
X105876168Y-56518509D01*
X106231491Y-56873832D01*
X106510667Y-57291648D01*
X106510668Y-57291650D01*
X106702967Y-57755902D01*
X106801000Y-58248747D01*
X106801000Y-58751253D01*
X106702967Y-59244098D01*
X106583961Y-59531405D01*
X106510667Y-59708352D01*
X106231491Y-60126168D01*
X105876168Y-60481491D01*
X105458352Y-60760667D01*
X105458351Y-60760668D01*
X105458350Y-60760668D01*
X104994098Y-60952967D01*
X104501253Y-61051000D01*
X103998747Y-61051000D01*
X103505902Y-60952967D01*
X103041650Y-60760668D01*
X103041649Y-60760668D01*
X103041648Y-60760667D01*
X102623832Y-60481491D01*
X102268509Y-60126168D01*
X101989333Y-59708352D01*
X101916039Y-59531405D01*
X101797033Y-59244098D01*
X101699000Y-58751253D01*
X101699000Y-58248747D01*
X101797033Y-57755902D01*
X101989332Y-57291650D01*
X101989333Y-57291648D01*
X102268509Y-56873832D01*
X102623832Y-56518509D01*
X103041648Y-56239333D01*
X103041650Y-56239332D01*
X103505902Y-56047033D01*
X103998747Y-55949000D01*
X104501253Y-55949000D01*
X104994098Y-56047033D01*
X104994098Y-56047033D01*
G37*
G36*
X140744098Y-56047033D02*
G01*
X141208350Y-56239332D01*
X141208352Y-56239333D01*
X141626168Y-56518509D01*
X141981491Y-56873832D01*
X142260667Y-57291648D01*
X142260668Y-57291650D01*
X142452967Y-57755902D01*
X142551000Y-58248747D01*
X142551000Y-58751253D01*
X142452967Y-59244098D01*
X142333961Y-59531405D01*
X142260667Y-59708352D01*
X141981491Y-60126168D01*
X141626168Y-60481491D01*
X141208352Y-60760667D01*
X141208351Y-60760668D01*
X141208350Y-60760668D01*
X140744098Y-60952967D01*
X140251253Y-61051000D01*
X139748747Y-61051000D01*
X139255902Y-60952967D01*
X138791650Y-60760668D01*
X138791649Y-60760668D01*
X138791648Y-60760667D01*
X138373832Y-60481491D01*
X138018509Y-60126168D01*
X137739333Y-59708352D01*
X137666039Y-59531405D01*
X137547033Y-59244098D01*
X137449000Y-58751253D01*
X137449000Y-58248747D01*
X137547033Y-57755902D01*
X137739332Y-57291650D01*
X137739333Y-57291648D01*
X138018509Y-56873832D01*
X138373832Y-56518509D01*
X138791648Y-56239333D01*
X138791650Y-56239332D01*
X139255902Y-56047033D01*
X139748747Y-55949000D01*
X140251253Y-55949000D01*
X140744098Y-56047033D01*
X140744098Y-56047033D01*
G37*
G36*
X89994098Y-56047033D02*
G01*
X90458350Y-56239332D01*
X90458352Y-56239333D01*
X90876168Y-56518509D01*
X91231491Y-56873832D01*
X91510667Y-57291648D01*
X91510668Y-57291650D01*
X91702967Y-57755902D01*
X91801000Y-58248747D01*
X91801000Y-58751253D01*
X91702967Y-59244098D01*
X91583961Y-59531405D01*
X91510667Y-59708352D01*
X91231491Y-60126168D01*
X90876168Y-60481491D01*
X90458352Y-60760667D01*
X90458351Y-60760668D01*
X90458350Y-60760668D01*
X89994098Y-60952967D01*
X89501253Y-61051000D01*
X88998747Y-61051000D01*
X88505902Y-60952967D01*
X88041650Y-60760668D01*
X88041649Y-60760668D01*
X88041648Y-60760667D01*
X87623832Y-60481491D01*
X87268509Y-60126168D01*
X86989333Y-59708352D01*
X86916039Y-59531405D01*
X86797033Y-59244098D01*
X86699000Y-58751253D01*
X86699000Y-58248747D01*
X86797033Y-57755902D01*
X86989332Y-57291650D01*
X86989333Y-57291648D01*
X87268509Y-56873832D01*
X87623832Y-56518509D01*
X88041648Y-56239333D01*
X88041650Y-56239332D01*
X88505902Y-56047033D01*
X88998747Y-55949000D01*
X89501253Y-55949000D01*
X89994098Y-56047033D01*
X89994098Y-56047033D01*
G37*
G36*
X55244098Y-55797033D02*
G01*
X55708350Y-55989332D01*
X55708352Y-55989333D01*
X56126168Y-56268509D01*
X56481491Y-56623832D01*
X56674370Y-56912496D01*
X56760668Y-57041650D01*
X56952967Y-57505902D01*
X57051000Y-57998747D01*
X57051000Y-58501253D01*
X56952967Y-58994098D01*
X56849414Y-59244098D01*
X56760667Y-59458352D01*
X56481491Y-59876168D01*
X56126168Y-60231491D01*
X55708352Y-60510667D01*
X55708351Y-60510668D01*
X55708350Y-60510668D01*
X55244098Y-60702967D01*
X54751253Y-60801000D01*
X54248747Y-60801000D01*
X53755902Y-60702967D01*
X53291650Y-60510668D01*
X53291649Y-60510668D01*
X53291648Y-60510667D01*
X52873832Y-60231491D01*
X52518509Y-59876168D01*
X52239333Y-59458352D01*
X52150586Y-59244098D01*
X52047033Y-58994098D01*
X51949000Y-58501253D01*
X51949000Y-57998747D01*
X52047033Y-57505902D01*
X52239332Y-57041650D01*
X52325630Y-56912496D01*
X52518509Y-56623832D01*
X52873832Y-56268509D01*
X53291648Y-55989333D01*
X53291650Y-55989332D01*
X53755902Y-55797033D01*
X54248747Y-55699000D01*
X54751253Y-55699000D01*
X55244098Y-55797033D01*
X55244098Y-55797033D01*
G37*
G36*
X147701000Y-60451000D02*
G01*
X145799000Y-60451000D01*
X145799000Y-58549000D01*
X147701000Y-58549000D01*
X147701000Y-60451000D01*
X147701000Y-60451000D01*
G37*
M02*
