%TF.GenerationSoftware,KiCad,Pcbnew,(5.1.0)-1*%
%TF.CreationDate,2019-10-03T23:56:52+02:00*%
%TF.ProjectId,KicadJE_RIAA,4b696361-644a-4455-9f52-4941412e6b69,rev?*%
%TF.SameCoordinates,Original*%
%TF.FileFunction,Paste,Top*%
%TF.FilePolarity,Positive*%
%FSLAX46Y46*%
G04 Gerber Fmt 4.6, Leading zero omitted, Abs format (unit mm)*
G04 Created by KiCad (PCBNEW (5.1.0)-1) date 2019-10-03 23:56:52*
%MOMM*%
%LPD*%
G04 APERTURE LIST*
%ADD10C,1.000000*%
%ADD11C,0.050000*%
%ADD12C,0.150000*%
%ADD13C,2.500000*%
%ADD14C,1.150000*%
%ADD15R,1.900000X0.800000*%
G04 APERTURE END LIST*
D10*
X99000000Y-138500000D02*
X100000000Y-138500000D01*
X99000000Y-82250000D02*
X99000000Y-138500000D01*
X100000000Y-82250000D02*
X99000000Y-82250000D01*
X100000000Y-138500000D02*
X100000000Y-82250000D01*
D11*
X50000000Y-145500000D02*
X50000000Y-53750000D01*
X150000000Y-145500000D02*
X50000000Y-145500000D01*
X150000000Y-53750000D02*
X150000000Y-145500000D01*
X50000000Y-53750000D02*
X150000000Y-53750000D01*
D12*
G36*
X131024504Y-70551204D02*
G01*
X131048773Y-70554804D01*
X131072571Y-70560765D01*
X131095671Y-70569030D01*
X131117849Y-70579520D01*
X131138893Y-70592133D01*
X131158598Y-70606747D01*
X131176777Y-70623223D01*
X131193253Y-70641402D01*
X131207867Y-70661107D01*
X131220480Y-70682151D01*
X131230970Y-70704329D01*
X131239235Y-70727429D01*
X131245196Y-70751227D01*
X131248796Y-70775496D01*
X131250000Y-70800000D01*
X131250000Y-74300000D01*
X131248796Y-74324504D01*
X131245196Y-74348773D01*
X131239235Y-74372571D01*
X131230970Y-74395671D01*
X131220480Y-74417849D01*
X131207867Y-74438893D01*
X131193253Y-74458598D01*
X131176777Y-74476777D01*
X131158598Y-74493253D01*
X131138893Y-74507867D01*
X131117849Y-74520480D01*
X131095671Y-74530970D01*
X131072571Y-74539235D01*
X131048773Y-74545196D01*
X131024504Y-74548796D01*
X131000000Y-74550000D01*
X129000000Y-74550000D01*
X128975496Y-74548796D01*
X128951227Y-74545196D01*
X128927429Y-74539235D01*
X128904329Y-74530970D01*
X128882151Y-74520480D01*
X128861107Y-74507867D01*
X128841402Y-74493253D01*
X128823223Y-74476777D01*
X128806747Y-74458598D01*
X128792133Y-74438893D01*
X128779520Y-74417849D01*
X128769030Y-74395671D01*
X128760765Y-74372571D01*
X128754804Y-74348773D01*
X128751204Y-74324504D01*
X128750000Y-74300000D01*
X128750000Y-70800000D01*
X128751204Y-70775496D01*
X128754804Y-70751227D01*
X128760765Y-70727429D01*
X128769030Y-70704329D01*
X128779520Y-70682151D01*
X128792133Y-70661107D01*
X128806747Y-70641402D01*
X128823223Y-70623223D01*
X128841402Y-70606747D01*
X128861107Y-70592133D01*
X128882151Y-70579520D01*
X128904329Y-70569030D01*
X128927429Y-70560765D01*
X128951227Y-70554804D01*
X128975496Y-70551204D01*
X129000000Y-70550000D01*
X131000000Y-70550000D01*
X131024504Y-70551204D01*
X131024504Y-70551204D01*
G37*
D13*
X130000000Y-72550000D03*
D12*
G36*
X131024504Y-64451204D02*
G01*
X131048773Y-64454804D01*
X131072571Y-64460765D01*
X131095671Y-64469030D01*
X131117849Y-64479520D01*
X131138893Y-64492133D01*
X131158598Y-64506747D01*
X131176777Y-64523223D01*
X131193253Y-64541402D01*
X131207867Y-64561107D01*
X131220480Y-64582151D01*
X131230970Y-64604329D01*
X131239235Y-64627429D01*
X131245196Y-64651227D01*
X131248796Y-64675496D01*
X131250000Y-64700000D01*
X131250000Y-68200000D01*
X131248796Y-68224504D01*
X131245196Y-68248773D01*
X131239235Y-68272571D01*
X131230970Y-68295671D01*
X131220480Y-68317849D01*
X131207867Y-68338893D01*
X131193253Y-68358598D01*
X131176777Y-68376777D01*
X131158598Y-68393253D01*
X131138893Y-68407867D01*
X131117849Y-68420480D01*
X131095671Y-68430970D01*
X131072571Y-68439235D01*
X131048773Y-68445196D01*
X131024504Y-68448796D01*
X131000000Y-68450000D01*
X129000000Y-68450000D01*
X128975496Y-68448796D01*
X128951227Y-68445196D01*
X128927429Y-68439235D01*
X128904329Y-68430970D01*
X128882151Y-68420480D01*
X128861107Y-68407867D01*
X128841402Y-68393253D01*
X128823223Y-68376777D01*
X128806747Y-68358598D01*
X128792133Y-68338893D01*
X128779520Y-68317849D01*
X128769030Y-68295671D01*
X128760765Y-68272571D01*
X128754804Y-68248773D01*
X128751204Y-68224504D01*
X128750000Y-68200000D01*
X128750000Y-64700000D01*
X128751204Y-64675496D01*
X128754804Y-64651227D01*
X128760765Y-64627429D01*
X128769030Y-64604329D01*
X128779520Y-64582151D01*
X128792133Y-64561107D01*
X128806747Y-64541402D01*
X128823223Y-64523223D01*
X128841402Y-64506747D01*
X128861107Y-64492133D01*
X128882151Y-64479520D01*
X128904329Y-64469030D01*
X128927429Y-64460765D01*
X128951227Y-64454804D01*
X128975496Y-64451204D01*
X129000000Y-64450000D01*
X131000000Y-64450000D01*
X131024504Y-64451204D01*
X131024504Y-64451204D01*
G37*
D13*
X130000000Y-66450000D03*
D12*
G36*
X146024504Y-64451204D02*
G01*
X146048773Y-64454804D01*
X146072571Y-64460765D01*
X146095671Y-64469030D01*
X146117849Y-64479520D01*
X146138893Y-64492133D01*
X146158598Y-64506747D01*
X146176777Y-64523223D01*
X146193253Y-64541402D01*
X146207867Y-64561107D01*
X146220480Y-64582151D01*
X146230970Y-64604329D01*
X146239235Y-64627429D01*
X146245196Y-64651227D01*
X146248796Y-64675496D01*
X146250000Y-64700000D01*
X146250000Y-68200000D01*
X146248796Y-68224504D01*
X146245196Y-68248773D01*
X146239235Y-68272571D01*
X146230970Y-68295671D01*
X146220480Y-68317849D01*
X146207867Y-68338893D01*
X146193253Y-68358598D01*
X146176777Y-68376777D01*
X146158598Y-68393253D01*
X146138893Y-68407867D01*
X146117849Y-68420480D01*
X146095671Y-68430970D01*
X146072571Y-68439235D01*
X146048773Y-68445196D01*
X146024504Y-68448796D01*
X146000000Y-68450000D01*
X144000000Y-68450000D01*
X143975496Y-68448796D01*
X143951227Y-68445196D01*
X143927429Y-68439235D01*
X143904329Y-68430970D01*
X143882151Y-68420480D01*
X143861107Y-68407867D01*
X143841402Y-68393253D01*
X143823223Y-68376777D01*
X143806747Y-68358598D01*
X143792133Y-68338893D01*
X143779520Y-68317849D01*
X143769030Y-68295671D01*
X143760765Y-68272571D01*
X143754804Y-68248773D01*
X143751204Y-68224504D01*
X143750000Y-68200000D01*
X143750000Y-64700000D01*
X143751204Y-64675496D01*
X143754804Y-64651227D01*
X143760765Y-64627429D01*
X143769030Y-64604329D01*
X143779520Y-64582151D01*
X143792133Y-64561107D01*
X143806747Y-64541402D01*
X143823223Y-64523223D01*
X143841402Y-64506747D01*
X143861107Y-64492133D01*
X143882151Y-64479520D01*
X143904329Y-64469030D01*
X143927429Y-64460765D01*
X143951227Y-64454804D01*
X143975496Y-64451204D01*
X144000000Y-64450000D01*
X146000000Y-64450000D01*
X146024504Y-64451204D01*
X146024504Y-64451204D01*
G37*
D13*
X145000000Y-66450000D03*
D12*
G36*
X146024504Y-70551204D02*
G01*
X146048773Y-70554804D01*
X146072571Y-70560765D01*
X146095671Y-70569030D01*
X146117849Y-70579520D01*
X146138893Y-70592133D01*
X146158598Y-70606747D01*
X146176777Y-70623223D01*
X146193253Y-70641402D01*
X146207867Y-70661107D01*
X146220480Y-70682151D01*
X146230970Y-70704329D01*
X146239235Y-70727429D01*
X146245196Y-70751227D01*
X146248796Y-70775496D01*
X146250000Y-70800000D01*
X146250000Y-74300000D01*
X146248796Y-74324504D01*
X146245196Y-74348773D01*
X146239235Y-74372571D01*
X146230970Y-74395671D01*
X146220480Y-74417849D01*
X146207867Y-74438893D01*
X146193253Y-74458598D01*
X146176777Y-74476777D01*
X146158598Y-74493253D01*
X146138893Y-74507867D01*
X146117849Y-74520480D01*
X146095671Y-74530970D01*
X146072571Y-74539235D01*
X146048773Y-74545196D01*
X146024504Y-74548796D01*
X146000000Y-74550000D01*
X144000000Y-74550000D01*
X143975496Y-74548796D01*
X143951227Y-74545196D01*
X143927429Y-74539235D01*
X143904329Y-74530970D01*
X143882151Y-74520480D01*
X143861107Y-74507867D01*
X143841402Y-74493253D01*
X143823223Y-74476777D01*
X143806747Y-74458598D01*
X143792133Y-74438893D01*
X143779520Y-74417849D01*
X143769030Y-74395671D01*
X143760765Y-74372571D01*
X143754804Y-74348773D01*
X143751204Y-74324504D01*
X143750000Y-74300000D01*
X143750000Y-70800000D01*
X143751204Y-70775496D01*
X143754804Y-70751227D01*
X143760765Y-70727429D01*
X143769030Y-70704329D01*
X143779520Y-70682151D01*
X143792133Y-70661107D01*
X143806747Y-70641402D01*
X143823223Y-70623223D01*
X143841402Y-70606747D01*
X143861107Y-70592133D01*
X143882151Y-70579520D01*
X143904329Y-70569030D01*
X143927429Y-70560765D01*
X143951227Y-70554804D01*
X143975496Y-70551204D01*
X144000000Y-70550000D01*
X146000000Y-70550000D01*
X146024504Y-70551204D01*
X146024504Y-70551204D01*
G37*
D13*
X145000000Y-72550000D03*
D12*
G36*
X131024504Y-64451204D02*
G01*
X131048773Y-64454804D01*
X131072571Y-64460765D01*
X131095671Y-64469030D01*
X131117849Y-64479520D01*
X131138893Y-64492133D01*
X131158598Y-64506747D01*
X131176777Y-64523223D01*
X131193253Y-64541402D01*
X131207867Y-64561107D01*
X131220480Y-64582151D01*
X131230970Y-64604329D01*
X131239235Y-64627429D01*
X131245196Y-64651227D01*
X131248796Y-64675496D01*
X131250000Y-64700000D01*
X131250000Y-68200000D01*
X131248796Y-68224504D01*
X131245196Y-68248773D01*
X131239235Y-68272571D01*
X131230970Y-68295671D01*
X131220480Y-68317849D01*
X131207867Y-68338893D01*
X131193253Y-68358598D01*
X131176777Y-68376777D01*
X131158598Y-68393253D01*
X131138893Y-68407867D01*
X131117849Y-68420480D01*
X131095671Y-68430970D01*
X131072571Y-68439235D01*
X131048773Y-68445196D01*
X131024504Y-68448796D01*
X131000000Y-68450000D01*
X129000000Y-68450000D01*
X128975496Y-68448796D01*
X128951227Y-68445196D01*
X128927429Y-68439235D01*
X128904329Y-68430970D01*
X128882151Y-68420480D01*
X128861107Y-68407867D01*
X128841402Y-68393253D01*
X128823223Y-68376777D01*
X128806747Y-68358598D01*
X128792133Y-68338893D01*
X128779520Y-68317849D01*
X128769030Y-68295671D01*
X128760765Y-68272571D01*
X128754804Y-68248773D01*
X128751204Y-68224504D01*
X128750000Y-68200000D01*
X128750000Y-64700000D01*
X128751204Y-64675496D01*
X128754804Y-64651227D01*
X128760765Y-64627429D01*
X128769030Y-64604329D01*
X128779520Y-64582151D01*
X128792133Y-64561107D01*
X128806747Y-64541402D01*
X128823223Y-64523223D01*
X128841402Y-64506747D01*
X128861107Y-64492133D01*
X128882151Y-64479520D01*
X128904329Y-64469030D01*
X128927429Y-64460765D01*
X128951227Y-64454804D01*
X128975496Y-64451204D01*
X129000000Y-64450000D01*
X131000000Y-64450000D01*
X131024504Y-64451204D01*
X131024504Y-64451204D01*
G37*
D13*
X130000000Y-66450000D03*
D12*
G36*
X131024504Y-70551204D02*
G01*
X131048773Y-70554804D01*
X131072571Y-70560765D01*
X131095671Y-70569030D01*
X131117849Y-70579520D01*
X131138893Y-70592133D01*
X131158598Y-70606747D01*
X131176777Y-70623223D01*
X131193253Y-70641402D01*
X131207867Y-70661107D01*
X131220480Y-70682151D01*
X131230970Y-70704329D01*
X131239235Y-70727429D01*
X131245196Y-70751227D01*
X131248796Y-70775496D01*
X131250000Y-70800000D01*
X131250000Y-74300000D01*
X131248796Y-74324504D01*
X131245196Y-74348773D01*
X131239235Y-74372571D01*
X131230970Y-74395671D01*
X131220480Y-74417849D01*
X131207867Y-74438893D01*
X131193253Y-74458598D01*
X131176777Y-74476777D01*
X131158598Y-74493253D01*
X131138893Y-74507867D01*
X131117849Y-74520480D01*
X131095671Y-74530970D01*
X131072571Y-74539235D01*
X131048773Y-74545196D01*
X131024504Y-74548796D01*
X131000000Y-74550000D01*
X129000000Y-74550000D01*
X128975496Y-74548796D01*
X128951227Y-74545196D01*
X128927429Y-74539235D01*
X128904329Y-74530970D01*
X128882151Y-74520480D01*
X128861107Y-74507867D01*
X128841402Y-74493253D01*
X128823223Y-74476777D01*
X128806747Y-74458598D01*
X128792133Y-74438893D01*
X128779520Y-74417849D01*
X128769030Y-74395671D01*
X128760765Y-74372571D01*
X128754804Y-74348773D01*
X128751204Y-74324504D01*
X128750000Y-74300000D01*
X128750000Y-70800000D01*
X128751204Y-70775496D01*
X128754804Y-70751227D01*
X128760765Y-70727429D01*
X128769030Y-70704329D01*
X128779520Y-70682151D01*
X128792133Y-70661107D01*
X128806747Y-70641402D01*
X128823223Y-70623223D01*
X128841402Y-70606747D01*
X128861107Y-70592133D01*
X128882151Y-70579520D01*
X128904329Y-70569030D01*
X128927429Y-70560765D01*
X128951227Y-70554804D01*
X128975496Y-70551204D01*
X129000000Y-70550000D01*
X131000000Y-70550000D01*
X131024504Y-70551204D01*
X131024504Y-70551204D01*
G37*
D13*
X130000000Y-72550000D03*
D12*
G36*
X146024504Y-70551204D02*
G01*
X146048773Y-70554804D01*
X146072571Y-70560765D01*
X146095671Y-70569030D01*
X146117849Y-70579520D01*
X146138893Y-70592133D01*
X146158598Y-70606747D01*
X146176777Y-70623223D01*
X146193253Y-70641402D01*
X146207867Y-70661107D01*
X146220480Y-70682151D01*
X146230970Y-70704329D01*
X146239235Y-70727429D01*
X146245196Y-70751227D01*
X146248796Y-70775496D01*
X146250000Y-70800000D01*
X146250000Y-74300000D01*
X146248796Y-74324504D01*
X146245196Y-74348773D01*
X146239235Y-74372571D01*
X146230970Y-74395671D01*
X146220480Y-74417849D01*
X146207867Y-74438893D01*
X146193253Y-74458598D01*
X146176777Y-74476777D01*
X146158598Y-74493253D01*
X146138893Y-74507867D01*
X146117849Y-74520480D01*
X146095671Y-74530970D01*
X146072571Y-74539235D01*
X146048773Y-74545196D01*
X146024504Y-74548796D01*
X146000000Y-74550000D01*
X144000000Y-74550000D01*
X143975496Y-74548796D01*
X143951227Y-74545196D01*
X143927429Y-74539235D01*
X143904329Y-74530970D01*
X143882151Y-74520480D01*
X143861107Y-74507867D01*
X143841402Y-74493253D01*
X143823223Y-74476777D01*
X143806747Y-74458598D01*
X143792133Y-74438893D01*
X143779520Y-74417849D01*
X143769030Y-74395671D01*
X143760765Y-74372571D01*
X143754804Y-74348773D01*
X143751204Y-74324504D01*
X143750000Y-74300000D01*
X143750000Y-70800000D01*
X143751204Y-70775496D01*
X143754804Y-70751227D01*
X143760765Y-70727429D01*
X143769030Y-70704329D01*
X143779520Y-70682151D01*
X143792133Y-70661107D01*
X143806747Y-70641402D01*
X143823223Y-70623223D01*
X143841402Y-70606747D01*
X143861107Y-70592133D01*
X143882151Y-70579520D01*
X143904329Y-70569030D01*
X143927429Y-70560765D01*
X143951227Y-70554804D01*
X143975496Y-70551204D01*
X144000000Y-70550000D01*
X146000000Y-70550000D01*
X146024504Y-70551204D01*
X146024504Y-70551204D01*
G37*
D13*
X145000000Y-72550000D03*
D12*
G36*
X146024504Y-64451204D02*
G01*
X146048773Y-64454804D01*
X146072571Y-64460765D01*
X146095671Y-64469030D01*
X146117849Y-64479520D01*
X146138893Y-64492133D01*
X146158598Y-64506747D01*
X146176777Y-64523223D01*
X146193253Y-64541402D01*
X146207867Y-64561107D01*
X146220480Y-64582151D01*
X146230970Y-64604329D01*
X146239235Y-64627429D01*
X146245196Y-64651227D01*
X146248796Y-64675496D01*
X146250000Y-64700000D01*
X146250000Y-68200000D01*
X146248796Y-68224504D01*
X146245196Y-68248773D01*
X146239235Y-68272571D01*
X146230970Y-68295671D01*
X146220480Y-68317849D01*
X146207867Y-68338893D01*
X146193253Y-68358598D01*
X146176777Y-68376777D01*
X146158598Y-68393253D01*
X146138893Y-68407867D01*
X146117849Y-68420480D01*
X146095671Y-68430970D01*
X146072571Y-68439235D01*
X146048773Y-68445196D01*
X146024504Y-68448796D01*
X146000000Y-68450000D01*
X144000000Y-68450000D01*
X143975496Y-68448796D01*
X143951227Y-68445196D01*
X143927429Y-68439235D01*
X143904329Y-68430970D01*
X143882151Y-68420480D01*
X143861107Y-68407867D01*
X143841402Y-68393253D01*
X143823223Y-68376777D01*
X143806747Y-68358598D01*
X143792133Y-68338893D01*
X143779520Y-68317849D01*
X143769030Y-68295671D01*
X143760765Y-68272571D01*
X143754804Y-68248773D01*
X143751204Y-68224504D01*
X143750000Y-68200000D01*
X143750000Y-64700000D01*
X143751204Y-64675496D01*
X143754804Y-64651227D01*
X143760765Y-64627429D01*
X143769030Y-64604329D01*
X143779520Y-64582151D01*
X143792133Y-64561107D01*
X143806747Y-64541402D01*
X143823223Y-64523223D01*
X143841402Y-64506747D01*
X143861107Y-64492133D01*
X143882151Y-64479520D01*
X143904329Y-64469030D01*
X143927429Y-64460765D01*
X143951227Y-64454804D01*
X143975496Y-64451204D01*
X144000000Y-64450000D01*
X146000000Y-64450000D01*
X146024504Y-64451204D01*
X146024504Y-64451204D01*
G37*
D13*
X145000000Y-66450000D03*
D12*
G36*
X73399505Y-63301204D02*
G01*
X73423773Y-63304804D01*
X73447572Y-63310765D01*
X73470671Y-63319030D01*
X73492850Y-63329520D01*
X73513893Y-63342132D01*
X73533599Y-63356747D01*
X73551777Y-63373223D01*
X73568253Y-63391401D01*
X73582868Y-63411107D01*
X73595480Y-63432150D01*
X73605970Y-63454329D01*
X73614235Y-63477428D01*
X73620196Y-63501227D01*
X73623796Y-63525495D01*
X73625000Y-63549999D01*
X73625000Y-64450001D01*
X73623796Y-64474505D01*
X73620196Y-64498773D01*
X73614235Y-64522572D01*
X73605970Y-64545671D01*
X73595480Y-64567850D01*
X73582868Y-64588893D01*
X73568253Y-64608599D01*
X73551777Y-64626777D01*
X73533599Y-64643253D01*
X73513893Y-64657868D01*
X73492850Y-64670480D01*
X73470671Y-64680970D01*
X73447572Y-64689235D01*
X73423773Y-64695196D01*
X73399505Y-64698796D01*
X73375001Y-64700000D01*
X72724999Y-64700000D01*
X72700495Y-64698796D01*
X72676227Y-64695196D01*
X72652428Y-64689235D01*
X72629329Y-64680970D01*
X72607150Y-64670480D01*
X72586107Y-64657868D01*
X72566401Y-64643253D01*
X72548223Y-64626777D01*
X72531747Y-64608599D01*
X72517132Y-64588893D01*
X72504520Y-64567850D01*
X72494030Y-64545671D01*
X72485765Y-64522572D01*
X72479804Y-64498773D01*
X72476204Y-64474505D01*
X72475000Y-64450001D01*
X72475000Y-63549999D01*
X72476204Y-63525495D01*
X72479804Y-63501227D01*
X72485765Y-63477428D01*
X72494030Y-63454329D01*
X72504520Y-63432150D01*
X72517132Y-63411107D01*
X72531747Y-63391401D01*
X72548223Y-63373223D01*
X72566401Y-63356747D01*
X72586107Y-63342132D01*
X72607150Y-63329520D01*
X72629329Y-63319030D01*
X72652428Y-63310765D01*
X72676227Y-63304804D01*
X72700495Y-63301204D01*
X72724999Y-63300000D01*
X73375001Y-63300000D01*
X73399505Y-63301204D01*
X73399505Y-63301204D01*
G37*
D14*
X73050000Y-64000000D03*
D12*
G36*
X71349505Y-63301204D02*
G01*
X71373773Y-63304804D01*
X71397572Y-63310765D01*
X71420671Y-63319030D01*
X71442850Y-63329520D01*
X71463893Y-63342132D01*
X71483599Y-63356747D01*
X71501777Y-63373223D01*
X71518253Y-63391401D01*
X71532868Y-63411107D01*
X71545480Y-63432150D01*
X71555970Y-63454329D01*
X71564235Y-63477428D01*
X71570196Y-63501227D01*
X71573796Y-63525495D01*
X71575000Y-63549999D01*
X71575000Y-64450001D01*
X71573796Y-64474505D01*
X71570196Y-64498773D01*
X71564235Y-64522572D01*
X71555970Y-64545671D01*
X71545480Y-64567850D01*
X71532868Y-64588893D01*
X71518253Y-64608599D01*
X71501777Y-64626777D01*
X71483599Y-64643253D01*
X71463893Y-64657868D01*
X71442850Y-64670480D01*
X71420671Y-64680970D01*
X71397572Y-64689235D01*
X71373773Y-64695196D01*
X71349505Y-64698796D01*
X71325001Y-64700000D01*
X70674999Y-64700000D01*
X70650495Y-64698796D01*
X70626227Y-64695196D01*
X70602428Y-64689235D01*
X70579329Y-64680970D01*
X70557150Y-64670480D01*
X70536107Y-64657868D01*
X70516401Y-64643253D01*
X70498223Y-64626777D01*
X70481747Y-64608599D01*
X70467132Y-64588893D01*
X70454520Y-64567850D01*
X70444030Y-64545671D01*
X70435765Y-64522572D01*
X70429804Y-64498773D01*
X70426204Y-64474505D01*
X70425000Y-64450001D01*
X70425000Y-63549999D01*
X70426204Y-63525495D01*
X70429804Y-63501227D01*
X70435765Y-63477428D01*
X70444030Y-63454329D01*
X70454520Y-63432150D01*
X70467132Y-63411107D01*
X70481747Y-63391401D01*
X70498223Y-63373223D01*
X70516401Y-63356747D01*
X70536107Y-63342132D01*
X70557150Y-63329520D01*
X70579329Y-63319030D01*
X70602428Y-63310765D01*
X70626227Y-63304804D01*
X70650495Y-63301204D01*
X70674999Y-63300000D01*
X71325001Y-63300000D01*
X71349505Y-63301204D01*
X71349505Y-63301204D01*
G37*
D14*
X71000000Y-64000000D03*
D12*
G36*
X71324505Y-83301204D02*
G01*
X71348773Y-83304804D01*
X71372572Y-83310765D01*
X71395671Y-83319030D01*
X71417850Y-83329520D01*
X71438893Y-83342132D01*
X71458599Y-83356747D01*
X71476777Y-83373223D01*
X71493253Y-83391401D01*
X71507868Y-83411107D01*
X71520480Y-83432150D01*
X71530970Y-83454329D01*
X71539235Y-83477428D01*
X71545196Y-83501227D01*
X71548796Y-83525495D01*
X71550000Y-83549999D01*
X71550000Y-84450001D01*
X71548796Y-84474505D01*
X71545196Y-84498773D01*
X71539235Y-84522572D01*
X71530970Y-84545671D01*
X71520480Y-84567850D01*
X71507868Y-84588893D01*
X71493253Y-84608599D01*
X71476777Y-84626777D01*
X71458599Y-84643253D01*
X71438893Y-84657868D01*
X71417850Y-84670480D01*
X71395671Y-84680970D01*
X71372572Y-84689235D01*
X71348773Y-84695196D01*
X71324505Y-84698796D01*
X71300001Y-84700000D01*
X70649999Y-84700000D01*
X70625495Y-84698796D01*
X70601227Y-84695196D01*
X70577428Y-84689235D01*
X70554329Y-84680970D01*
X70532150Y-84670480D01*
X70511107Y-84657868D01*
X70491401Y-84643253D01*
X70473223Y-84626777D01*
X70456747Y-84608599D01*
X70442132Y-84588893D01*
X70429520Y-84567850D01*
X70419030Y-84545671D01*
X70410765Y-84522572D01*
X70404804Y-84498773D01*
X70401204Y-84474505D01*
X70400000Y-84450001D01*
X70400000Y-83549999D01*
X70401204Y-83525495D01*
X70404804Y-83501227D01*
X70410765Y-83477428D01*
X70419030Y-83454329D01*
X70429520Y-83432150D01*
X70442132Y-83411107D01*
X70456747Y-83391401D01*
X70473223Y-83373223D01*
X70491401Y-83356747D01*
X70511107Y-83342132D01*
X70532150Y-83329520D01*
X70554329Y-83319030D01*
X70577428Y-83310765D01*
X70601227Y-83304804D01*
X70625495Y-83301204D01*
X70649999Y-83300000D01*
X71300001Y-83300000D01*
X71324505Y-83301204D01*
X71324505Y-83301204D01*
G37*
D14*
X70975000Y-84000000D03*
D12*
G36*
X73374505Y-83301204D02*
G01*
X73398773Y-83304804D01*
X73422572Y-83310765D01*
X73445671Y-83319030D01*
X73467850Y-83329520D01*
X73488893Y-83342132D01*
X73508599Y-83356747D01*
X73526777Y-83373223D01*
X73543253Y-83391401D01*
X73557868Y-83411107D01*
X73570480Y-83432150D01*
X73580970Y-83454329D01*
X73589235Y-83477428D01*
X73595196Y-83501227D01*
X73598796Y-83525495D01*
X73600000Y-83549999D01*
X73600000Y-84450001D01*
X73598796Y-84474505D01*
X73595196Y-84498773D01*
X73589235Y-84522572D01*
X73580970Y-84545671D01*
X73570480Y-84567850D01*
X73557868Y-84588893D01*
X73543253Y-84608599D01*
X73526777Y-84626777D01*
X73508599Y-84643253D01*
X73488893Y-84657868D01*
X73467850Y-84670480D01*
X73445671Y-84680970D01*
X73422572Y-84689235D01*
X73398773Y-84695196D01*
X73374505Y-84698796D01*
X73350001Y-84700000D01*
X72699999Y-84700000D01*
X72675495Y-84698796D01*
X72651227Y-84695196D01*
X72627428Y-84689235D01*
X72604329Y-84680970D01*
X72582150Y-84670480D01*
X72561107Y-84657868D01*
X72541401Y-84643253D01*
X72523223Y-84626777D01*
X72506747Y-84608599D01*
X72492132Y-84588893D01*
X72479520Y-84567850D01*
X72469030Y-84545671D01*
X72460765Y-84522572D01*
X72454804Y-84498773D01*
X72451204Y-84474505D01*
X72450000Y-84450001D01*
X72450000Y-83549999D01*
X72451204Y-83525495D01*
X72454804Y-83501227D01*
X72460765Y-83477428D01*
X72469030Y-83454329D01*
X72479520Y-83432150D01*
X72492132Y-83411107D01*
X72506747Y-83391401D01*
X72523223Y-83373223D01*
X72541401Y-83356747D01*
X72561107Y-83342132D01*
X72582150Y-83329520D01*
X72604329Y-83319030D01*
X72627428Y-83310765D01*
X72651227Y-83304804D01*
X72675495Y-83301204D01*
X72699999Y-83300000D01*
X73350001Y-83300000D01*
X73374505Y-83301204D01*
X73374505Y-83301204D01*
G37*
D14*
X73025000Y-84000000D03*
D12*
G36*
X72724505Y-72451204D02*
G01*
X72748773Y-72454804D01*
X72772572Y-72460765D01*
X72795671Y-72469030D01*
X72817850Y-72479520D01*
X72838893Y-72492132D01*
X72858599Y-72506747D01*
X72876777Y-72523223D01*
X72893253Y-72541401D01*
X72907868Y-72561107D01*
X72920480Y-72582150D01*
X72930970Y-72604329D01*
X72939235Y-72627428D01*
X72945196Y-72651227D01*
X72948796Y-72675495D01*
X72950000Y-72699999D01*
X72950000Y-73350001D01*
X72948796Y-73374505D01*
X72945196Y-73398773D01*
X72939235Y-73422572D01*
X72930970Y-73445671D01*
X72920480Y-73467850D01*
X72907868Y-73488893D01*
X72893253Y-73508599D01*
X72876777Y-73526777D01*
X72858599Y-73543253D01*
X72838893Y-73557868D01*
X72817850Y-73570480D01*
X72795671Y-73580970D01*
X72772572Y-73589235D01*
X72748773Y-73595196D01*
X72724505Y-73598796D01*
X72700001Y-73600000D01*
X71799999Y-73600000D01*
X71775495Y-73598796D01*
X71751227Y-73595196D01*
X71727428Y-73589235D01*
X71704329Y-73580970D01*
X71682150Y-73570480D01*
X71661107Y-73557868D01*
X71641401Y-73543253D01*
X71623223Y-73526777D01*
X71606747Y-73508599D01*
X71592132Y-73488893D01*
X71579520Y-73467850D01*
X71569030Y-73445671D01*
X71560765Y-73422572D01*
X71554804Y-73398773D01*
X71551204Y-73374505D01*
X71550000Y-73350001D01*
X71550000Y-72699999D01*
X71551204Y-72675495D01*
X71554804Y-72651227D01*
X71560765Y-72627428D01*
X71569030Y-72604329D01*
X71579520Y-72582150D01*
X71592132Y-72561107D01*
X71606747Y-72541401D01*
X71623223Y-72523223D01*
X71641401Y-72506747D01*
X71661107Y-72492132D01*
X71682150Y-72479520D01*
X71704329Y-72469030D01*
X71727428Y-72460765D01*
X71751227Y-72454804D01*
X71775495Y-72451204D01*
X71799999Y-72450000D01*
X72700001Y-72450000D01*
X72724505Y-72451204D01*
X72724505Y-72451204D01*
G37*
D14*
X72250000Y-73025000D03*
D12*
G36*
X72724505Y-70401204D02*
G01*
X72748773Y-70404804D01*
X72772572Y-70410765D01*
X72795671Y-70419030D01*
X72817850Y-70429520D01*
X72838893Y-70442132D01*
X72858599Y-70456747D01*
X72876777Y-70473223D01*
X72893253Y-70491401D01*
X72907868Y-70511107D01*
X72920480Y-70532150D01*
X72930970Y-70554329D01*
X72939235Y-70577428D01*
X72945196Y-70601227D01*
X72948796Y-70625495D01*
X72950000Y-70649999D01*
X72950000Y-71300001D01*
X72948796Y-71324505D01*
X72945196Y-71348773D01*
X72939235Y-71372572D01*
X72930970Y-71395671D01*
X72920480Y-71417850D01*
X72907868Y-71438893D01*
X72893253Y-71458599D01*
X72876777Y-71476777D01*
X72858599Y-71493253D01*
X72838893Y-71507868D01*
X72817850Y-71520480D01*
X72795671Y-71530970D01*
X72772572Y-71539235D01*
X72748773Y-71545196D01*
X72724505Y-71548796D01*
X72700001Y-71550000D01*
X71799999Y-71550000D01*
X71775495Y-71548796D01*
X71751227Y-71545196D01*
X71727428Y-71539235D01*
X71704329Y-71530970D01*
X71682150Y-71520480D01*
X71661107Y-71507868D01*
X71641401Y-71493253D01*
X71623223Y-71476777D01*
X71606747Y-71458599D01*
X71592132Y-71438893D01*
X71579520Y-71417850D01*
X71569030Y-71395671D01*
X71560765Y-71372572D01*
X71554804Y-71348773D01*
X71551204Y-71324505D01*
X71550000Y-71300001D01*
X71550000Y-70649999D01*
X71551204Y-70625495D01*
X71554804Y-70601227D01*
X71560765Y-70577428D01*
X71569030Y-70554329D01*
X71579520Y-70532150D01*
X71592132Y-70511107D01*
X71606747Y-70491401D01*
X71623223Y-70473223D01*
X71641401Y-70456747D01*
X71661107Y-70442132D01*
X71682150Y-70429520D01*
X71704329Y-70419030D01*
X71727428Y-70410765D01*
X71751227Y-70404804D01*
X71775495Y-70401204D01*
X71799999Y-70400000D01*
X72700001Y-70400000D01*
X72724505Y-70401204D01*
X72724505Y-70401204D01*
G37*
D14*
X72250000Y-70975000D03*
D12*
G36*
X72724505Y-74401204D02*
G01*
X72748773Y-74404804D01*
X72772572Y-74410765D01*
X72795671Y-74419030D01*
X72817850Y-74429520D01*
X72838893Y-74442132D01*
X72858599Y-74456747D01*
X72876777Y-74473223D01*
X72893253Y-74491401D01*
X72907868Y-74511107D01*
X72920480Y-74532150D01*
X72930970Y-74554329D01*
X72939235Y-74577428D01*
X72945196Y-74601227D01*
X72948796Y-74625495D01*
X72950000Y-74649999D01*
X72950000Y-75300001D01*
X72948796Y-75324505D01*
X72945196Y-75348773D01*
X72939235Y-75372572D01*
X72930970Y-75395671D01*
X72920480Y-75417850D01*
X72907868Y-75438893D01*
X72893253Y-75458599D01*
X72876777Y-75476777D01*
X72858599Y-75493253D01*
X72838893Y-75507868D01*
X72817850Y-75520480D01*
X72795671Y-75530970D01*
X72772572Y-75539235D01*
X72748773Y-75545196D01*
X72724505Y-75548796D01*
X72700001Y-75550000D01*
X71799999Y-75550000D01*
X71775495Y-75548796D01*
X71751227Y-75545196D01*
X71727428Y-75539235D01*
X71704329Y-75530970D01*
X71682150Y-75520480D01*
X71661107Y-75507868D01*
X71641401Y-75493253D01*
X71623223Y-75476777D01*
X71606747Y-75458599D01*
X71592132Y-75438893D01*
X71579520Y-75417850D01*
X71569030Y-75395671D01*
X71560765Y-75372572D01*
X71554804Y-75348773D01*
X71551204Y-75324505D01*
X71550000Y-75300001D01*
X71550000Y-74649999D01*
X71551204Y-74625495D01*
X71554804Y-74601227D01*
X71560765Y-74577428D01*
X71569030Y-74554329D01*
X71579520Y-74532150D01*
X71592132Y-74511107D01*
X71606747Y-74491401D01*
X71623223Y-74473223D01*
X71641401Y-74456747D01*
X71661107Y-74442132D01*
X71682150Y-74429520D01*
X71704329Y-74419030D01*
X71727428Y-74410765D01*
X71751227Y-74404804D01*
X71775495Y-74401204D01*
X71799999Y-74400000D01*
X72700001Y-74400000D01*
X72724505Y-74401204D01*
X72724505Y-74401204D01*
G37*
D14*
X72250000Y-74975000D03*
D12*
G36*
X72724505Y-76451204D02*
G01*
X72748773Y-76454804D01*
X72772572Y-76460765D01*
X72795671Y-76469030D01*
X72817850Y-76479520D01*
X72838893Y-76492132D01*
X72858599Y-76506747D01*
X72876777Y-76523223D01*
X72893253Y-76541401D01*
X72907868Y-76561107D01*
X72920480Y-76582150D01*
X72930970Y-76604329D01*
X72939235Y-76627428D01*
X72945196Y-76651227D01*
X72948796Y-76675495D01*
X72950000Y-76699999D01*
X72950000Y-77350001D01*
X72948796Y-77374505D01*
X72945196Y-77398773D01*
X72939235Y-77422572D01*
X72930970Y-77445671D01*
X72920480Y-77467850D01*
X72907868Y-77488893D01*
X72893253Y-77508599D01*
X72876777Y-77526777D01*
X72858599Y-77543253D01*
X72838893Y-77557868D01*
X72817850Y-77570480D01*
X72795671Y-77580970D01*
X72772572Y-77589235D01*
X72748773Y-77595196D01*
X72724505Y-77598796D01*
X72700001Y-77600000D01*
X71799999Y-77600000D01*
X71775495Y-77598796D01*
X71751227Y-77595196D01*
X71727428Y-77589235D01*
X71704329Y-77580970D01*
X71682150Y-77570480D01*
X71661107Y-77557868D01*
X71641401Y-77543253D01*
X71623223Y-77526777D01*
X71606747Y-77508599D01*
X71592132Y-77488893D01*
X71579520Y-77467850D01*
X71569030Y-77445671D01*
X71560765Y-77422572D01*
X71554804Y-77398773D01*
X71551204Y-77374505D01*
X71550000Y-77350001D01*
X71550000Y-76699999D01*
X71551204Y-76675495D01*
X71554804Y-76651227D01*
X71560765Y-76627428D01*
X71569030Y-76604329D01*
X71579520Y-76582150D01*
X71592132Y-76561107D01*
X71606747Y-76541401D01*
X71623223Y-76523223D01*
X71641401Y-76506747D01*
X71661107Y-76492132D01*
X71682150Y-76479520D01*
X71704329Y-76469030D01*
X71727428Y-76460765D01*
X71751227Y-76454804D01*
X71775495Y-76451204D01*
X71799999Y-76450000D01*
X72700001Y-76450000D01*
X72724505Y-76451204D01*
X72724505Y-76451204D01*
G37*
D14*
X72250000Y-77025000D03*
D12*
G36*
X87474505Y-99701204D02*
G01*
X87498773Y-99704804D01*
X87522572Y-99710765D01*
X87545671Y-99719030D01*
X87567850Y-99729520D01*
X87588893Y-99742132D01*
X87608599Y-99756747D01*
X87626777Y-99773223D01*
X87643253Y-99791401D01*
X87657868Y-99811107D01*
X87670480Y-99832150D01*
X87680970Y-99854329D01*
X87689235Y-99877428D01*
X87695196Y-99901227D01*
X87698796Y-99925495D01*
X87700000Y-99949999D01*
X87700000Y-100600001D01*
X87698796Y-100624505D01*
X87695196Y-100648773D01*
X87689235Y-100672572D01*
X87680970Y-100695671D01*
X87670480Y-100717850D01*
X87657868Y-100738893D01*
X87643253Y-100758599D01*
X87626777Y-100776777D01*
X87608599Y-100793253D01*
X87588893Y-100807868D01*
X87567850Y-100820480D01*
X87545671Y-100830970D01*
X87522572Y-100839235D01*
X87498773Y-100845196D01*
X87474505Y-100848796D01*
X87450001Y-100850000D01*
X86549999Y-100850000D01*
X86525495Y-100848796D01*
X86501227Y-100845196D01*
X86477428Y-100839235D01*
X86454329Y-100830970D01*
X86432150Y-100820480D01*
X86411107Y-100807868D01*
X86391401Y-100793253D01*
X86373223Y-100776777D01*
X86356747Y-100758599D01*
X86342132Y-100738893D01*
X86329520Y-100717850D01*
X86319030Y-100695671D01*
X86310765Y-100672572D01*
X86304804Y-100648773D01*
X86301204Y-100624505D01*
X86300000Y-100600001D01*
X86300000Y-99949999D01*
X86301204Y-99925495D01*
X86304804Y-99901227D01*
X86310765Y-99877428D01*
X86319030Y-99854329D01*
X86329520Y-99832150D01*
X86342132Y-99811107D01*
X86356747Y-99791401D01*
X86373223Y-99773223D01*
X86391401Y-99756747D01*
X86411107Y-99742132D01*
X86432150Y-99729520D01*
X86454329Y-99719030D01*
X86477428Y-99710765D01*
X86501227Y-99704804D01*
X86525495Y-99701204D01*
X86549999Y-99700000D01*
X87450001Y-99700000D01*
X87474505Y-99701204D01*
X87474505Y-99701204D01*
G37*
D14*
X87000000Y-100275000D03*
D12*
G36*
X87474505Y-97651204D02*
G01*
X87498773Y-97654804D01*
X87522572Y-97660765D01*
X87545671Y-97669030D01*
X87567850Y-97679520D01*
X87588893Y-97692132D01*
X87608599Y-97706747D01*
X87626777Y-97723223D01*
X87643253Y-97741401D01*
X87657868Y-97761107D01*
X87670480Y-97782150D01*
X87680970Y-97804329D01*
X87689235Y-97827428D01*
X87695196Y-97851227D01*
X87698796Y-97875495D01*
X87700000Y-97899999D01*
X87700000Y-98550001D01*
X87698796Y-98574505D01*
X87695196Y-98598773D01*
X87689235Y-98622572D01*
X87680970Y-98645671D01*
X87670480Y-98667850D01*
X87657868Y-98688893D01*
X87643253Y-98708599D01*
X87626777Y-98726777D01*
X87608599Y-98743253D01*
X87588893Y-98757868D01*
X87567850Y-98770480D01*
X87545671Y-98780970D01*
X87522572Y-98789235D01*
X87498773Y-98795196D01*
X87474505Y-98798796D01*
X87450001Y-98800000D01*
X86549999Y-98800000D01*
X86525495Y-98798796D01*
X86501227Y-98795196D01*
X86477428Y-98789235D01*
X86454329Y-98780970D01*
X86432150Y-98770480D01*
X86411107Y-98757868D01*
X86391401Y-98743253D01*
X86373223Y-98726777D01*
X86356747Y-98708599D01*
X86342132Y-98688893D01*
X86329520Y-98667850D01*
X86319030Y-98645671D01*
X86310765Y-98622572D01*
X86304804Y-98598773D01*
X86301204Y-98574505D01*
X86300000Y-98550001D01*
X86300000Y-97899999D01*
X86301204Y-97875495D01*
X86304804Y-97851227D01*
X86310765Y-97827428D01*
X86319030Y-97804329D01*
X86329520Y-97782150D01*
X86342132Y-97761107D01*
X86356747Y-97741401D01*
X86373223Y-97723223D01*
X86391401Y-97706747D01*
X86411107Y-97692132D01*
X86432150Y-97679520D01*
X86454329Y-97669030D01*
X86477428Y-97660765D01*
X86501227Y-97654804D01*
X86525495Y-97651204D01*
X86549999Y-97650000D01*
X87450001Y-97650000D01*
X87474505Y-97651204D01*
X87474505Y-97651204D01*
G37*
D14*
X87000000Y-98225000D03*
D12*
G36*
X87974505Y-113901204D02*
G01*
X87998773Y-113904804D01*
X88022572Y-113910765D01*
X88045671Y-113919030D01*
X88067850Y-113929520D01*
X88088893Y-113942132D01*
X88108599Y-113956747D01*
X88126777Y-113973223D01*
X88143253Y-113991401D01*
X88157868Y-114011107D01*
X88170480Y-114032150D01*
X88180970Y-114054329D01*
X88189235Y-114077428D01*
X88195196Y-114101227D01*
X88198796Y-114125495D01*
X88200000Y-114149999D01*
X88200000Y-114800001D01*
X88198796Y-114824505D01*
X88195196Y-114848773D01*
X88189235Y-114872572D01*
X88180970Y-114895671D01*
X88170480Y-114917850D01*
X88157868Y-114938893D01*
X88143253Y-114958599D01*
X88126777Y-114976777D01*
X88108599Y-114993253D01*
X88088893Y-115007868D01*
X88067850Y-115020480D01*
X88045671Y-115030970D01*
X88022572Y-115039235D01*
X87998773Y-115045196D01*
X87974505Y-115048796D01*
X87950001Y-115050000D01*
X87049999Y-115050000D01*
X87025495Y-115048796D01*
X87001227Y-115045196D01*
X86977428Y-115039235D01*
X86954329Y-115030970D01*
X86932150Y-115020480D01*
X86911107Y-115007868D01*
X86891401Y-114993253D01*
X86873223Y-114976777D01*
X86856747Y-114958599D01*
X86842132Y-114938893D01*
X86829520Y-114917850D01*
X86819030Y-114895671D01*
X86810765Y-114872572D01*
X86804804Y-114848773D01*
X86801204Y-114824505D01*
X86800000Y-114800001D01*
X86800000Y-114149999D01*
X86801204Y-114125495D01*
X86804804Y-114101227D01*
X86810765Y-114077428D01*
X86819030Y-114054329D01*
X86829520Y-114032150D01*
X86842132Y-114011107D01*
X86856747Y-113991401D01*
X86873223Y-113973223D01*
X86891401Y-113956747D01*
X86911107Y-113942132D01*
X86932150Y-113929520D01*
X86954329Y-113919030D01*
X86977428Y-113910765D01*
X87001227Y-113904804D01*
X87025495Y-113901204D01*
X87049999Y-113900000D01*
X87950001Y-113900000D01*
X87974505Y-113901204D01*
X87974505Y-113901204D01*
G37*
D14*
X87500000Y-114475000D03*
D12*
G36*
X87974505Y-115951204D02*
G01*
X87998773Y-115954804D01*
X88022572Y-115960765D01*
X88045671Y-115969030D01*
X88067850Y-115979520D01*
X88088893Y-115992132D01*
X88108599Y-116006747D01*
X88126777Y-116023223D01*
X88143253Y-116041401D01*
X88157868Y-116061107D01*
X88170480Y-116082150D01*
X88180970Y-116104329D01*
X88189235Y-116127428D01*
X88195196Y-116151227D01*
X88198796Y-116175495D01*
X88200000Y-116199999D01*
X88200000Y-116850001D01*
X88198796Y-116874505D01*
X88195196Y-116898773D01*
X88189235Y-116922572D01*
X88180970Y-116945671D01*
X88170480Y-116967850D01*
X88157868Y-116988893D01*
X88143253Y-117008599D01*
X88126777Y-117026777D01*
X88108599Y-117043253D01*
X88088893Y-117057868D01*
X88067850Y-117070480D01*
X88045671Y-117080970D01*
X88022572Y-117089235D01*
X87998773Y-117095196D01*
X87974505Y-117098796D01*
X87950001Y-117100000D01*
X87049999Y-117100000D01*
X87025495Y-117098796D01*
X87001227Y-117095196D01*
X86977428Y-117089235D01*
X86954329Y-117080970D01*
X86932150Y-117070480D01*
X86911107Y-117057868D01*
X86891401Y-117043253D01*
X86873223Y-117026777D01*
X86856747Y-117008599D01*
X86842132Y-116988893D01*
X86829520Y-116967850D01*
X86819030Y-116945671D01*
X86810765Y-116922572D01*
X86804804Y-116898773D01*
X86801204Y-116874505D01*
X86800000Y-116850001D01*
X86800000Y-116199999D01*
X86801204Y-116175495D01*
X86804804Y-116151227D01*
X86810765Y-116127428D01*
X86819030Y-116104329D01*
X86829520Y-116082150D01*
X86842132Y-116061107D01*
X86856747Y-116041401D01*
X86873223Y-116023223D01*
X86891401Y-116006747D01*
X86911107Y-115992132D01*
X86932150Y-115979520D01*
X86954329Y-115969030D01*
X86977428Y-115960765D01*
X87001227Y-115954804D01*
X87025495Y-115951204D01*
X87049999Y-115950000D01*
X87950001Y-115950000D01*
X87974505Y-115951204D01*
X87974505Y-115951204D01*
G37*
D14*
X87500000Y-116525000D03*
D12*
G36*
X82974505Y-99701204D02*
G01*
X82998773Y-99704804D01*
X83022572Y-99710765D01*
X83045671Y-99719030D01*
X83067850Y-99729520D01*
X83088893Y-99742132D01*
X83108599Y-99756747D01*
X83126777Y-99773223D01*
X83143253Y-99791401D01*
X83157868Y-99811107D01*
X83170480Y-99832150D01*
X83180970Y-99854329D01*
X83189235Y-99877428D01*
X83195196Y-99901227D01*
X83198796Y-99925495D01*
X83200000Y-99949999D01*
X83200000Y-100600001D01*
X83198796Y-100624505D01*
X83195196Y-100648773D01*
X83189235Y-100672572D01*
X83180970Y-100695671D01*
X83170480Y-100717850D01*
X83157868Y-100738893D01*
X83143253Y-100758599D01*
X83126777Y-100776777D01*
X83108599Y-100793253D01*
X83088893Y-100807868D01*
X83067850Y-100820480D01*
X83045671Y-100830970D01*
X83022572Y-100839235D01*
X82998773Y-100845196D01*
X82974505Y-100848796D01*
X82950001Y-100850000D01*
X82049999Y-100850000D01*
X82025495Y-100848796D01*
X82001227Y-100845196D01*
X81977428Y-100839235D01*
X81954329Y-100830970D01*
X81932150Y-100820480D01*
X81911107Y-100807868D01*
X81891401Y-100793253D01*
X81873223Y-100776777D01*
X81856747Y-100758599D01*
X81842132Y-100738893D01*
X81829520Y-100717850D01*
X81819030Y-100695671D01*
X81810765Y-100672572D01*
X81804804Y-100648773D01*
X81801204Y-100624505D01*
X81800000Y-100600001D01*
X81800000Y-99949999D01*
X81801204Y-99925495D01*
X81804804Y-99901227D01*
X81810765Y-99877428D01*
X81819030Y-99854329D01*
X81829520Y-99832150D01*
X81842132Y-99811107D01*
X81856747Y-99791401D01*
X81873223Y-99773223D01*
X81891401Y-99756747D01*
X81911107Y-99742132D01*
X81932150Y-99729520D01*
X81954329Y-99719030D01*
X81977428Y-99710765D01*
X82001227Y-99704804D01*
X82025495Y-99701204D01*
X82049999Y-99700000D01*
X82950001Y-99700000D01*
X82974505Y-99701204D01*
X82974505Y-99701204D01*
G37*
D14*
X82500000Y-100275000D03*
D12*
G36*
X82974505Y-97651204D02*
G01*
X82998773Y-97654804D01*
X83022572Y-97660765D01*
X83045671Y-97669030D01*
X83067850Y-97679520D01*
X83088893Y-97692132D01*
X83108599Y-97706747D01*
X83126777Y-97723223D01*
X83143253Y-97741401D01*
X83157868Y-97761107D01*
X83170480Y-97782150D01*
X83180970Y-97804329D01*
X83189235Y-97827428D01*
X83195196Y-97851227D01*
X83198796Y-97875495D01*
X83200000Y-97899999D01*
X83200000Y-98550001D01*
X83198796Y-98574505D01*
X83195196Y-98598773D01*
X83189235Y-98622572D01*
X83180970Y-98645671D01*
X83170480Y-98667850D01*
X83157868Y-98688893D01*
X83143253Y-98708599D01*
X83126777Y-98726777D01*
X83108599Y-98743253D01*
X83088893Y-98757868D01*
X83067850Y-98770480D01*
X83045671Y-98780970D01*
X83022572Y-98789235D01*
X82998773Y-98795196D01*
X82974505Y-98798796D01*
X82950001Y-98800000D01*
X82049999Y-98800000D01*
X82025495Y-98798796D01*
X82001227Y-98795196D01*
X81977428Y-98789235D01*
X81954329Y-98780970D01*
X81932150Y-98770480D01*
X81911107Y-98757868D01*
X81891401Y-98743253D01*
X81873223Y-98726777D01*
X81856747Y-98708599D01*
X81842132Y-98688893D01*
X81829520Y-98667850D01*
X81819030Y-98645671D01*
X81810765Y-98622572D01*
X81804804Y-98598773D01*
X81801204Y-98574505D01*
X81800000Y-98550001D01*
X81800000Y-97899999D01*
X81801204Y-97875495D01*
X81804804Y-97851227D01*
X81810765Y-97827428D01*
X81819030Y-97804329D01*
X81829520Y-97782150D01*
X81842132Y-97761107D01*
X81856747Y-97741401D01*
X81873223Y-97723223D01*
X81891401Y-97706747D01*
X81911107Y-97692132D01*
X81932150Y-97679520D01*
X81954329Y-97669030D01*
X81977428Y-97660765D01*
X82001227Y-97654804D01*
X82025495Y-97651204D01*
X82049999Y-97650000D01*
X82950001Y-97650000D01*
X82974505Y-97651204D01*
X82974505Y-97651204D01*
G37*
D14*
X82500000Y-98225000D03*
D12*
G36*
X63549505Y-107051204D02*
G01*
X63573773Y-107054804D01*
X63597572Y-107060765D01*
X63620671Y-107069030D01*
X63642850Y-107079520D01*
X63663893Y-107092132D01*
X63683599Y-107106747D01*
X63701777Y-107123223D01*
X63718253Y-107141401D01*
X63732868Y-107161107D01*
X63745480Y-107182150D01*
X63755970Y-107204329D01*
X63764235Y-107227428D01*
X63770196Y-107251227D01*
X63773796Y-107275495D01*
X63775000Y-107299999D01*
X63775000Y-108200001D01*
X63773796Y-108224505D01*
X63770196Y-108248773D01*
X63764235Y-108272572D01*
X63755970Y-108295671D01*
X63745480Y-108317850D01*
X63732868Y-108338893D01*
X63718253Y-108358599D01*
X63701777Y-108376777D01*
X63683599Y-108393253D01*
X63663893Y-108407868D01*
X63642850Y-108420480D01*
X63620671Y-108430970D01*
X63597572Y-108439235D01*
X63573773Y-108445196D01*
X63549505Y-108448796D01*
X63525001Y-108450000D01*
X62874999Y-108450000D01*
X62850495Y-108448796D01*
X62826227Y-108445196D01*
X62802428Y-108439235D01*
X62779329Y-108430970D01*
X62757150Y-108420480D01*
X62736107Y-108407868D01*
X62716401Y-108393253D01*
X62698223Y-108376777D01*
X62681747Y-108358599D01*
X62667132Y-108338893D01*
X62654520Y-108317850D01*
X62644030Y-108295671D01*
X62635765Y-108272572D01*
X62629804Y-108248773D01*
X62626204Y-108224505D01*
X62625000Y-108200001D01*
X62625000Y-107299999D01*
X62626204Y-107275495D01*
X62629804Y-107251227D01*
X62635765Y-107227428D01*
X62644030Y-107204329D01*
X62654520Y-107182150D01*
X62667132Y-107161107D01*
X62681747Y-107141401D01*
X62698223Y-107123223D01*
X62716401Y-107106747D01*
X62736107Y-107092132D01*
X62757150Y-107079520D01*
X62779329Y-107069030D01*
X62802428Y-107060765D01*
X62826227Y-107054804D01*
X62850495Y-107051204D01*
X62874999Y-107050000D01*
X63525001Y-107050000D01*
X63549505Y-107051204D01*
X63549505Y-107051204D01*
G37*
D14*
X63200000Y-107750000D03*
D12*
G36*
X65599505Y-107051204D02*
G01*
X65623773Y-107054804D01*
X65647572Y-107060765D01*
X65670671Y-107069030D01*
X65692850Y-107079520D01*
X65713893Y-107092132D01*
X65733599Y-107106747D01*
X65751777Y-107123223D01*
X65768253Y-107141401D01*
X65782868Y-107161107D01*
X65795480Y-107182150D01*
X65805970Y-107204329D01*
X65814235Y-107227428D01*
X65820196Y-107251227D01*
X65823796Y-107275495D01*
X65825000Y-107299999D01*
X65825000Y-108200001D01*
X65823796Y-108224505D01*
X65820196Y-108248773D01*
X65814235Y-108272572D01*
X65805970Y-108295671D01*
X65795480Y-108317850D01*
X65782868Y-108338893D01*
X65768253Y-108358599D01*
X65751777Y-108376777D01*
X65733599Y-108393253D01*
X65713893Y-108407868D01*
X65692850Y-108420480D01*
X65670671Y-108430970D01*
X65647572Y-108439235D01*
X65623773Y-108445196D01*
X65599505Y-108448796D01*
X65575001Y-108450000D01*
X64924999Y-108450000D01*
X64900495Y-108448796D01*
X64876227Y-108445196D01*
X64852428Y-108439235D01*
X64829329Y-108430970D01*
X64807150Y-108420480D01*
X64786107Y-108407868D01*
X64766401Y-108393253D01*
X64748223Y-108376777D01*
X64731747Y-108358599D01*
X64717132Y-108338893D01*
X64704520Y-108317850D01*
X64694030Y-108295671D01*
X64685765Y-108272572D01*
X64679804Y-108248773D01*
X64676204Y-108224505D01*
X64675000Y-108200001D01*
X64675000Y-107299999D01*
X64676204Y-107275495D01*
X64679804Y-107251227D01*
X64685765Y-107227428D01*
X64694030Y-107204329D01*
X64704520Y-107182150D01*
X64717132Y-107161107D01*
X64731747Y-107141401D01*
X64748223Y-107123223D01*
X64766401Y-107106747D01*
X64786107Y-107092132D01*
X64807150Y-107079520D01*
X64829329Y-107069030D01*
X64852428Y-107060765D01*
X64876227Y-107054804D01*
X64900495Y-107051204D01*
X64924999Y-107050000D01*
X65575001Y-107050000D01*
X65599505Y-107051204D01*
X65599505Y-107051204D01*
G37*
D14*
X65250000Y-107750000D03*
D12*
G36*
X82724505Y-113901204D02*
G01*
X82748773Y-113904804D01*
X82772572Y-113910765D01*
X82795671Y-113919030D01*
X82817850Y-113929520D01*
X82838893Y-113942132D01*
X82858599Y-113956747D01*
X82876777Y-113973223D01*
X82893253Y-113991401D01*
X82907868Y-114011107D01*
X82920480Y-114032150D01*
X82930970Y-114054329D01*
X82939235Y-114077428D01*
X82945196Y-114101227D01*
X82948796Y-114125495D01*
X82950000Y-114149999D01*
X82950000Y-114800001D01*
X82948796Y-114824505D01*
X82945196Y-114848773D01*
X82939235Y-114872572D01*
X82930970Y-114895671D01*
X82920480Y-114917850D01*
X82907868Y-114938893D01*
X82893253Y-114958599D01*
X82876777Y-114976777D01*
X82858599Y-114993253D01*
X82838893Y-115007868D01*
X82817850Y-115020480D01*
X82795671Y-115030970D01*
X82772572Y-115039235D01*
X82748773Y-115045196D01*
X82724505Y-115048796D01*
X82700001Y-115050000D01*
X81799999Y-115050000D01*
X81775495Y-115048796D01*
X81751227Y-115045196D01*
X81727428Y-115039235D01*
X81704329Y-115030970D01*
X81682150Y-115020480D01*
X81661107Y-115007868D01*
X81641401Y-114993253D01*
X81623223Y-114976777D01*
X81606747Y-114958599D01*
X81592132Y-114938893D01*
X81579520Y-114917850D01*
X81569030Y-114895671D01*
X81560765Y-114872572D01*
X81554804Y-114848773D01*
X81551204Y-114824505D01*
X81550000Y-114800001D01*
X81550000Y-114149999D01*
X81551204Y-114125495D01*
X81554804Y-114101227D01*
X81560765Y-114077428D01*
X81569030Y-114054329D01*
X81579520Y-114032150D01*
X81592132Y-114011107D01*
X81606747Y-113991401D01*
X81623223Y-113973223D01*
X81641401Y-113956747D01*
X81661107Y-113942132D01*
X81682150Y-113929520D01*
X81704329Y-113919030D01*
X81727428Y-113910765D01*
X81751227Y-113904804D01*
X81775495Y-113901204D01*
X81799999Y-113900000D01*
X82700001Y-113900000D01*
X82724505Y-113901204D01*
X82724505Y-113901204D01*
G37*
D14*
X82250000Y-114475000D03*
D12*
G36*
X82724505Y-115951204D02*
G01*
X82748773Y-115954804D01*
X82772572Y-115960765D01*
X82795671Y-115969030D01*
X82817850Y-115979520D01*
X82838893Y-115992132D01*
X82858599Y-116006747D01*
X82876777Y-116023223D01*
X82893253Y-116041401D01*
X82907868Y-116061107D01*
X82920480Y-116082150D01*
X82930970Y-116104329D01*
X82939235Y-116127428D01*
X82945196Y-116151227D01*
X82948796Y-116175495D01*
X82950000Y-116199999D01*
X82950000Y-116850001D01*
X82948796Y-116874505D01*
X82945196Y-116898773D01*
X82939235Y-116922572D01*
X82930970Y-116945671D01*
X82920480Y-116967850D01*
X82907868Y-116988893D01*
X82893253Y-117008599D01*
X82876777Y-117026777D01*
X82858599Y-117043253D01*
X82838893Y-117057868D01*
X82817850Y-117070480D01*
X82795671Y-117080970D01*
X82772572Y-117089235D01*
X82748773Y-117095196D01*
X82724505Y-117098796D01*
X82700001Y-117100000D01*
X81799999Y-117100000D01*
X81775495Y-117098796D01*
X81751227Y-117095196D01*
X81727428Y-117089235D01*
X81704329Y-117080970D01*
X81682150Y-117070480D01*
X81661107Y-117057868D01*
X81641401Y-117043253D01*
X81623223Y-117026777D01*
X81606747Y-117008599D01*
X81592132Y-116988893D01*
X81579520Y-116967850D01*
X81569030Y-116945671D01*
X81560765Y-116922572D01*
X81554804Y-116898773D01*
X81551204Y-116874505D01*
X81550000Y-116850001D01*
X81550000Y-116199999D01*
X81551204Y-116175495D01*
X81554804Y-116151227D01*
X81560765Y-116127428D01*
X81569030Y-116104329D01*
X81579520Y-116082150D01*
X81592132Y-116061107D01*
X81606747Y-116041401D01*
X81623223Y-116023223D01*
X81641401Y-116006747D01*
X81661107Y-115992132D01*
X81682150Y-115979520D01*
X81704329Y-115969030D01*
X81727428Y-115960765D01*
X81751227Y-115954804D01*
X81775495Y-115951204D01*
X81799999Y-115950000D01*
X82700001Y-115950000D01*
X82724505Y-115951204D01*
X82724505Y-115951204D01*
G37*
D14*
X82250000Y-116525000D03*
D12*
G36*
X63574505Y-102551204D02*
G01*
X63598773Y-102554804D01*
X63622572Y-102560765D01*
X63645671Y-102569030D01*
X63667850Y-102579520D01*
X63688893Y-102592132D01*
X63708599Y-102606747D01*
X63726777Y-102623223D01*
X63743253Y-102641401D01*
X63757868Y-102661107D01*
X63770480Y-102682150D01*
X63780970Y-102704329D01*
X63789235Y-102727428D01*
X63795196Y-102751227D01*
X63798796Y-102775495D01*
X63800000Y-102799999D01*
X63800000Y-103700001D01*
X63798796Y-103724505D01*
X63795196Y-103748773D01*
X63789235Y-103772572D01*
X63780970Y-103795671D01*
X63770480Y-103817850D01*
X63757868Y-103838893D01*
X63743253Y-103858599D01*
X63726777Y-103876777D01*
X63708599Y-103893253D01*
X63688893Y-103907868D01*
X63667850Y-103920480D01*
X63645671Y-103930970D01*
X63622572Y-103939235D01*
X63598773Y-103945196D01*
X63574505Y-103948796D01*
X63550001Y-103950000D01*
X62899999Y-103950000D01*
X62875495Y-103948796D01*
X62851227Y-103945196D01*
X62827428Y-103939235D01*
X62804329Y-103930970D01*
X62782150Y-103920480D01*
X62761107Y-103907868D01*
X62741401Y-103893253D01*
X62723223Y-103876777D01*
X62706747Y-103858599D01*
X62692132Y-103838893D01*
X62679520Y-103817850D01*
X62669030Y-103795671D01*
X62660765Y-103772572D01*
X62654804Y-103748773D01*
X62651204Y-103724505D01*
X62650000Y-103700001D01*
X62650000Y-102799999D01*
X62651204Y-102775495D01*
X62654804Y-102751227D01*
X62660765Y-102727428D01*
X62669030Y-102704329D01*
X62679520Y-102682150D01*
X62692132Y-102661107D01*
X62706747Y-102641401D01*
X62723223Y-102623223D01*
X62741401Y-102606747D01*
X62761107Y-102592132D01*
X62782150Y-102579520D01*
X62804329Y-102569030D01*
X62827428Y-102560765D01*
X62851227Y-102554804D01*
X62875495Y-102551204D01*
X62899999Y-102550000D01*
X63550001Y-102550000D01*
X63574505Y-102551204D01*
X63574505Y-102551204D01*
G37*
D14*
X63225000Y-103250000D03*
D12*
G36*
X65624505Y-102551204D02*
G01*
X65648773Y-102554804D01*
X65672572Y-102560765D01*
X65695671Y-102569030D01*
X65717850Y-102579520D01*
X65738893Y-102592132D01*
X65758599Y-102606747D01*
X65776777Y-102623223D01*
X65793253Y-102641401D01*
X65807868Y-102661107D01*
X65820480Y-102682150D01*
X65830970Y-102704329D01*
X65839235Y-102727428D01*
X65845196Y-102751227D01*
X65848796Y-102775495D01*
X65850000Y-102799999D01*
X65850000Y-103700001D01*
X65848796Y-103724505D01*
X65845196Y-103748773D01*
X65839235Y-103772572D01*
X65830970Y-103795671D01*
X65820480Y-103817850D01*
X65807868Y-103838893D01*
X65793253Y-103858599D01*
X65776777Y-103876777D01*
X65758599Y-103893253D01*
X65738893Y-103907868D01*
X65717850Y-103920480D01*
X65695671Y-103930970D01*
X65672572Y-103939235D01*
X65648773Y-103945196D01*
X65624505Y-103948796D01*
X65600001Y-103950000D01*
X64949999Y-103950000D01*
X64925495Y-103948796D01*
X64901227Y-103945196D01*
X64877428Y-103939235D01*
X64854329Y-103930970D01*
X64832150Y-103920480D01*
X64811107Y-103907868D01*
X64791401Y-103893253D01*
X64773223Y-103876777D01*
X64756747Y-103858599D01*
X64742132Y-103838893D01*
X64729520Y-103817850D01*
X64719030Y-103795671D01*
X64710765Y-103772572D01*
X64704804Y-103748773D01*
X64701204Y-103724505D01*
X64700000Y-103700001D01*
X64700000Y-102799999D01*
X64701204Y-102775495D01*
X64704804Y-102751227D01*
X64710765Y-102727428D01*
X64719030Y-102704329D01*
X64729520Y-102682150D01*
X64742132Y-102661107D01*
X64756747Y-102641401D01*
X64773223Y-102623223D01*
X64791401Y-102606747D01*
X64811107Y-102592132D01*
X64832150Y-102579520D01*
X64854329Y-102569030D01*
X64877428Y-102560765D01*
X64901227Y-102554804D01*
X64925495Y-102551204D01*
X64949999Y-102550000D01*
X65600001Y-102550000D01*
X65624505Y-102551204D01*
X65624505Y-102551204D01*
G37*
D14*
X65275000Y-103250000D03*
D12*
G36*
X80974505Y-125901204D02*
G01*
X80998773Y-125904804D01*
X81022572Y-125910765D01*
X81045671Y-125919030D01*
X81067850Y-125929520D01*
X81088893Y-125942132D01*
X81108599Y-125956747D01*
X81126777Y-125973223D01*
X81143253Y-125991401D01*
X81157868Y-126011107D01*
X81170480Y-126032150D01*
X81180970Y-126054329D01*
X81189235Y-126077428D01*
X81195196Y-126101227D01*
X81198796Y-126125495D01*
X81200000Y-126149999D01*
X81200000Y-126800001D01*
X81198796Y-126824505D01*
X81195196Y-126848773D01*
X81189235Y-126872572D01*
X81180970Y-126895671D01*
X81170480Y-126917850D01*
X81157868Y-126938893D01*
X81143253Y-126958599D01*
X81126777Y-126976777D01*
X81108599Y-126993253D01*
X81088893Y-127007868D01*
X81067850Y-127020480D01*
X81045671Y-127030970D01*
X81022572Y-127039235D01*
X80998773Y-127045196D01*
X80974505Y-127048796D01*
X80950001Y-127050000D01*
X80049999Y-127050000D01*
X80025495Y-127048796D01*
X80001227Y-127045196D01*
X79977428Y-127039235D01*
X79954329Y-127030970D01*
X79932150Y-127020480D01*
X79911107Y-127007868D01*
X79891401Y-126993253D01*
X79873223Y-126976777D01*
X79856747Y-126958599D01*
X79842132Y-126938893D01*
X79829520Y-126917850D01*
X79819030Y-126895671D01*
X79810765Y-126872572D01*
X79804804Y-126848773D01*
X79801204Y-126824505D01*
X79800000Y-126800001D01*
X79800000Y-126149999D01*
X79801204Y-126125495D01*
X79804804Y-126101227D01*
X79810765Y-126077428D01*
X79819030Y-126054329D01*
X79829520Y-126032150D01*
X79842132Y-126011107D01*
X79856747Y-125991401D01*
X79873223Y-125973223D01*
X79891401Y-125956747D01*
X79911107Y-125942132D01*
X79932150Y-125929520D01*
X79954329Y-125919030D01*
X79977428Y-125910765D01*
X80001227Y-125904804D01*
X80025495Y-125901204D01*
X80049999Y-125900000D01*
X80950001Y-125900000D01*
X80974505Y-125901204D01*
X80974505Y-125901204D01*
G37*
D14*
X80500000Y-126475000D03*
D12*
G36*
X80974505Y-127951204D02*
G01*
X80998773Y-127954804D01*
X81022572Y-127960765D01*
X81045671Y-127969030D01*
X81067850Y-127979520D01*
X81088893Y-127992132D01*
X81108599Y-128006747D01*
X81126777Y-128023223D01*
X81143253Y-128041401D01*
X81157868Y-128061107D01*
X81170480Y-128082150D01*
X81180970Y-128104329D01*
X81189235Y-128127428D01*
X81195196Y-128151227D01*
X81198796Y-128175495D01*
X81200000Y-128199999D01*
X81200000Y-128850001D01*
X81198796Y-128874505D01*
X81195196Y-128898773D01*
X81189235Y-128922572D01*
X81180970Y-128945671D01*
X81170480Y-128967850D01*
X81157868Y-128988893D01*
X81143253Y-129008599D01*
X81126777Y-129026777D01*
X81108599Y-129043253D01*
X81088893Y-129057868D01*
X81067850Y-129070480D01*
X81045671Y-129080970D01*
X81022572Y-129089235D01*
X80998773Y-129095196D01*
X80974505Y-129098796D01*
X80950001Y-129100000D01*
X80049999Y-129100000D01*
X80025495Y-129098796D01*
X80001227Y-129095196D01*
X79977428Y-129089235D01*
X79954329Y-129080970D01*
X79932150Y-129070480D01*
X79911107Y-129057868D01*
X79891401Y-129043253D01*
X79873223Y-129026777D01*
X79856747Y-129008599D01*
X79842132Y-128988893D01*
X79829520Y-128967850D01*
X79819030Y-128945671D01*
X79810765Y-128922572D01*
X79804804Y-128898773D01*
X79801204Y-128874505D01*
X79800000Y-128850001D01*
X79800000Y-128199999D01*
X79801204Y-128175495D01*
X79804804Y-128151227D01*
X79810765Y-128127428D01*
X79819030Y-128104329D01*
X79829520Y-128082150D01*
X79842132Y-128061107D01*
X79856747Y-128041401D01*
X79873223Y-128023223D01*
X79891401Y-128006747D01*
X79911107Y-127992132D01*
X79932150Y-127979520D01*
X79954329Y-127969030D01*
X79977428Y-127960765D01*
X80001227Y-127954804D01*
X80025495Y-127951204D01*
X80049999Y-127950000D01*
X80950001Y-127950000D01*
X80974505Y-127951204D01*
X80974505Y-127951204D01*
G37*
D14*
X80500000Y-128525000D03*
D12*
G36*
X64074505Y-126051204D02*
G01*
X64098773Y-126054804D01*
X64122572Y-126060765D01*
X64145671Y-126069030D01*
X64167850Y-126079520D01*
X64188893Y-126092132D01*
X64208599Y-126106747D01*
X64226777Y-126123223D01*
X64243253Y-126141401D01*
X64257868Y-126161107D01*
X64270480Y-126182150D01*
X64280970Y-126204329D01*
X64289235Y-126227428D01*
X64295196Y-126251227D01*
X64298796Y-126275495D01*
X64300000Y-126299999D01*
X64300000Y-127200001D01*
X64298796Y-127224505D01*
X64295196Y-127248773D01*
X64289235Y-127272572D01*
X64280970Y-127295671D01*
X64270480Y-127317850D01*
X64257868Y-127338893D01*
X64243253Y-127358599D01*
X64226777Y-127376777D01*
X64208599Y-127393253D01*
X64188893Y-127407868D01*
X64167850Y-127420480D01*
X64145671Y-127430970D01*
X64122572Y-127439235D01*
X64098773Y-127445196D01*
X64074505Y-127448796D01*
X64050001Y-127450000D01*
X63399999Y-127450000D01*
X63375495Y-127448796D01*
X63351227Y-127445196D01*
X63327428Y-127439235D01*
X63304329Y-127430970D01*
X63282150Y-127420480D01*
X63261107Y-127407868D01*
X63241401Y-127393253D01*
X63223223Y-127376777D01*
X63206747Y-127358599D01*
X63192132Y-127338893D01*
X63179520Y-127317850D01*
X63169030Y-127295671D01*
X63160765Y-127272572D01*
X63154804Y-127248773D01*
X63151204Y-127224505D01*
X63150000Y-127200001D01*
X63150000Y-126299999D01*
X63151204Y-126275495D01*
X63154804Y-126251227D01*
X63160765Y-126227428D01*
X63169030Y-126204329D01*
X63179520Y-126182150D01*
X63192132Y-126161107D01*
X63206747Y-126141401D01*
X63223223Y-126123223D01*
X63241401Y-126106747D01*
X63261107Y-126092132D01*
X63282150Y-126079520D01*
X63304329Y-126069030D01*
X63327428Y-126060765D01*
X63351227Y-126054804D01*
X63375495Y-126051204D01*
X63399999Y-126050000D01*
X64050001Y-126050000D01*
X64074505Y-126051204D01*
X64074505Y-126051204D01*
G37*
D14*
X63725000Y-126750000D03*
D12*
G36*
X66124505Y-126051204D02*
G01*
X66148773Y-126054804D01*
X66172572Y-126060765D01*
X66195671Y-126069030D01*
X66217850Y-126079520D01*
X66238893Y-126092132D01*
X66258599Y-126106747D01*
X66276777Y-126123223D01*
X66293253Y-126141401D01*
X66307868Y-126161107D01*
X66320480Y-126182150D01*
X66330970Y-126204329D01*
X66339235Y-126227428D01*
X66345196Y-126251227D01*
X66348796Y-126275495D01*
X66350000Y-126299999D01*
X66350000Y-127200001D01*
X66348796Y-127224505D01*
X66345196Y-127248773D01*
X66339235Y-127272572D01*
X66330970Y-127295671D01*
X66320480Y-127317850D01*
X66307868Y-127338893D01*
X66293253Y-127358599D01*
X66276777Y-127376777D01*
X66258599Y-127393253D01*
X66238893Y-127407868D01*
X66217850Y-127420480D01*
X66195671Y-127430970D01*
X66172572Y-127439235D01*
X66148773Y-127445196D01*
X66124505Y-127448796D01*
X66100001Y-127450000D01*
X65449999Y-127450000D01*
X65425495Y-127448796D01*
X65401227Y-127445196D01*
X65377428Y-127439235D01*
X65354329Y-127430970D01*
X65332150Y-127420480D01*
X65311107Y-127407868D01*
X65291401Y-127393253D01*
X65273223Y-127376777D01*
X65256747Y-127358599D01*
X65242132Y-127338893D01*
X65229520Y-127317850D01*
X65219030Y-127295671D01*
X65210765Y-127272572D01*
X65204804Y-127248773D01*
X65201204Y-127224505D01*
X65200000Y-127200001D01*
X65200000Y-126299999D01*
X65201204Y-126275495D01*
X65204804Y-126251227D01*
X65210765Y-126227428D01*
X65219030Y-126204329D01*
X65229520Y-126182150D01*
X65242132Y-126161107D01*
X65256747Y-126141401D01*
X65273223Y-126123223D01*
X65291401Y-126106747D01*
X65311107Y-126092132D01*
X65332150Y-126079520D01*
X65354329Y-126069030D01*
X65377428Y-126060765D01*
X65401227Y-126054804D01*
X65425495Y-126051204D01*
X65449999Y-126050000D01*
X66100001Y-126050000D01*
X66124505Y-126051204D01*
X66124505Y-126051204D01*
G37*
D14*
X65775000Y-126750000D03*
D12*
G36*
X80974505Y-132701204D02*
G01*
X80998773Y-132704804D01*
X81022572Y-132710765D01*
X81045671Y-132719030D01*
X81067850Y-132729520D01*
X81088893Y-132742132D01*
X81108599Y-132756747D01*
X81126777Y-132773223D01*
X81143253Y-132791401D01*
X81157868Y-132811107D01*
X81170480Y-132832150D01*
X81180970Y-132854329D01*
X81189235Y-132877428D01*
X81195196Y-132901227D01*
X81198796Y-132925495D01*
X81200000Y-132949999D01*
X81200000Y-133600001D01*
X81198796Y-133624505D01*
X81195196Y-133648773D01*
X81189235Y-133672572D01*
X81180970Y-133695671D01*
X81170480Y-133717850D01*
X81157868Y-133738893D01*
X81143253Y-133758599D01*
X81126777Y-133776777D01*
X81108599Y-133793253D01*
X81088893Y-133807868D01*
X81067850Y-133820480D01*
X81045671Y-133830970D01*
X81022572Y-133839235D01*
X80998773Y-133845196D01*
X80974505Y-133848796D01*
X80950001Y-133850000D01*
X80049999Y-133850000D01*
X80025495Y-133848796D01*
X80001227Y-133845196D01*
X79977428Y-133839235D01*
X79954329Y-133830970D01*
X79932150Y-133820480D01*
X79911107Y-133807868D01*
X79891401Y-133793253D01*
X79873223Y-133776777D01*
X79856747Y-133758599D01*
X79842132Y-133738893D01*
X79829520Y-133717850D01*
X79819030Y-133695671D01*
X79810765Y-133672572D01*
X79804804Y-133648773D01*
X79801204Y-133624505D01*
X79800000Y-133600001D01*
X79800000Y-132949999D01*
X79801204Y-132925495D01*
X79804804Y-132901227D01*
X79810765Y-132877428D01*
X79819030Y-132854329D01*
X79829520Y-132832150D01*
X79842132Y-132811107D01*
X79856747Y-132791401D01*
X79873223Y-132773223D01*
X79891401Y-132756747D01*
X79911107Y-132742132D01*
X79932150Y-132729520D01*
X79954329Y-132719030D01*
X79977428Y-132710765D01*
X80001227Y-132704804D01*
X80025495Y-132701204D01*
X80049999Y-132700000D01*
X80950001Y-132700000D01*
X80974505Y-132701204D01*
X80974505Y-132701204D01*
G37*
D14*
X80500000Y-133275000D03*
D12*
G36*
X80974505Y-130651204D02*
G01*
X80998773Y-130654804D01*
X81022572Y-130660765D01*
X81045671Y-130669030D01*
X81067850Y-130679520D01*
X81088893Y-130692132D01*
X81108599Y-130706747D01*
X81126777Y-130723223D01*
X81143253Y-130741401D01*
X81157868Y-130761107D01*
X81170480Y-130782150D01*
X81180970Y-130804329D01*
X81189235Y-130827428D01*
X81195196Y-130851227D01*
X81198796Y-130875495D01*
X81200000Y-130899999D01*
X81200000Y-131550001D01*
X81198796Y-131574505D01*
X81195196Y-131598773D01*
X81189235Y-131622572D01*
X81180970Y-131645671D01*
X81170480Y-131667850D01*
X81157868Y-131688893D01*
X81143253Y-131708599D01*
X81126777Y-131726777D01*
X81108599Y-131743253D01*
X81088893Y-131757868D01*
X81067850Y-131770480D01*
X81045671Y-131780970D01*
X81022572Y-131789235D01*
X80998773Y-131795196D01*
X80974505Y-131798796D01*
X80950001Y-131800000D01*
X80049999Y-131800000D01*
X80025495Y-131798796D01*
X80001227Y-131795196D01*
X79977428Y-131789235D01*
X79954329Y-131780970D01*
X79932150Y-131770480D01*
X79911107Y-131757868D01*
X79891401Y-131743253D01*
X79873223Y-131726777D01*
X79856747Y-131708599D01*
X79842132Y-131688893D01*
X79829520Y-131667850D01*
X79819030Y-131645671D01*
X79810765Y-131622572D01*
X79804804Y-131598773D01*
X79801204Y-131574505D01*
X79800000Y-131550001D01*
X79800000Y-130899999D01*
X79801204Y-130875495D01*
X79804804Y-130851227D01*
X79810765Y-130827428D01*
X79819030Y-130804329D01*
X79829520Y-130782150D01*
X79842132Y-130761107D01*
X79856747Y-130741401D01*
X79873223Y-130723223D01*
X79891401Y-130706747D01*
X79911107Y-130692132D01*
X79932150Y-130679520D01*
X79954329Y-130669030D01*
X79977428Y-130660765D01*
X80001227Y-130654804D01*
X80025495Y-130651204D01*
X80049999Y-130650000D01*
X80950001Y-130650000D01*
X80974505Y-130651204D01*
X80974505Y-130651204D01*
G37*
D14*
X80500000Y-131225000D03*
D12*
G36*
X63574505Y-111051204D02*
G01*
X63598773Y-111054804D01*
X63622572Y-111060765D01*
X63645671Y-111069030D01*
X63667850Y-111079520D01*
X63688893Y-111092132D01*
X63708599Y-111106747D01*
X63726777Y-111123223D01*
X63743253Y-111141401D01*
X63757868Y-111161107D01*
X63770480Y-111182150D01*
X63780970Y-111204329D01*
X63789235Y-111227428D01*
X63795196Y-111251227D01*
X63798796Y-111275495D01*
X63800000Y-111299999D01*
X63800000Y-112200001D01*
X63798796Y-112224505D01*
X63795196Y-112248773D01*
X63789235Y-112272572D01*
X63780970Y-112295671D01*
X63770480Y-112317850D01*
X63757868Y-112338893D01*
X63743253Y-112358599D01*
X63726777Y-112376777D01*
X63708599Y-112393253D01*
X63688893Y-112407868D01*
X63667850Y-112420480D01*
X63645671Y-112430970D01*
X63622572Y-112439235D01*
X63598773Y-112445196D01*
X63574505Y-112448796D01*
X63550001Y-112450000D01*
X62899999Y-112450000D01*
X62875495Y-112448796D01*
X62851227Y-112445196D01*
X62827428Y-112439235D01*
X62804329Y-112430970D01*
X62782150Y-112420480D01*
X62761107Y-112407868D01*
X62741401Y-112393253D01*
X62723223Y-112376777D01*
X62706747Y-112358599D01*
X62692132Y-112338893D01*
X62679520Y-112317850D01*
X62669030Y-112295671D01*
X62660765Y-112272572D01*
X62654804Y-112248773D01*
X62651204Y-112224505D01*
X62650000Y-112200001D01*
X62650000Y-111299999D01*
X62651204Y-111275495D01*
X62654804Y-111251227D01*
X62660765Y-111227428D01*
X62669030Y-111204329D01*
X62679520Y-111182150D01*
X62692132Y-111161107D01*
X62706747Y-111141401D01*
X62723223Y-111123223D01*
X62741401Y-111106747D01*
X62761107Y-111092132D01*
X62782150Y-111079520D01*
X62804329Y-111069030D01*
X62827428Y-111060765D01*
X62851227Y-111054804D01*
X62875495Y-111051204D01*
X62899999Y-111050000D01*
X63550001Y-111050000D01*
X63574505Y-111051204D01*
X63574505Y-111051204D01*
G37*
D14*
X63225000Y-111750000D03*
D12*
G36*
X65624505Y-111051204D02*
G01*
X65648773Y-111054804D01*
X65672572Y-111060765D01*
X65695671Y-111069030D01*
X65717850Y-111079520D01*
X65738893Y-111092132D01*
X65758599Y-111106747D01*
X65776777Y-111123223D01*
X65793253Y-111141401D01*
X65807868Y-111161107D01*
X65820480Y-111182150D01*
X65830970Y-111204329D01*
X65839235Y-111227428D01*
X65845196Y-111251227D01*
X65848796Y-111275495D01*
X65850000Y-111299999D01*
X65850000Y-112200001D01*
X65848796Y-112224505D01*
X65845196Y-112248773D01*
X65839235Y-112272572D01*
X65830970Y-112295671D01*
X65820480Y-112317850D01*
X65807868Y-112338893D01*
X65793253Y-112358599D01*
X65776777Y-112376777D01*
X65758599Y-112393253D01*
X65738893Y-112407868D01*
X65717850Y-112420480D01*
X65695671Y-112430970D01*
X65672572Y-112439235D01*
X65648773Y-112445196D01*
X65624505Y-112448796D01*
X65600001Y-112450000D01*
X64949999Y-112450000D01*
X64925495Y-112448796D01*
X64901227Y-112445196D01*
X64877428Y-112439235D01*
X64854329Y-112430970D01*
X64832150Y-112420480D01*
X64811107Y-112407868D01*
X64791401Y-112393253D01*
X64773223Y-112376777D01*
X64756747Y-112358599D01*
X64742132Y-112338893D01*
X64729520Y-112317850D01*
X64719030Y-112295671D01*
X64710765Y-112272572D01*
X64704804Y-112248773D01*
X64701204Y-112224505D01*
X64700000Y-112200001D01*
X64700000Y-111299999D01*
X64701204Y-111275495D01*
X64704804Y-111251227D01*
X64710765Y-111227428D01*
X64719030Y-111204329D01*
X64729520Y-111182150D01*
X64742132Y-111161107D01*
X64756747Y-111141401D01*
X64773223Y-111123223D01*
X64791401Y-111106747D01*
X64811107Y-111092132D01*
X64832150Y-111079520D01*
X64854329Y-111069030D01*
X64877428Y-111060765D01*
X64901227Y-111054804D01*
X64925495Y-111051204D01*
X64949999Y-111050000D01*
X65600001Y-111050000D01*
X65624505Y-111051204D01*
X65624505Y-111051204D01*
G37*
D14*
X65275000Y-111750000D03*
D12*
G36*
X64324505Y-133801204D02*
G01*
X64348773Y-133804804D01*
X64372572Y-133810765D01*
X64395671Y-133819030D01*
X64417850Y-133829520D01*
X64438893Y-133842132D01*
X64458599Y-133856747D01*
X64476777Y-133873223D01*
X64493253Y-133891401D01*
X64507868Y-133911107D01*
X64520480Y-133932150D01*
X64530970Y-133954329D01*
X64539235Y-133977428D01*
X64545196Y-134001227D01*
X64548796Y-134025495D01*
X64550000Y-134049999D01*
X64550000Y-134950001D01*
X64548796Y-134974505D01*
X64545196Y-134998773D01*
X64539235Y-135022572D01*
X64530970Y-135045671D01*
X64520480Y-135067850D01*
X64507868Y-135088893D01*
X64493253Y-135108599D01*
X64476777Y-135126777D01*
X64458599Y-135143253D01*
X64438893Y-135157868D01*
X64417850Y-135170480D01*
X64395671Y-135180970D01*
X64372572Y-135189235D01*
X64348773Y-135195196D01*
X64324505Y-135198796D01*
X64300001Y-135200000D01*
X63649999Y-135200000D01*
X63625495Y-135198796D01*
X63601227Y-135195196D01*
X63577428Y-135189235D01*
X63554329Y-135180970D01*
X63532150Y-135170480D01*
X63511107Y-135157868D01*
X63491401Y-135143253D01*
X63473223Y-135126777D01*
X63456747Y-135108599D01*
X63442132Y-135088893D01*
X63429520Y-135067850D01*
X63419030Y-135045671D01*
X63410765Y-135022572D01*
X63404804Y-134998773D01*
X63401204Y-134974505D01*
X63400000Y-134950001D01*
X63400000Y-134049999D01*
X63401204Y-134025495D01*
X63404804Y-134001227D01*
X63410765Y-133977428D01*
X63419030Y-133954329D01*
X63429520Y-133932150D01*
X63442132Y-133911107D01*
X63456747Y-133891401D01*
X63473223Y-133873223D01*
X63491401Y-133856747D01*
X63511107Y-133842132D01*
X63532150Y-133829520D01*
X63554329Y-133819030D01*
X63577428Y-133810765D01*
X63601227Y-133804804D01*
X63625495Y-133801204D01*
X63649999Y-133800000D01*
X64300001Y-133800000D01*
X64324505Y-133801204D01*
X64324505Y-133801204D01*
G37*
D14*
X63975000Y-134500000D03*
D12*
G36*
X66374505Y-133801204D02*
G01*
X66398773Y-133804804D01*
X66422572Y-133810765D01*
X66445671Y-133819030D01*
X66467850Y-133829520D01*
X66488893Y-133842132D01*
X66508599Y-133856747D01*
X66526777Y-133873223D01*
X66543253Y-133891401D01*
X66557868Y-133911107D01*
X66570480Y-133932150D01*
X66580970Y-133954329D01*
X66589235Y-133977428D01*
X66595196Y-134001227D01*
X66598796Y-134025495D01*
X66600000Y-134049999D01*
X66600000Y-134950001D01*
X66598796Y-134974505D01*
X66595196Y-134998773D01*
X66589235Y-135022572D01*
X66580970Y-135045671D01*
X66570480Y-135067850D01*
X66557868Y-135088893D01*
X66543253Y-135108599D01*
X66526777Y-135126777D01*
X66508599Y-135143253D01*
X66488893Y-135157868D01*
X66467850Y-135170480D01*
X66445671Y-135180970D01*
X66422572Y-135189235D01*
X66398773Y-135195196D01*
X66374505Y-135198796D01*
X66350001Y-135200000D01*
X65699999Y-135200000D01*
X65675495Y-135198796D01*
X65651227Y-135195196D01*
X65627428Y-135189235D01*
X65604329Y-135180970D01*
X65582150Y-135170480D01*
X65561107Y-135157868D01*
X65541401Y-135143253D01*
X65523223Y-135126777D01*
X65506747Y-135108599D01*
X65492132Y-135088893D01*
X65479520Y-135067850D01*
X65469030Y-135045671D01*
X65460765Y-135022572D01*
X65454804Y-134998773D01*
X65451204Y-134974505D01*
X65450000Y-134950001D01*
X65450000Y-134049999D01*
X65451204Y-134025495D01*
X65454804Y-134001227D01*
X65460765Y-133977428D01*
X65469030Y-133954329D01*
X65479520Y-133932150D01*
X65492132Y-133911107D01*
X65506747Y-133891401D01*
X65523223Y-133873223D01*
X65541401Y-133856747D01*
X65561107Y-133842132D01*
X65582150Y-133829520D01*
X65604329Y-133819030D01*
X65627428Y-133810765D01*
X65651227Y-133804804D01*
X65675495Y-133801204D01*
X65699999Y-133800000D01*
X66350001Y-133800000D01*
X66374505Y-133801204D01*
X66374505Y-133801204D01*
G37*
D14*
X66025000Y-134500000D03*
D12*
G36*
X89149504Y-125876205D02*
G01*
X89173772Y-125879805D01*
X89197571Y-125885766D01*
X89220670Y-125894031D01*
X89242849Y-125904521D01*
X89263892Y-125917133D01*
X89283598Y-125931748D01*
X89301776Y-125948224D01*
X89318252Y-125966402D01*
X89332867Y-125986108D01*
X89345479Y-126007151D01*
X89355969Y-126029330D01*
X89364234Y-126052429D01*
X89370195Y-126076228D01*
X89373795Y-126100496D01*
X89374999Y-126125000D01*
X89374999Y-126775002D01*
X89373795Y-126799506D01*
X89370195Y-126823774D01*
X89364234Y-126847573D01*
X89355969Y-126870672D01*
X89345479Y-126892851D01*
X89332867Y-126913894D01*
X89318252Y-126933600D01*
X89301776Y-126951778D01*
X89283598Y-126968254D01*
X89263892Y-126982869D01*
X89242849Y-126995481D01*
X89220670Y-127005971D01*
X89197571Y-127014236D01*
X89173772Y-127020197D01*
X89149504Y-127023797D01*
X89125000Y-127025001D01*
X88224998Y-127025001D01*
X88200494Y-127023797D01*
X88176226Y-127020197D01*
X88152427Y-127014236D01*
X88129328Y-127005971D01*
X88107149Y-126995481D01*
X88086106Y-126982869D01*
X88066400Y-126968254D01*
X88048222Y-126951778D01*
X88031746Y-126933600D01*
X88017131Y-126913894D01*
X88004519Y-126892851D01*
X87994029Y-126870672D01*
X87985764Y-126847573D01*
X87979803Y-126823774D01*
X87976203Y-126799506D01*
X87974999Y-126775002D01*
X87974999Y-126125000D01*
X87976203Y-126100496D01*
X87979803Y-126076228D01*
X87985764Y-126052429D01*
X87994029Y-126029330D01*
X88004519Y-126007151D01*
X88017131Y-125986108D01*
X88031746Y-125966402D01*
X88048222Y-125948224D01*
X88066400Y-125931748D01*
X88086106Y-125917133D01*
X88107149Y-125904521D01*
X88129328Y-125894031D01*
X88152427Y-125885766D01*
X88176226Y-125879805D01*
X88200494Y-125876205D01*
X88224998Y-125875001D01*
X89125000Y-125875001D01*
X89149504Y-125876205D01*
X89149504Y-125876205D01*
G37*
D14*
X88674999Y-126450001D03*
D12*
G36*
X89149504Y-127926205D02*
G01*
X89173772Y-127929805D01*
X89197571Y-127935766D01*
X89220670Y-127944031D01*
X89242849Y-127954521D01*
X89263892Y-127967133D01*
X89283598Y-127981748D01*
X89301776Y-127998224D01*
X89318252Y-128016402D01*
X89332867Y-128036108D01*
X89345479Y-128057151D01*
X89355969Y-128079330D01*
X89364234Y-128102429D01*
X89370195Y-128126228D01*
X89373795Y-128150496D01*
X89374999Y-128175000D01*
X89374999Y-128825002D01*
X89373795Y-128849506D01*
X89370195Y-128873774D01*
X89364234Y-128897573D01*
X89355969Y-128920672D01*
X89345479Y-128942851D01*
X89332867Y-128963894D01*
X89318252Y-128983600D01*
X89301776Y-129001778D01*
X89283598Y-129018254D01*
X89263892Y-129032869D01*
X89242849Y-129045481D01*
X89220670Y-129055971D01*
X89197571Y-129064236D01*
X89173772Y-129070197D01*
X89149504Y-129073797D01*
X89125000Y-129075001D01*
X88224998Y-129075001D01*
X88200494Y-129073797D01*
X88176226Y-129070197D01*
X88152427Y-129064236D01*
X88129328Y-129055971D01*
X88107149Y-129045481D01*
X88086106Y-129032869D01*
X88066400Y-129018254D01*
X88048222Y-129001778D01*
X88031746Y-128983600D01*
X88017131Y-128963894D01*
X88004519Y-128942851D01*
X87994029Y-128920672D01*
X87985764Y-128897573D01*
X87979803Y-128873774D01*
X87976203Y-128849506D01*
X87974999Y-128825002D01*
X87974999Y-128175000D01*
X87976203Y-128150496D01*
X87979803Y-128126228D01*
X87985764Y-128102429D01*
X87994029Y-128079330D01*
X88004519Y-128057151D01*
X88017131Y-128036108D01*
X88031746Y-128016402D01*
X88048222Y-127998224D01*
X88066400Y-127981748D01*
X88086106Y-127967133D01*
X88107149Y-127954521D01*
X88129328Y-127944031D01*
X88152427Y-127935766D01*
X88176226Y-127929805D01*
X88200494Y-127926205D01*
X88224998Y-127925001D01*
X89125000Y-127925001D01*
X89149504Y-127926205D01*
X89149504Y-127926205D01*
G37*
D14*
X88674999Y-128500001D03*
D12*
G36*
X84974505Y-125901204D02*
G01*
X84998773Y-125904804D01*
X85022572Y-125910765D01*
X85045671Y-125919030D01*
X85067850Y-125929520D01*
X85088893Y-125942132D01*
X85108599Y-125956747D01*
X85126777Y-125973223D01*
X85143253Y-125991401D01*
X85157868Y-126011107D01*
X85170480Y-126032150D01*
X85180970Y-126054329D01*
X85189235Y-126077428D01*
X85195196Y-126101227D01*
X85198796Y-126125495D01*
X85200000Y-126149999D01*
X85200000Y-126800001D01*
X85198796Y-126824505D01*
X85195196Y-126848773D01*
X85189235Y-126872572D01*
X85180970Y-126895671D01*
X85170480Y-126917850D01*
X85157868Y-126938893D01*
X85143253Y-126958599D01*
X85126777Y-126976777D01*
X85108599Y-126993253D01*
X85088893Y-127007868D01*
X85067850Y-127020480D01*
X85045671Y-127030970D01*
X85022572Y-127039235D01*
X84998773Y-127045196D01*
X84974505Y-127048796D01*
X84950001Y-127050000D01*
X84049999Y-127050000D01*
X84025495Y-127048796D01*
X84001227Y-127045196D01*
X83977428Y-127039235D01*
X83954329Y-127030970D01*
X83932150Y-127020480D01*
X83911107Y-127007868D01*
X83891401Y-126993253D01*
X83873223Y-126976777D01*
X83856747Y-126958599D01*
X83842132Y-126938893D01*
X83829520Y-126917850D01*
X83819030Y-126895671D01*
X83810765Y-126872572D01*
X83804804Y-126848773D01*
X83801204Y-126824505D01*
X83800000Y-126800001D01*
X83800000Y-126149999D01*
X83801204Y-126125495D01*
X83804804Y-126101227D01*
X83810765Y-126077428D01*
X83819030Y-126054329D01*
X83829520Y-126032150D01*
X83842132Y-126011107D01*
X83856747Y-125991401D01*
X83873223Y-125973223D01*
X83891401Y-125956747D01*
X83911107Y-125942132D01*
X83932150Y-125929520D01*
X83954329Y-125919030D01*
X83977428Y-125910765D01*
X84001227Y-125904804D01*
X84025495Y-125901204D01*
X84049999Y-125900000D01*
X84950001Y-125900000D01*
X84974505Y-125901204D01*
X84974505Y-125901204D01*
G37*
D14*
X84500000Y-126475000D03*
D12*
G36*
X84974505Y-127951204D02*
G01*
X84998773Y-127954804D01*
X85022572Y-127960765D01*
X85045671Y-127969030D01*
X85067850Y-127979520D01*
X85088893Y-127992132D01*
X85108599Y-128006747D01*
X85126777Y-128023223D01*
X85143253Y-128041401D01*
X85157868Y-128061107D01*
X85170480Y-128082150D01*
X85180970Y-128104329D01*
X85189235Y-128127428D01*
X85195196Y-128151227D01*
X85198796Y-128175495D01*
X85200000Y-128199999D01*
X85200000Y-128850001D01*
X85198796Y-128874505D01*
X85195196Y-128898773D01*
X85189235Y-128922572D01*
X85180970Y-128945671D01*
X85170480Y-128967850D01*
X85157868Y-128988893D01*
X85143253Y-129008599D01*
X85126777Y-129026777D01*
X85108599Y-129043253D01*
X85088893Y-129057868D01*
X85067850Y-129070480D01*
X85045671Y-129080970D01*
X85022572Y-129089235D01*
X84998773Y-129095196D01*
X84974505Y-129098796D01*
X84950001Y-129100000D01*
X84049999Y-129100000D01*
X84025495Y-129098796D01*
X84001227Y-129095196D01*
X83977428Y-129089235D01*
X83954329Y-129080970D01*
X83932150Y-129070480D01*
X83911107Y-129057868D01*
X83891401Y-129043253D01*
X83873223Y-129026777D01*
X83856747Y-129008599D01*
X83842132Y-128988893D01*
X83829520Y-128967850D01*
X83819030Y-128945671D01*
X83810765Y-128922572D01*
X83804804Y-128898773D01*
X83801204Y-128874505D01*
X83800000Y-128850001D01*
X83800000Y-128199999D01*
X83801204Y-128175495D01*
X83804804Y-128151227D01*
X83810765Y-128127428D01*
X83819030Y-128104329D01*
X83829520Y-128082150D01*
X83842132Y-128061107D01*
X83856747Y-128041401D01*
X83873223Y-128023223D01*
X83891401Y-128006747D01*
X83911107Y-127992132D01*
X83932150Y-127979520D01*
X83954329Y-127969030D01*
X83977428Y-127960765D01*
X84001227Y-127954804D01*
X84025495Y-127951204D01*
X84049999Y-127950000D01*
X84950001Y-127950000D01*
X84974505Y-127951204D01*
X84974505Y-127951204D01*
G37*
D14*
X84500000Y-128525000D03*
D12*
G36*
X64074505Y-129801204D02*
G01*
X64098773Y-129804804D01*
X64122572Y-129810765D01*
X64145671Y-129819030D01*
X64167850Y-129829520D01*
X64188893Y-129842132D01*
X64208599Y-129856747D01*
X64226777Y-129873223D01*
X64243253Y-129891401D01*
X64257868Y-129911107D01*
X64270480Y-129932150D01*
X64280970Y-129954329D01*
X64289235Y-129977428D01*
X64295196Y-130001227D01*
X64298796Y-130025495D01*
X64300000Y-130049999D01*
X64300000Y-130950001D01*
X64298796Y-130974505D01*
X64295196Y-130998773D01*
X64289235Y-131022572D01*
X64280970Y-131045671D01*
X64270480Y-131067850D01*
X64257868Y-131088893D01*
X64243253Y-131108599D01*
X64226777Y-131126777D01*
X64208599Y-131143253D01*
X64188893Y-131157868D01*
X64167850Y-131170480D01*
X64145671Y-131180970D01*
X64122572Y-131189235D01*
X64098773Y-131195196D01*
X64074505Y-131198796D01*
X64050001Y-131200000D01*
X63399999Y-131200000D01*
X63375495Y-131198796D01*
X63351227Y-131195196D01*
X63327428Y-131189235D01*
X63304329Y-131180970D01*
X63282150Y-131170480D01*
X63261107Y-131157868D01*
X63241401Y-131143253D01*
X63223223Y-131126777D01*
X63206747Y-131108599D01*
X63192132Y-131088893D01*
X63179520Y-131067850D01*
X63169030Y-131045671D01*
X63160765Y-131022572D01*
X63154804Y-130998773D01*
X63151204Y-130974505D01*
X63150000Y-130950001D01*
X63150000Y-130049999D01*
X63151204Y-130025495D01*
X63154804Y-130001227D01*
X63160765Y-129977428D01*
X63169030Y-129954329D01*
X63179520Y-129932150D01*
X63192132Y-129911107D01*
X63206747Y-129891401D01*
X63223223Y-129873223D01*
X63241401Y-129856747D01*
X63261107Y-129842132D01*
X63282150Y-129829520D01*
X63304329Y-129819030D01*
X63327428Y-129810765D01*
X63351227Y-129804804D01*
X63375495Y-129801204D01*
X63399999Y-129800000D01*
X64050001Y-129800000D01*
X64074505Y-129801204D01*
X64074505Y-129801204D01*
G37*
D14*
X63725000Y-130500000D03*
D12*
G36*
X66124505Y-129801204D02*
G01*
X66148773Y-129804804D01*
X66172572Y-129810765D01*
X66195671Y-129819030D01*
X66217850Y-129829520D01*
X66238893Y-129842132D01*
X66258599Y-129856747D01*
X66276777Y-129873223D01*
X66293253Y-129891401D01*
X66307868Y-129911107D01*
X66320480Y-129932150D01*
X66330970Y-129954329D01*
X66339235Y-129977428D01*
X66345196Y-130001227D01*
X66348796Y-130025495D01*
X66350000Y-130049999D01*
X66350000Y-130950001D01*
X66348796Y-130974505D01*
X66345196Y-130998773D01*
X66339235Y-131022572D01*
X66330970Y-131045671D01*
X66320480Y-131067850D01*
X66307868Y-131088893D01*
X66293253Y-131108599D01*
X66276777Y-131126777D01*
X66258599Y-131143253D01*
X66238893Y-131157868D01*
X66217850Y-131170480D01*
X66195671Y-131180970D01*
X66172572Y-131189235D01*
X66148773Y-131195196D01*
X66124505Y-131198796D01*
X66100001Y-131200000D01*
X65449999Y-131200000D01*
X65425495Y-131198796D01*
X65401227Y-131195196D01*
X65377428Y-131189235D01*
X65354329Y-131180970D01*
X65332150Y-131170480D01*
X65311107Y-131157868D01*
X65291401Y-131143253D01*
X65273223Y-131126777D01*
X65256747Y-131108599D01*
X65242132Y-131088893D01*
X65229520Y-131067850D01*
X65219030Y-131045671D01*
X65210765Y-131022572D01*
X65204804Y-130998773D01*
X65201204Y-130974505D01*
X65200000Y-130950001D01*
X65200000Y-130049999D01*
X65201204Y-130025495D01*
X65204804Y-130001227D01*
X65210765Y-129977428D01*
X65219030Y-129954329D01*
X65229520Y-129932150D01*
X65242132Y-129911107D01*
X65256747Y-129891401D01*
X65273223Y-129873223D01*
X65291401Y-129856747D01*
X65311107Y-129842132D01*
X65332150Y-129829520D01*
X65354329Y-129819030D01*
X65377428Y-129810765D01*
X65401227Y-129804804D01*
X65425495Y-129801204D01*
X65449999Y-129800000D01*
X66100001Y-129800000D01*
X66124505Y-129801204D01*
X66124505Y-129801204D01*
G37*
D14*
X65775000Y-130500000D03*
D12*
G36*
X89149504Y-130626205D02*
G01*
X89173772Y-130629805D01*
X89197571Y-130635766D01*
X89220670Y-130644031D01*
X89242849Y-130654521D01*
X89263892Y-130667133D01*
X89283598Y-130681748D01*
X89301776Y-130698224D01*
X89318252Y-130716402D01*
X89332867Y-130736108D01*
X89345479Y-130757151D01*
X89355969Y-130779330D01*
X89364234Y-130802429D01*
X89370195Y-130826228D01*
X89373795Y-130850496D01*
X89374999Y-130875000D01*
X89374999Y-131525002D01*
X89373795Y-131549506D01*
X89370195Y-131573774D01*
X89364234Y-131597573D01*
X89355969Y-131620672D01*
X89345479Y-131642851D01*
X89332867Y-131663894D01*
X89318252Y-131683600D01*
X89301776Y-131701778D01*
X89283598Y-131718254D01*
X89263892Y-131732869D01*
X89242849Y-131745481D01*
X89220670Y-131755971D01*
X89197571Y-131764236D01*
X89173772Y-131770197D01*
X89149504Y-131773797D01*
X89125000Y-131775001D01*
X88224998Y-131775001D01*
X88200494Y-131773797D01*
X88176226Y-131770197D01*
X88152427Y-131764236D01*
X88129328Y-131755971D01*
X88107149Y-131745481D01*
X88086106Y-131732869D01*
X88066400Y-131718254D01*
X88048222Y-131701778D01*
X88031746Y-131683600D01*
X88017131Y-131663894D01*
X88004519Y-131642851D01*
X87994029Y-131620672D01*
X87985764Y-131597573D01*
X87979803Y-131573774D01*
X87976203Y-131549506D01*
X87974999Y-131525002D01*
X87974999Y-130875000D01*
X87976203Y-130850496D01*
X87979803Y-130826228D01*
X87985764Y-130802429D01*
X87994029Y-130779330D01*
X88004519Y-130757151D01*
X88017131Y-130736108D01*
X88031746Y-130716402D01*
X88048222Y-130698224D01*
X88066400Y-130681748D01*
X88086106Y-130667133D01*
X88107149Y-130654521D01*
X88129328Y-130644031D01*
X88152427Y-130635766D01*
X88176226Y-130629805D01*
X88200494Y-130626205D01*
X88224998Y-130625001D01*
X89125000Y-130625001D01*
X89149504Y-130626205D01*
X89149504Y-130626205D01*
G37*
D14*
X88674999Y-131200001D03*
D12*
G36*
X89149504Y-132676205D02*
G01*
X89173772Y-132679805D01*
X89197571Y-132685766D01*
X89220670Y-132694031D01*
X89242849Y-132704521D01*
X89263892Y-132717133D01*
X89283598Y-132731748D01*
X89301776Y-132748224D01*
X89318252Y-132766402D01*
X89332867Y-132786108D01*
X89345479Y-132807151D01*
X89355969Y-132829330D01*
X89364234Y-132852429D01*
X89370195Y-132876228D01*
X89373795Y-132900496D01*
X89374999Y-132925000D01*
X89374999Y-133575002D01*
X89373795Y-133599506D01*
X89370195Y-133623774D01*
X89364234Y-133647573D01*
X89355969Y-133670672D01*
X89345479Y-133692851D01*
X89332867Y-133713894D01*
X89318252Y-133733600D01*
X89301776Y-133751778D01*
X89283598Y-133768254D01*
X89263892Y-133782869D01*
X89242849Y-133795481D01*
X89220670Y-133805971D01*
X89197571Y-133814236D01*
X89173772Y-133820197D01*
X89149504Y-133823797D01*
X89125000Y-133825001D01*
X88224998Y-133825001D01*
X88200494Y-133823797D01*
X88176226Y-133820197D01*
X88152427Y-133814236D01*
X88129328Y-133805971D01*
X88107149Y-133795481D01*
X88086106Y-133782869D01*
X88066400Y-133768254D01*
X88048222Y-133751778D01*
X88031746Y-133733600D01*
X88017131Y-133713894D01*
X88004519Y-133692851D01*
X87994029Y-133670672D01*
X87985764Y-133647573D01*
X87979803Y-133623774D01*
X87976203Y-133599506D01*
X87974999Y-133575002D01*
X87974999Y-132925000D01*
X87976203Y-132900496D01*
X87979803Y-132876228D01*
X87985764Y-132852429D01*
X87994029Y-132829330D01*
X88004519Y-132807151D01*
X88017131Y-132786108D01*
X88031746Y-132766402D01*
X88048222Y-132748224D01*
X88066400Y-132731748D01*
X88086106Y-132717133D01*
X88107149Y-132704521D01*
X88129328Y-132694031D01*
X88152427Y-132685766D01*
X88176226Y-132679805D01*
X88200494Y-132676205D01*
X88224998Y-132675001D01*
X89125000Y-132675001D01*
X89149504Y-132676205D01*
X89149504Y-132676205D01*
G37*
D14*
X88674999Y-133250001D03*
D12*
G36*
X84974505Y-130651204D02*
G01*
X84998773Y-130654804D01*
X85022572Y-130660765D01*
X85045671Y-130669030D01*
X85067850Y-130679520D01*
X85088893Y-130692132D01*
X85108599Y-130706747D01*
X85126777Y-130723223D01*
X85143253Y-130741401D01*
X85157868Y-130761107D01*
X85170480Y-130782150D01*
X85180970Y-130804329D01*
X85189235Y-130827428D01*
X85195196Y-130851227D01*
X85198796Y-130875495D01*
X85200000Y-130899999D01*
X85200000Y-131550001D01*
X85198796Y-131574505D01*
X85195196Y-131598773D01*
X85189235Y-131622572D01*
X85180970Y-131645671D01*
X85170480Y-131667850D01*
X85157868Y-131688893D01*
X85143253Y-131708599D01*
X85126777Y-131726777D01*
X85108599Y-131743253D01*
X85088893Y-131757868D01*
X85067850Y-131770480D01*
X85045671Y-131780970D01*
X85022572Y-131789235D01*
X84998773Y-131795196D01*
X84974505Y-131798796D01*
X84950001Y-131800000D01*
X84049999Y-131800000D01*
X84025495Y-131798796D01*
X84001227Y-131795196D01*
X83977428Y-131789235D01*
X83954329Y-131780970D01*
X83932150Y-131770480D01*
X83911107Y-131757868D01*
X83891401Y-131743253D01*
X83873223Y-131726777D01*
X83856747Y-131708599D01*
X83842132Y-131688893D01*
X83829520Y-131667850D01*
X83819030Y-131645671D01*
X83810765Y-131622572D01*
X83804804Y-131598773D01*
X83801204Y-131574505D01*
X83800000Y-131550001D01*
X83800000Y-130899999D01*
X83801204Y-130875495D01*
X83804804Y-130851227D01*
X83810765Y-130827428D01*
X83819030Y-130804329D01*
X83829520Y-130782150D01*
X83842132Y-130761107D01*
X83856747Y-130741401D01*
X83873223Y-130723223D01*
X83891401Y-130706747D01*
X83911107Y-130692132D01*
X83932150Y-130679520D01*
X83954329Y-130669030D01*
X83977428Y-130660765D01*
X84001227Y-130654804D01*
X84025495Y-130651204D01*
X84049999Y-130650000D01*
X84950001Y-130650000D01*
X84974505Y-130651204D01*
X84974505Y-130651204D01*
G37*
D14*
X84500000Y-131225000D03*
D12*
G36*
X84974505Y-132701204D02*
G01*
X84998773Y-132704804D01*
X85022572Y-132710765D01*
X85045671Y-132719030D01*
X85067850Y-132729520D01*
X85088893Y-132742132D01*
X85108599Y-132756747D01*
X85126777Y-132773223D01*
X85143253Y-132791401D01*
X85157868Y-132811107D01*
X85170480Y-132832150D01*
X85180970Y-132854329D01*
X85189235Y-132877428D01*
X85195196Y-132901227D01*
X85198796Y-132925495D01*
X85200000Y-132949999D01*
X85200000Y-133600001D01*
X85198796Y-133624505D01*
X85195196Y-133648773D01*
X85189235Y-133672572D01*
X85180970Y-133695671D01*
X85170480Y-133717850D01*
X85157868Y-133738893D01*
X85143253Y-133758599D01*
X85126777Y-133776777D01*
X85108599Y-133793253D01*
X85088893Y-133807868D01*
X85067850Y-133820480D01*
X85045671Y-133830970D01*
X85022572Y-133839235D01*
X84998773Y-133845196D01*
X84974505Y-133848796D01*
X84950001Y-133850000D01*
X84049999Y-133850000D01*
X84025495Y-133848796D01*
X84001227Y-133845196D01*
X83977428Y-133839235D01*
X83954329Y-133830970D01*
X83932150Y-133820480D01*
X83911107Y-133807868D01*
X83891401Y-133793253D01*
X83873223Y-133776777D01*
X83856747Y-133758599D01*
X83842132Y-133738893D01*
X83829520Y-133717850D01*
X83819030Y-133695671D01*
X83810765Y-133672572D01*
X83804804Y-133648773D01*
X83801204Y-133624505D01*
X83800000Y-133600001D01*
X83800000Y-132949999D01*
X83801204Y-132925495D01*
X83804804Y-132901227D01*
X83810765Y-132877428D01*
X83819030Y-132854329D01*
X83829520Y-132832150D01*
X83842132Y-132811107D01*
X83856747Y-132791401D01*
X83873223Y-132773223D01*
X83891401Y-132756747D01*
X83911107Y-132742132D01*
X83932150Y-132729520D01*
X83954329Y-132719030D01*
X83977428Y-132710765D01*
X84001227Y-132704804D01*
X84025495Y-132701204D01*
X84049999Y-132700000D01*
X84950001Y-132700000D01*
X84974505Y-132701204D01*
X84974505Y-132701204D01*
G37*
D14*
X84500000Y-133275000D03*
D15*
X58250000Y-126050000D03*
X58250000Y-127950000D03*
X61250000Y-127000000D03*
X61250000Y-132250000D03*
X58250000Y-133200000D03*
X58250000Y-131300000D03*
M02*
