M48
; DRILL file {KiCad (5.1.0)-1} date 03/10/2019 23:56:58
; FORMAT={-:-/ absolute / metric / decimal}
; #@! TF.CreationDate,2019-10-03T23:56:58+02:00
; #@! TF.GenerationSoftware,Kicad,Pcbnew,(5.1.0)-1
; #@! TF.FileFunction,Plated,1,2,PTH
FMAT,2
METRIC
T1C0.400
T2C0.500
T3C0.800
T4C0.900
T5C1.000
T6C1.200
T7C1.300
T8C1.500
T9C1.520
T10C1.700
T11C2.200
T12C2.500
%
G90
G05
T1
X52.0Y-92.0
X52.0Y-117.0
X52.0Y-121.0
X52.0Y-140.0
X57.0Y-56.0
X60.0Y-71.0
X60.0Y-74.0
X68.0Y-56.0
X68.0Y-62.0
X68.0Y-74.0
X69.0Y-92.0
X72.0Y-101.0
X72.0Y-117.0
X72.0Y-121.0
X72.0Y-131.0
X73.0Y-139.0
X75.0Y-108.0
X78.0Y-62.0
X78.0Y-70.0
X78.0Y-75.0
X83.0Y-62.0
X83.0Y-70.0
X83.0Y-75.0
X87.0Y-56.0
X87.0Y-108.0
X88.0Y-92.0
X91.0Y-129.0
X91.0Y-131.0
X91.559Y-80.559
X91.84Y-82.428
X93.0Y-121.0
X97.0Y-59.0
X97.0Y-68.0
X97.0Y-75.0
X97.0Y-82.0
X97.0Y-140.0
X102.2Y-132.0
X104.75Y-87.75
X108.5Y-87.75
X109.0Y-98.0
X109.25Y-62.25
X109.5Y-103.75
X109.5Y-109.25
X109.5Y-115.5
X109.75Y-56.25
X109.75Y-132.5
X109.75Y-134.75
X109.75Y-136.25
X109.75Y-138.75
X110.0Y-100.0
X110.25Y-127.5
X110.25Y-130.25
X112.0Y-57.0
X112.0Y-96.25
X112.5Y-120.55
X114.9Y-122.6
X116.75Y-123.75
X117.75Y-122.75
X118.0Y-90.0
X118.0Y-91.0
X118.25Y-98.5
X118.25Y-106.5
X118.25Y-115.5
X118.5Y-74.75
X118.7Y-84.0
X118.75Y-81.75
X118.75Y-85.5
X120.35Y-90.0
X120.35Y-98.5
X120.4Y-91.3
X120.5Y-84.0
X120.5Y-85.5
X120.75Y-74.75
X120.75Y-106.5
X120.75Y-115.5
X120.8Y-100.9
X122.25Y-81.75
X123.25Y-74.0
X124.5Y-72.75
X124.5Y-81.75
X124.6Y-134.4
X124.75Y-129.75
X124.75Y-131.75
X125.25Y-104.0
X126.25Y-107.5
X128.0Y-94.25
X129.0Y-107.75
X129.2Y-104.4
X129.25Y-100.25
X130.0Y-75.25
X130.5Y-80.0
X130.75Y-94.25
X131.0Y-89.5
X131.037Y-88.35
X131.75Y-117.0
X131.75Y-126.5
X132.0Y-66.5
X132.998Y-107.625
X133.0Y-58.0
X133.75Y-97.5
X134.0Y-60.0
X134.5Y-106.5
X135.25Y-132.75
X135.75Y-58.25
X136.5Y-128.875
X136.5Y-130.025
X139.25Y-81.75
X139.25Y-113.0
X140.25Y-84.5
X140.5Y-83.0
X141.64Y-81.86
X142.308Y-96.808
X145.0Y-75.25
X147.0Y-66.5
X147.5Y-80.25
X147.5Y-85.0
X147.5Y-94.75
X52.85Y-141.5
X53.333Y-140.333
X53.333Y-142.667
X54.5Y-139.85
X54.5Y-143.15
X55.667Y-140.333
X55.667Y-142.667
X56.15Y-141.5
X93.1Y-96.75
X93.583Y-95.583
X93.583Y-97.917
X94.75Y-95.1
X94.75Y-98.4
X95.917Y-95.583
X95.917Y-97.917
X96.4Y-96.75
X87.7Y-141.5
X88.183Y-140.333
X88.183Y-142.667
X89.35Y-139.85
X89.35Y-143.15
X90.517Y-140.333
X90.517Y-142.667
X91.0Y-141.5
X52.85Y-96.75
X53.333Y-95.583
X53.333Y-97.917
X54.5Y-95.1
X54.5Y-98.4
X55.667Y-95.583
X55.667Y-97.917
X56.15Y-96.75
T2
X102.375Y-58.5
X102.924Y-57.174
X102.924Y-59.826
X104.25Y-56.625
X104.25Y-60.375
X105.576Y-57.174
X105.576Y-59.826
X106.125Y-58.5
X87.375Y-58.5
X87.924Y-57.174
X87.924Y-59.826
X89.25Y-56.625
X89.25Y-60.375
X90.576Y-57.174
X90.576Y-59.826
X91.125Y-58.5
X102.375Y-141.25
X102.924Y-139.924
X102.924Y-142.576
X104.25Y-139.375
X104.25Y-143.125
X105.576Y-139.924
X105.576Y-142.576
X106.125Y-141.25
X52.625Y-58.25
X53.174Y-56.924
X53.174Y-59.576
X54.5Y-56.375
X54.5Y-60.125
X55.826Y-56.924
X55.826Y-59.576
X56.375Y-58.25
X138.125Y-141.5
X138.674Y-140.174
X138.674Y-142.826
X140.0Y-139.625
X140.0Y-143.375
X141.326Y-140.174
X141.326Y-142.826
X141.875Y-141.5
X138.125Y-58.5
X138.674Y-57.174
X138.674Y-59.826
X140.0Y-56.625
X140.0Y-60.375
X141.326Y-57.174
X141.326Y-59.826
X141.875Y-58.5
T3
X130.5Y-129.0
X130.5Y-132.5
X130.5Y-111.0
X130.5Y-114.5
X123.0Y-92.5
X128.0Y-92.5
X103.0Y-135.5
X108.0Y-135.5
X123.0Y-86.5
X128.0Y-86.5
X111.0Y-135.5
X116.0Y-135.5
X130.5Y-120.0
X130.5Y-123.5
X103.0Y-106.5
X108.0Y-106.5
X60.01Y-99.5
X75.25Y-99.5
X131.0Y-99.0
X136.0Y-99.0
X69.0Y-126.63
X69.0Y-134.25
X71.54Y-126.63
X71.54Y-134.25
X74.08Y-126.63
X74.08Y-134.25
X76.62Y-126.63
X76.62Y-134.25
X102.893Y-100.25
X107.893Y-100.25
X103.0Y-129.5
X108.0Y-129.5
X131.0Y-92.5
X136.0Y-92.5
X61.26Y-140.25
X76.5Y-140.25
X111.0Y-106.5
X116.0Y-106.5
X62.92Y-70.25
X62.92Y-77.87
X68.0Y-70.25
X68.0Y-77.87
X130.5Y-138.0
X130.5Y-141.5
X130.5Y-129.0
X130.5Y-132.5
X111.0Y-112.5
X116.0Y-112.5
X62.01Y-122.0
X77.25Y-122.0
X69.0Y-103.63
X69.0Y-111.25
X71.54Y-103.63
X71.54Y-111.25
X74.08Y-103.63
X74.08Y-111.25
X76.62Y-103.63
X76.62Y-111.25
X139.0Y-92.5
X144.0Y-92.5
X60.01Y-115.75
X75.25Y-115.75
T4
X82.25Y-109.21
X82.25Y-111.75
X82.25Y-103.21
X82.25Y-105.75
X146.75Y-59.5
X146.75Y-62.04
X94.75Y-88.75
X94.75Y-91.29
T5
X54.0Y-122.92
X54.0Y-125.46
X54.0Y-128.0
X56.5Y-101.17
X56.5Y-103.71
X56.5Y-106.25
X54.0Y-131.67
X54.0Y-134.21
X54.0Y-136.75
X56.5Y-110.17
X56.5Y-112.71
X56.5Y-115.25
T6
X81.0Y-64.0
X81.0Y-69.0
X116.0Y-79.0
X116.0Y-84.0
X81.0Y-79.0
X81.0Y-84.0
X116.0Y-65.5
X116.0Y-70.5
T7
X137.325Y-112.25
X137.325Y-119.75
X137.325Y-126.25
X137.325Y-133.75
T8
X144.575Y-112.25
X144.575Y-126.25
T9
X94.25Y-124.84
X94.25Y-129.92
X94.25Y-135.0
X94.25Y-102.59
X94.25Y-107.67
X94.25Y-112.75
X105.0Y-69.59
X105.0Y-74.67
X105.0Y-79.75
X94.0Y-69.34
X94.0Y-74.42
X94.0Y-79.5
X54.25Y-69.0
X54.25Y-74.08
X54.25Y-79.16
T10
X141.075Y-109.85
X141.075Y-136.15
T11
X94.75Y-96.75
X89.35Y-141.5
X54.5Y-96.75
X54.5Y-141.5
T12
X104.25Y-58.5
X89.25Y-58.5
X104.25Y-141.25
X54.5Y-58.25
X140.0Y-141.5
X140.0Y-58.5
T0
M30
